<svg xmlns="http://www.w3.org/2000/svg" width="62.811" height="54.198" viewBox="0 0 62.811 54.198">
  <g id="BlueIcons_-06-10" data-name="BlueIcons -06-10" transform="translate(0)">
    <g id="Layer_4" transform="translate(0 0)">
      <g id="Group_76" data-name="Group 76">
        <g id="Group_72" data-name="Group 72">
          <path id="Line_92" data-name="Line 92" d="M4.192-2.005H0V-4.157H4.192Z" transform="translate(31.315 43.281)" fill="#5463ff"/>
          <path id="Path_100" data-name="Path 100" d="M19.311,48.731a3.071,3.071,0,0,1-3.068-3.068V13.111a3.071,3.071,0,0,1,3.068-3.068H67.57a3.071,3.071,0,0,1,3.068,3.068v22.46H68.487V13.111a.918.918,0,0,0-.917-.917H19.311a.918.918,0,0,0-.917.917V45.663a.918.918,0,0,0,.917.917Z" transform="translate(-12.035 -7.456)" fill="#5463ff"/>
          <g id="Group_71" data-name="Group 71" transform="translate(9.683 7.478)">
            <g id="Group_66" data-name="Group 66" transform="translate(0 0)">
              <path id="Line_93" data-name="Line 93" d="M3.131-2.005H0V-4.157H3.131Z" transform="translate(0 4.157)" fill="#e1e4fa"/>
              <path id="Line_94" data-name="Line 94" d="M3.157-2.005H0V-4.157H3.157Z" transform="translate(4.554 4.157)" fill="#e1e4fa"/>
              <path id="Line_95" data-name="Line 95" d="M3.157-2.005H0V-4.157H3.157Z" transform="translate(9.108 4.157)" fill="#e1e4fa"/>
              <path id="Line_96" data-name="Line 96" d="M3.157-2.005H0V-4.157H3.157Z" transform="translate(13.662 4.157)" fill="#e1e4fa"/>
              <path id="Line_97" data-name="Line 97" d="M3.131-2.005H0V-4.157H3.131Z" transform="translate(18.242 4.157)" fill="#e1e4fa"/>
              <path id="Line_98" data-name="Line 98" d="M3.157-2.005H0V-4.157H3.157Z" transform="translate(22.797 4.157)" fill="#e1e4fa"/>
              <path id="Line_99" data-name="Line 99" d="M3.157-2.005H0V-4.157H3.157Z" transform="translate(27.351 4.157)" fill="#e1e4fa"/>
              <path id="Line_100" data-name="Line 100" d="M3.157-2.005H0V-4.157H3.157Z" transform="translate(31.905 4.157)" fill="#e1e4fa"/>
              <path id="Line_101" data-name="Line 101" d="M3.157-2.005H0V-4.157H3.157Z" transform="translate(36.485 4.157)" fill="#e1e4fa"/>
              <path id="Line_102" data-name="Line 102" d="M3.157-2.005H0V-4.157H3.157Z" transform="translate(41.039 4.157)" fill="#e1e4fa"/>
            </g>
            <g id="Group_67" data-name="Group 67" transform="translate(0 3.648)">
              <path id="Line_103" data-name="Line 103" d="M3.131-2.005H0V-4.157H3.131Z" transform="translate(0 4.157)" fill="#e1e4fa"/>
              <path id="Line_104" data-name="Line 104" d="M3.157-2.005H0V-4.157H3.157Z" transform="translate(4.554 4.157)" fill="#e1e4fa"/>
              <path id="Line_105" data-name="Line 105" d="M3.157-2.005H0V-4.157H3.157Z" transform="translate(9.108 4.157)" fill="#e1e4fa"/>
              <path id="Line_106" data-name="Line 106" d="M3.157-2.005H0V-4.157H3.157Z" transform="translate(13.662 4.157)" fill="#e1e4fa"/>
              <path id="Line_107" data-name="Line 107" d="M3.131-2.005H0V-4.157H3.131Z" transform="translate(18.242 4.157)" fill="#e1e4fa"/>
              <path id="Line_108" data-name="Line 108" d="M3.157-2.005H0V-4.157H3.157Z" transform="translate(22.797 4.157)" fill="#e1e4fa"/>
              <path id="Line_109" data-name="Line 109" d="M3.157-2.005H0V-4.157H3.157Z" transform="translate(27.351 4.157)" fill="#e1e4fa"/>
              <path id="Line_110" data-name="Line 110" d="M3.157-2.005H0V-4.157H3.157Z" transform="translate(31.905 4.157)" fill="#e1e4fa"/>
              <path id="Line_111" data-name="Line 111" d="M3.157-2.005H0V-4.157H3.157Z" transform="translate(36.485 4.157)" fill="#e1e4fa"/>
              <path id="Line_112" data-name="Line 112" d="M3.157-2.005H0V-4.157H3.157Z" transform="translate(41.039 4.157)" fill="#e1e4fa"/>
            </g>
            <g id="Group_68" data-name="Group 68" transform="translate(0 7.297)">
              <path id="Line_113" data-name="Line 113" d="M3.131-2.005H0V-4.157H3.131Z" transform="translate(0 4.157)" fill="#e1e4fa"/>
              <path id="Line_114" data-name="Line 114" d="M3.157-2.005H0V-4.157H3.157Z" transform="translate(4.554 4.157)" fill="#e1e4fa"/>
              <path id="Line_115" data-name="Line 115" d="M3.157-2.005H0V-4.157H3.157Z" transform="translate(9.108 4.157)" fill="#e1e4fa"/>
              <path id="Line_116" data-name="Line 116" d="M3.157-2.005H0V-4.157H3.157Z" transform="translate(13.662 4.157)" fill="#e1e4fa"/>
              <path id="Line_117" data-name="Line 117" d="M3.131-2.005H0V-4.157H3.131Z" transform="translate(18.242 4.157)" fill="#e1e4fa"/>
              <path id="Line_118" data-name="Line 118" d="M3.157-2.005H0V-4.157H3.157Z" transform="translate(22.797 4.157)" fill="#e1e4fa"/>
              <path id="Line_119" data-name="Line 119" d="M3.157-2.005H0V-4.157H3.157Z" transform="translate(27.351 4.157)" fill="#e1e4fa"/>
              <path id="Line_120" data-name="Line 120" d="M3.157-2.005H0V-4.157H3.157Z" transform="translate(31.905 4.157)" fill="#e1e4fa"/>
              <path id="Line_121" data-name="Line 121" d="M3.157-2.005H0V-4.157H3.157Z" transform="translate(36.485 4.157)" fill="#e1e4fa"/>
              <path id="Line_122" data-name="Line 122" d="M3.157-2.005H0V-4.157H3.157Z" transform="translate(41.039 4.157)" fill="#e1e4fa"/>
            </g>
            <g id="Group_69" data-name="Group 69" transform="translate(0 10.945)">
              <path id="Line_123" data-name="Line 123" d="M3.131-2.005H0V-4.157H3.131Z" transform="translate(0 4.157)" fill="#e1e4fa"/>
              <path id="Line_124" data-name="Line 124" d="M3.157-2.005H0V-4.157H3.157Z" transform="translate(4.554 4.157)" fill="#e1e4fa"/>
              <path id="Line_125" data-name="Line 125" d="M3.157-2.005H0V-4.157H3.157Z" transform="translate(9.108 4.157)" fill="#e1e4fa"/>
              <path id="Line_126" data-name="Line 126" d="M3.157-2.005H0V-4.157H3.157Z" transform="translate(13.662 4.157)" fill="#e1e4fa"/>
              <path id="Line_127" data-name="Line 127" d="M3.131-2.005H0V-4.157H3.131Z" transform="translate(18.242 4.157)" fill="#e1e4fa"/>
              <path id="Line_128" data-name="Line 128" d="M3.157-2.005H0V-4.157H3.157Z" transform="translate(22.797 4.157)" fill="#e1e4fa"/>
              <path id="Line_129" data-name="Line 129" d="M3.157-2.005H0V-4.157H3.157Z" transform="translate(27.351 4.157)" fill="#e1e4fa"/>
              <path id="Line_130" data-name="Line 130" d="M3.157-2.005H0V-4.157H3.157Z" transform="translate(31.905 4.157)" fill="#e1e4fa"/>
              <path id="Line_131" data-name="Line 131" d="M3.157-2.005H0V-4.157H3.157Z" transform="translate(36.485 4.157)" fill="#e1e4fa"/>
              <path id="Line_132" data-name="Line 132" d="M3.157-2.005H0V-4.157H3.157Z" transform="translate(41.039 4.157)" fill="#e1e4fa"/>
            </g>
            <g id="Group_70" data-name="Group 70" transform="translate(0 14.594)">
              <path id="Line_133" data-name="Line 133" d="M3.131-2.005H0V-4.157H3.131Z" transform="translate(0 4.157)" fill="#e1e4fa"/>
              <path id="Line_134" data-name="Line 134" d="M3.157-2.005H0V-4.157H3.157Z" transform="translate(4.554 4.157)" fill="#e1e4fa"/>
              <path id="Line_135" data-name="Line 135" d="M3.157-2.005H0V-4.157H3.157Z" transform="translate(9.108 4.157)" fill="#e1e4fa"/>
              <path id="Line_136" data-name="Line 136" d="M3.157-2.005H0V-4.157H3.157Z" transform="translate(13.662 4.157)" fill="#e1e4fa"/>
              <path id="Line_137" data-name="Line 137" d="M16.871-2.005H0V-4.157H16.871Z" transform="translate(18.242 4.157)" fill="#e1e4fa"/>
              <path id="Line_138" data-name="Line 138" d="M3.157-2.005H0V-4.157H3.157Z" transform="translate(36.485 4.157)" fill="#e1e4fa"/>
              <path id="Line_139" data-name="Line 139" d="M3.157-2.005H0V-4.157H3.157Z" transform="translate(41.039 4.157)" fill="#e1e4fa"/>
            </g>
          </g>
          <path id="Path_101" data-name="Path 101" d="M66.274,6.891A5.383,5.383,0,0,0,61.617,4.2H11.858A5.383,5.383,0,0,0,7.2,6.891Z" transform="translate(-5.332 -3.124)" fill="#fff"/>
          <path id="Path_101_-_Outline" data-name="Path 101 - Outline" d="M62.791,4.886H-.02L.918,3.27A6.486,6.486,0,0,1,6.506.043H56.265A6.486,6.486,0,0,1,61.853,3.27ZM4.428,2.734H58.343a4.288,4.288,0,0,0-2.078-.54H6.506A4.288,4.288,0,0,0,4.428,2.734Z" transform="translate(0.02 -0.043)" fill="#5463ff"/>
        </g>
        <path id="Path_102" data-name="Path 102" d="M166.931,87.24a1.905,1.905,0,0,0-1.889-1.915c-1.061,0-1.889.388-1.889,1.423v-.44a1.889,1.889,0,1,0-3.778,0v-.957a1.889,1.889,0,1,0-3.778,0v1.061c0-2.562-.026-10.945-.026-10.945a1.967,1.967,0,0,0-3.933,0V94.692l-.026-.932V89.828a2.893,2.893,0,0,0-2.9-2.9h-.957v3.623h0v4.813l5.486,6.417a5.442,5.442,0,0,0,2.3,1.268v3.907h9.5V102.2a5.084,5.084,0,0,0,2.044-4.088V89.232Z" transform="translate(-109.508 -54.493)" fill="#fff"/>
        <path id="Path_102_-_Outline" data-name="Path 102 - Outline" d="M150.567,69.343a3.046,3.046,0,0,1,3.042,3.042h0s.012,3.777.019,7.035a2.964,2.964,0,0,1,3.245,1.146,2.944,2.944,0,0,1,3.7.839A3.956,3.956,0,0,1,162,81.169a2.981,2.981,0,0,1,2.964,2.99l.152,1.909,0,8.959a6.126,6.126,0,0,1-2.044,4.6v5.329H151.432v-4.211a6.519,6.519,0,0,1-1.956-1.248l-5.833-6.812V82.773h2.033a3.949,3.949,0,0,1,1.848.457V72.385A3.046,3.046,0,0,1,150.567,69.343Zm.917,13.988c0-2.561-.026-10.942-.026-10.942a.891.891,0,1,0-1.782,0V91.611l-2.151.03-.026-.932V86.747a1.825,1.825,0,0,0-1.7-1.819v6.959L151.022,98a4.355,4.355,0,0,0,1.761.927l.8.212v3.66h7.345V98.577l.43-.323a4,4,0,0,0,1.614-3.228V86.151l-.152-1.909A.856.856,0,0,0,162,83.32c-.811,0-.813.233-.813.347h-2.151v-.44a.814.814,0,1,0-1.627,0h-2.151V82.27a.813.813,0,1,0-1.627,0v1.061Z" transform="translate(-106.469 -51.411)" fill="#5463ff"/>
        <g id="Group_73" data-name="Group 73" transform="translate(8.452 16.095)">
          <path id="Path_103" data-name="Path 103" d="M52.222,123.7v8.2l.026-.932v-3.933a2.893,2.893,0,0,1,2.9-2.9H56.1v3.623h0v4.813l-5.486,6.417a5.442,5.442,0,0,1-2.3,1.268v3.907H38.844v-4.761a5.084,5.084,0,0,1-2.044-4.088V123.726" transform="translate(-35.724 -107.798)" fill="#fff"/>
          <path id="Path_103_-_Outline" data-name="Path 103 - Outline" d="M46.309,143.422H34.688v-5.329a6.126,6.126,0,0,1-2.044-4.6V121.9h2.151V133.5a4,4,0,0,0,1.614,3.228l.43.323v4.223h7.319v-3.66l.8-.212a4.355,4.355,0,0,0,1.85-1.02l5.138-6.022V123.4a1.825,1.825,0,0,0-1.7,1.819v3.933l-.026.961-2.151-.03v-8.2h1.846a3.951,3.951,0,0,1,2.154-.636h2.018l.015,1.076v8.833l-5.744,6.719a6.755,6.755,0,0,1-2.045,1.34Z" transform="translate(-32.643 -105.977)" fill="#5463ff"/>
          <path id="Path_104" data-name="Path 104" d="M36.8,98.724V91.815A1.905,1.905,0,0,1,38.689,89.9h0A1.91,1.91,0,0,1,40.6,91.815v6.909" transform="translate(-35.724 -82.744)" fill="#fff"/>
          <path id="Path_104_-_Outline" data-name="Path 104 - Outline" d="M38.6,95.643H36.447V88.734a.826.826,0,1,0-1.653,0v6.909H32.643V88.734a2.977,2.977,0,1,1,5.955,0Z" transform="translate(-32.643 -79.663)" fill="#5463ff"/>
          <path id="Path_105" data-name="Path 105" d="M51.7,86.864V75.815A1.905,1.905,0,0,1,53.589,73.9h0a1.889,1.889,0,0,1,1.889,1.915V86.864" transform="translate(-46.769 -70.884)" fill="#fff"/>
          <path id="Path_105_-_Outline" data-name="Path 105 - Outline" d="M53.472,83.783H51.321V72.734a.818.818,0,0,0-.813-.839.828.828,0,0,0-.813.839V83.783H47.543V72.734a2.965,2.965,0,1,1,5.929,0Z" transform="translate(-43.688 -67.803)" fill="#5463ff"/>
          <path id="Path_106" data-name="Path 106" d="M66.7,81.3V68.315A1.905,1.905,0,0,1,68.589,66.4h0a1.889,1.889,0,0,1,1.889,1.915V81.3" transform="translate(-57.888 -65.324)" fill="#fff"/>
          <path id="Path_106_-_Outline" data-name="Path 106 - Outline" d="M68.472,78.223H66.321V65.234a.818.818,0,0,0-.813-.839.828.828,0,0,0-.813.839v12.99H62.543V65.234a2.965,2.965,0,1,1,5.929,0Z" transform="translate(-54.807 -62.243)" fill="#5463ff"/>
          <path id="Path_107" data-name="Path 107" d="M81.6,90.718v-9.7A1.905,1.905,0,0,1,83.489,79.1h0a1.889,1.889,0,0,1,1.889,1.915v9.7" transform="translate(-68.932 -74.738)" fill="#fff"/>
          <path id="Path_107_-_Outline" data-name="Path 107 - Outline" d="M83.372,87.637H81.221v-9.7a.818.818,0,0,0-.813-.839.828.828,0,0,0-.813.839v9.7H77.443v-9.7a2.965,2.965,0,1,1,5.929,0Z" transform="translate(-65.851 -71.657)" fill="#5463ff"/>
        </g>
        <g id="Group_74" data-name="Group 74" transform="translate(41.846 50.472)">
          <path id="Path_108" data-name="Path 108" d="M181.029,198.826V195.1H161.7v3.726" transform="translate(-161.7 -195.1)" fill="#cfd4ff"/>
        </g>
        <g id="Group_75" data-name="Group 75" transform="translate(5.879 50.472)">
          <path id="Path_109" data-name="Path 109" d="M22.7,198.826V195.1H42v3.726" transform="translate(-22.7 -195.1)" fill="#e1e4fa"/>
          <path id="Path_110" data-name="Path 110" d="M22.7,198.826V195.1H42v3.726" transform="translate(-22.7 -195.1)" fill="#cfd4ff"/>
        </g>
      </g>
    </g>
  </g>
</svg>
