<svg id="BlueIcons_-06-01" data-name="BlueIcons -06-01" xmlns="http://www.w3.org/2000/svg" width="52.453" height="52.581" viewBox="0 0 52.453 52.581">
  <g id="Layer_4" transform="translate(0)">
    <g id="Group_15" data-name="Group 15">
      <path id="Path_35" data-name="Path 35" d="M72.243,22.873A22.822,22.822,0,1,1,49.422,0,22.852,22.852,0,0,1,72.243,22.873Z" transform="translate(-19.79)" fill="#e1e4fa"/>
      <g id="Group_14" data-name="Group 14" transform="translate(0 1.543)">
        <g id="Group_13" data-name="Group 13" transform="translate(0 15.458)">
          <path id="Path_36" data-name="Path 36" d="M22.555,70.628A16.612,16.612,0,0,0,9.031,75.392,16.4,16.4,0,0,0,4.6,83.46c1.358,1.229,2.689,2.51,4.047,3.791Z" transform="translate(-3.425 -69.469)" fill="#e1e4fa"/>
          <path id="Path_36_-_Outline" data-name="Path 36 - Outline" d="M17.376,66.377a17.433,17.433,0,0,1,1.881.1l1.985.211L5.327,85.709,3.516,84C2.5,83.036,1.5,82.082.474,81.157l-.46-.417.136-.605A17.6,17.6,0,0,1,17.376,66.377ZM5.145,82.608l11.793-14.1A15.472,15.472,0,0,0,2.373,80.007c.873.8,1.738,1.62,2.608,2.445Z" transform="translate(-0.014 -66.377)" fill="#5463ff"/>
          <path id="Path_37" data-name="Path 37" d="M84.43,127.3,67.5,141.541c1.434,1.511,2.869,3.048,4.252,4.559A16.595,16.595,0,0,0,84.43,127.3Z" transform="translate(-50.215 -111.696)" fill="#e1e4fa"/>
          <path id="Path_37_-_Outline" data-name="Path 37 - Outline" d="M80.687,119.373l.292,1.866a17.66,17.66,0,0,1-13.5,20l-.6.136-.417-.456c-1.379-1.507-2.809-3.039-4.239-4.545l-.778-.82ZM67.607,139.019a15.531,15.531,0,0,0,11.455-15.5L64.546,135.733C65.578,136.826,66.6,137.928,67.607,139.019Z" transform="translate(-45.712 -105.799)" fill="#5463ff"/>
        </g>
        <path id="Path_38" data-name="Path 38" d="M38.2,37.439l12.371,12.4,18.16-15.266A25.307,25.307,0,0,0,77.337,10.6a25.255,25.255,0,0,0-23.923,8.632Z" transform="translate(-28.419 -9.117)" fill="#fff"/>
        <path id="Path_38_-_Outline" data-name="Path 38 - Outline" d="M46.325,48.188,32.576,34.411,48.414,15.454a26.319,26.319,0,0,1,24.933-9l.722.133.132.722a26.454,26.454,0,0,1-8.968,24.981Zm-10.868-13.9L46.451,45.3,63.863,30.664A24.321,24.321,0,0,0,72.229,8.429a24.192,24.192,0,0,0-22.183,8.393Z" transform="translate(-24.236 -6.025)" fill="#5463ff"/>
        <path id="Path_39" data-name="Path 39" d="M18.293,159.653c-1.588,1.588-9.5,3.816-9.5,3.816-.1.1,2.228-7.94,3.816-9.528a4.019,4.019,0,0,1,5.712,0A4.09,4.09,0,0,1,18.293,159.653Z" transform="translate(-6.54 -115.169)" fill="#cfd4ff"/>
        <path id="Path_39_-_Outline" data-name="Path 39 - Outline" d="M5.194,161.658l-.365-.874c-.436-1.053,2.705-9.344,4.05-10.688a5.084,5.084,0,0,1,7.217,0,5.162,5.162,0,0,1-.02,7.211c-1.7,1.7-8.607,3.71-9.973,4.095Zm7.294-10.936a2.959,2.959,0,0,0-2.1.879c-.872.872-2.277,4.816-3.028,7.206,3.266-1.018,6.456-2.247,7.208-3a3.02,3.02,0,0,0,.019-4.212A2.954,2.954,0,0,0,12.488,150.723Z" transform="translate(-3.566 -112.077)" fill="#5463ff"/>
        <path id="Path_40" data-name="Path 40" d="M150.9,16.406a43.357,43.357,0,0,1,5.1,6.122,25.668,25.668,0,0,0,.692-11.91,25.225,25.225,0,0,0-11.885.692A44.671,44.671,0,0,1,150.9,16.406Z" transform="translate(-107.715 -9.139)" fill="#fff"/>
        <path id="Path_40_-_Outline" data-name="Path 40 - Outline" d="M149.387,21.871l-1.259-1.833a42.488,42.488,0,0,0-4.972-5.971,43.765,43.765,0,0,0-5.951-4.976l-1.8-1.25L137.5,7.2a26.117,26.117,0,0,1,7.664-1.145,26.633,26.633,0,0,1,4.722.424l.727.131.131.727a26.8,26.8,0,0,1-.72,12.405ZM140.255,8.688a45.888,45.888,0,0,1,4.406,3.874,44.921,44.921,0,0,1,3.868,4.408,24.635,24.635,0,0,0,.241-8.518A24.281,24.281,0,0,0,140.255,8.688Z" transform="translate(-100.728 -6.047)" fill="#5463ff"/>
        <path id="Path_41" data-name="Path 41" d="M128.289,49.689a5.687,5.687,0,1,1,0-8.043A5.674,5.674,0,0,1,128.289,49.689Z" transform="translate(-88.208 -31.279)" fill="#e1e4fa"/>
        <path id="Line_1" data-name="Line 1" d="M10.864,12.4-2.942-1.432l1.507-1.5L12.371,10.895Z" transform="translate(15.068 25.973)" fill="#5463ff"/>
      </g>
    </g>
  </g>
</svg>
