<svg xmlns="http://www.w3.org/2000/svg" width="46.014" height="54.879" viewBox="0 0 46.014 54.879">
  <g id="BlueIcons_-06-05" data-name="BlueIcons -06-05" transform="translate(0 0)">
    <g id="Layer_4">
      <g id="Group_44" data-name="Group 44">
        <path id="Path_63" data-name="Path 63" d="M51.464,114.231,42.385,98.446,34.21,84.272,26.034,98.447l-9.078,15.784L15.1,113.162l9.079-15.785,10.034-17.4,10.033,17.4,9.08,15.786Z" transform="translate(-11.203 -59.352)" fill="#5463ff"/>
        <path id="Line_50" data-name="Line 50" d="M-2.012,54.371H-4.157V0h2.144Z" transform="translate(26.091 0)" fill="#5463ff"/>
        <rect id="Rectangle_9" data-name="Rectangle 9" width="46.014" height="36.006" transform="translate(0 7.815)" fill="#cfd4ff"/>
        <g id="Group_43" data-name="Group 43" transform="translate(2.152 9.967)">
          <path id="Path_64" data-name="Path 64" d="M26.634,42.8H52.091V72.358H12.5V42.8H26.634Z" transform="translate(-11.428 -41.728)" fill="#fff"/>
          <path id="Path_64_-_Outline" data-name="Path 64 - Outline" d="M8.343,38.643H50.079v31.7H8.343Zm39.591,2.144H10.488V68.2H47.935Z" transform="translate(-8.343 -38.643)" fill="#5463ff"/>
          <path id="Path_65" data-name="Path 65" d="M25.8,56.2V69.457l6.061-8.073L37.794,69.3,41.637,64.2l4.875,6.525,1.083,1.419H58.5V56.2Z" transform="translate(-21.298 -51.672)" fill="#e1e4fa"/>
          <path id="Path_66" data-name="Path 66" d="M117.571,71.611a2.786,2.786,0,1,1-2.786-2.811A2.829,2.829,0,0,1,117.571,71.611Z" transform="translate(-85.264 -61.022)" fill="#fff"/>
        </g>
        <path id="Rectangle_10" data-name="Rectangle 10" d="M-4.157-4.157H10.471v5.91H-4.157ZM8.327-2.012H-2.012V-.391H8.327Z" transform="translate(19.85 10.152)" fill="#5463ff"/>
      </g>
    </g>
  </g>
</svg>
