<svg xmlns="http://www.w3.org/2000/svg" width="57.401" height="49.446" viewBox="0 0 57.401 49.446">
  <g id="BlueIcons_-06-45" data-name="BlueIcons -06-45" transform="translate(0)">
    <g id="Layer_4" transform="translate(0 0)">
      <g id="Group_249" data-name="Group 249">
        <rect id="Rectangle_66" data-name="Rectangle 66" width="51.481" height="41.336" transform="translate(1.046 7.063)" fill="#fff"/>
        <path id="Rectangle_66_-_Outline" data-name="Rectangle 66 - Outline" d="M-4.157-4.157H49.418V39.272H-4.157ZM47.325-2.064H-2.064V37.18H47.325Z" transform="translate(4.157 10.173)" fill="#5463ff"/>
        <rect id="Rectangle_67" data-name="Rectangle 67" width="45.213" height="20.718" transform="translate(4.168 10.21)" fill="#e1e4fa"/>
        <rect id="Rectangle_68" data-name="Rectangle 68" width="13.493" height="12.008" transform="translate(4.168 33.244)" fill="#cfd4ff"/>
        <rect id="Rectangle_69" data-name="Rectangle 69" width="13.493" height="12.008" transform="translate(20.028 33.244)" fill="#cfd4ff"/>
        <rect id="Rectangle_70" data-name="Rectangle 70" width="13.493" height="12.008" transform="translate(35.888 33.244)" fill="#cfd4ff"/>
        <rect id="Rectangle_71" data-name="Rectangle 71" width="51.481" height="6.017" transform="translate(1.046 1.046)" fill="#fff"/>
        <path id="Rectangle_71_-_Outline" data-name="Rectangle 71 - Outline" d="M-4.157-4.157H49.418V3.953H-4.157ZM47.325-2.064H-2.064V1.86H47.325Z" transform="translate(4.157 4.157)" fill="#5463ff"/>
        <path id="Line_381" data-name="Line 381" d="M1.964-2.064H0V-4.157H1.964Z" transform="translate(3.388 7.102)" fill="#5463ff"/>
        <path id="Line_382" data-name="Line 382" d="M1.964-2.064H0V-4.157H1.964Z" transform="translate(6.761 7.102)" fill="#5463ff"/>
        <path id="Line_383" data-name="Line 383" d="M1.938-2.064H0V-4.157H1.938Z" transform="translate(10.159 7.102)" fill="#5463ff"/>
        <g id="Group_248" data-name="Group 248" transform="translate(6.455 15.068)">
          <path id="Path_323" data-name="Path 323" d="M42.754,71.4h-.73L34.9,67.8l7.124-3.6h.73" transform="translate(-32.58 -63.118)" fill="#fff"/>
          <path id="Path_323_-_Outline" data-name="Path 323 - Outline" d="M35.858,69.336h-.979l-9.2-4.646,9.2-4.646h.979v2.093h-.481L30.324,64.69l5.053,2.554h.481Z" transform="translate(-25.683 -60.007)" fill="#5463ff"/>
          <g id="Group_247" data-name="Group 247" transform="translate(9.193)">
            <rect id="Rectangle_72" data-name="Rectangle 72" width="35.345" height="7.275" transform="translate(1.057 1.057)" fill="#cfd4ff"/>
            <path id="Path_324" data-name="Path 324" d="M64.289,61.989H97.545v5.186H64.289V61.989M62.2,59.9v9.39H99.634V59.9Z" transform="translate(-62.2 -59.9)" fill="#5463ff"/>
          </g>
          <path id="Line_384" data-name="Line 384" d="M34.766-2.064H0V-4.157H34.766Z" transform="translate(11.182 7.793)" fill="#5463ff"/>
          <path id="Path_325" data-name="Path 325" d="M212.62,69.312H209.7V67.219h2.528V62.036H209.7V59.943h2.92a1.783,1.783,0,0,1,1.7,1.852V67.46A1.783,1.783,0,0,1,212.62,69.312Z" transform="translate(-163.375 -59.932)" fill="#5463ff"/>
        </g>
      </g>
    </g>
  </g>
</svg>
