<svg id="BlueIcons_-06-33" data-name="BlueIcons -06-33" xmlns="http://www.w3.org/2000/svg" width="46.914" height="50.642" viewBox="0 0 46.914 50.642">
  <g id="Layer_4" transform="translate(0 0)">
    <g id="Group_182" data-name="Group 182">
      <path id="Path_245" data-name="Path 245" d="M49.9,113.919a46.065,46.065,0,0,1,6.7.142,42.341,42.341,0,0,1,8.8,1.727A9.4,9.4,0,0,1,71.22,110.7a12.013,12.013,0,0,1,3.857-.71V108.5h-.071" transform="translate(-38.092 -82.836)" fill="#fff"/>
      <path id="Path_245_-_Outline" data-name="Path 245 - Outline" d="M65.815,113.84l-.9-.288a41.384,41.384,0,0,0-8.594-1.685,44.87,44.87,0,0,0-6.548-.139l-.113-1.964a46.85,46.85,0,0,1,6.841.144,44.513,44.513,0,0,1,8.173,1.513,10.815,10.815,0,0,1,6.034-4.82,12.787,12.787,0,0,1,3.2-.713v-.561h.948l-.035-.984h.984l.071.984v2.456l-.965.019a10.949,10.949,0,0,0-3.54.651,8.478,8.478,0,0,0-5.234,4.5Z" transform="translate(-37.91 -79.663)" fill="#5463ff"/>
      <path id="Path_246" data-name="Path 246" d="M74.906,82.012h.071V80.521a12.013,12.013,0,0,1-3.857-.71A9.362,9.362,0,0,1,65.3,74.7a42.032,42.032,0,0,1-8.8,1.727,46,46,0,0,1-6.7.142" transform="translate(-38.016 -57.034)" fill="#fff"/>
      <path id="Path_246_-_Outline" data-name="Path 246 - Outline" d="M75.781,79.041H74.8l-.035-.984h-.948V77.5a12.814,12.814,0,0,1-3.21-.715,10.774,10.774,0,0,1-6.03-4.84,44.3,44.3,0,0,1-8.166,1.512,47.05,47.05,0,0,1-6.844.145l.112-1.964a45.07,45.07,0,0,0,6.553-.14,41.226,41.226,0,0,0,8.59-1.684l.9-.289.323.89a8.447,8.447,0,0,0,5.226,4.52,10.961,10.961,0,0,0,3.547.653l.965.019Z" transform="translate(-37.836 -53.08)" fill="#5463ff"/>
      <path id="Path_247" data-name="Path 247" d="M0,92.989H10.672V80.4H0" transform="translate(0 -61.385)" fill="#cfd4ff"/>
      <rect id="Rectangle_46" data-name="Rectangle 46" width="3.904" height="13.583" transform="translate(10.435 18.518)" fill="#cfd4ff"/>
      <path id="Line_297" data-name="Line 297" d="M-2.189,13.583H-4.157V0h1.967Z" transform="translate(13.608 18.518)" fill="#5463ff"/>
      <path id="Path_248" data-name="Path 248" d="M93.2,55.929V53.962a20.976,20.976,0,0,0,0-41.951V10.043a22.943,22.943,0,0,1,0,45.886Z" transform="translate(-71.146 -7.677)" fill="#5463ff"/>
      <path id="Line_298" data-name="Line 298" d="M-2.189,40.535H-4.157V0h1.967Z" transform="translate(46.997 5.054)" fill="#5463ff"/>
      <g id="Group_180" data-name="Group 180" transform="translate(18.941)">
        <rect id="Rectangle_47" data-name="Rectangle 47" width="4.236" height="4.259" transform="translate(0.984 45.399)" fill="#fff"/>
        <path id="Rectangle_47_-_Outline" data-name="Rectangle 47 - Outline" d="M-4.157-4.157h6.2V2.07h-6.2ZM.079-2.189H-2.189V.1H.079Z" transform="translate(4.157 48.572)" fill="#5463ff"/>
        <rect id="Rectangle_48" data-name="Rectangle 48" width="4.236" height="4.259" transform="translate(0.984 0.984)" fill="#fff"/>
        <path id="Rectangle_48_-_Outline" data-name="Rectangle 48 - Outline" d="M-4.157-4.157h6.2V2.07h-6.2ZM.079-2.189H-2.189V.1H.079Z" transform="translate(4.157 4.157)" fill="#5463ff"/>
      </g>
      <rect id="Rectangle_49" data-name="Rectangle 49" width="4.236" height="4.259" transform="translate(41.694 23.179)" fill="#fff"/>
      <path id="Rectangle_49_-_Outline" data-name="Rectangle 49 - Outline" d="M-4.157-4.157h6.2V2.07h-6.2ZM.079-2.189H-2.189V.1H.079Z" transform="translate(44.867 26.353)" fill="#5463ff"/>
      <g id="Group_181" data-name="Group 181" transform="translate(40.711 0.189)">
        <rect id="Rectangle_50" data-name="Rectangle 50" width="4.236" height="4.259" transform="translate(0.984 45.02)" fill="#fff"/>
        <path id="Rectangle_50_-_Outline" data-name="Rectangle 50 - Outline" d="M-4.157-4.157h6.2V2.07h-6.2ZM.079-2.189H-2.189V.1H.079Z" transform="translate(4.157 48.193)" fill="#5463ff"/>
        <rect id="Rectangle_51" data-name="Rectangle 51" width="4.236" height="4.259" transform="translate(0.984 0.984)" fill="#fff"/>
        <path id="Rectangle_51_-_Outline" data-name="Rectangle 51 - Outline" d="M-4.157-4.157h6.2V2.07h-6.2ZM.079-2.189H-2.189V.1H.079Z" transform="translate(4.157 4.157)" fill="#5463ff"/>
      </g>
      <path id="Line_299" data-name="Line 299" d="M12.541-2.189H0V-4.157H12.541Z" transform="translate(24.444 28.482)" fill="#5463ff"/>
      <path id="Path_249" data-name="Path 249" d="M92.184,100.3a1.609,1.609,0,1,1-1.585,1.609A1.591,1.591,0,0,1,92.184,100.3Z" transform="translate(-69.16 -76.576)" fill="#fff"/>
      <path id="Path_249_-_Outline" data-name="Path 249 - Outline" d="M89.01,96.143a2.593,2.593,0,1,1-2.569,2.593,2.5,2.5,0,0,1,.72-1.813A2.6,2.6,0,0,1,89.01,96.143Zm0,3.218a.622.622,0,0,0,.6-.626.607.607,0,0,0-.6-.626.617.617,0,0,0-.44.185.561.561,0,0,0-.162.415A.615.615,0,0,0,89.01,99.362Z" transform="translate(-65.985 -73.403)" fill="#5463ff"/>
      <path id="Line_300" data-name="Line 300" d="M7.69-2.189H0V-4.157H7.69Z" transform="translate(0 24.885)" fill="#fff"/>
    </g>
  </g>
</svg>
