<svg id="BlueIcons_-06-47" data-name="BlueIcons -06-47" xmlns="http://www.w3.org/2000/svg" width="62.939" height="41.111" viewBox="0 0 62.939 41.111">
  <g id="Layer_4" transform="translate(0)">
    <g id="Group_254" data-name="Group 254">
      <path id="Path_334" data-name="Path 334" d="M78.092,20.555A20.5,20.5,0,1,1,57.6,0,20.535,20.535,0,0,1,78.092,20.555Z" transform="translate(-26.127)" fill="#e1e4fa"/>
      <path id="Path_335" data-name="Path 335" d="M72.657,21.5h0a14.159,14.159,0,1,1-14.07,15.647,14.436,14.436,0,0,1,.484-5.439l.608-2.15,1.492,1.663a3.825,3.825,0,1,0,4.757-5.866l-1.957-1.106L65.958,23.2a14.052,14.052,0,0,1,6.7-1.7ZM72.6,47.361a11.7,11.7,0,0,0,11.64-12.929A11.6,11.6,0,0,0,72.657,23.967h0a11.771,11.771,0,0,0-1.225.064,11.346,11.346,0,0,0-2.6.588,6.291,6.291,0,0,1-4.15,10.311,6.23,6.23,0,0,1-3.615-.707,11.773,11.773,0,0,0-.03,2.673A11.619,11.619,0,0,0,72.6,47.361Z" transform="translate(-41.197 -15.135)" fill="#5463ff"/>
      <path id="Path_336" data-name="Path 336" d="M31.523,19.543c12.574,0,24.121,5.228,30.889,13.984l.581.752-.579.753c-6.744,8.758-18.292,13.986-30.89,13.986S7.376,43.79.632,35.032l-.578-.751.578-.751C7.376,24.772,18.924,19.543,31.523,19.543Zm28.34,14.739c-6.378-7.7-16.891-12.276-28.34-12.276-11.472,0-21.985,4.571-28.341,12.275,6.356,7.7,16.869,12.275,28.341,12.275S53.506,41.985,59.862,34.282Z" transform="translate(-0.054 -13.755)" fill="#5463ff"/>
    </g>
  </g>
</svg>
