<svg xmlns="http://www.w3.org/2000/svg" width="106.223" height="82.012" viewBox="0 0 106.223 82.012">
  <g id="_x3C_Layer_x3E_" transform="translate(0 0)">
    <g id="Group_1306" data-name="Group 1306" transform="translate(0)">
      <g id="Group_1291" data-name="Group 1291" transform="translate(58.963)">
        <g id="Group_1279" data-name="Group 1279" transform="translate(0)">
          <path id="Path_1603" data-name="Path 1603" d="M6.28,47.507l41.006,8c1.474.268,2.68-1.3,2.68-3.484V4.446c0-2.233-1.206-3.752-2.68-3.484L6.28,9.449A3.466,3.466,0,0,0,3.6,12.665V44.291A3.466,3.466,0,0,0,6.28,47.507Z" transform="translate(-3.153 -0.472)" fill="#fff"/>
          <path id="Path_1604" data-name="Path 1604" d="M47.091,55.381a2.28,2.28,0,0,0,1.429-.536,4.368,4.368,0,0,0,1.34-3.44V3.877A4.433,4.433,0,0,0,48.52.437a2.216,2.216,0,0,0-1.876-.491L5.638,8.433A3.946,3.946,0,0,0,2.6,12.1V43.722A3.807,3.807,0,0,0,5.638,47.34l41.006,8A1.377,1.377,0,0,0,47.091,55.381Zm0-54.541a1.253,1.253,0,0,1,.849.313,3.631,3.631,0,0,1,1.027,2.725V51.405a3.508,3.508,0,0,1-1.027,2.769,1.324,1.324,0,0,1-1.117.313l-41.006-8h0a2.945,2.945,0,0,1-2.323-2.769V12.1A2.986,2.986,0,0,1,5.816,9.327L46.823.884A.567.567,0,0,1,47.091.839Z" transform="translate(-2.6 0.097)"/>
        </g>
        <path id="Path_1605" data-name="Path 1605" d="M56.2,65.15l11.435.8V53L56.2,53.447Z" transform="translate(-44.318 -29.282)" fill="#f1cf25"/>
        <path id="Path_1606" data-name="Path 1606" d="M4.3,65.586l11.435.8V50.8L4.3,51.291Z" transform="translate(30.765 -28.065)" fill="#080717"/>
        <g id="Group_1280" data-name="Group 1280" transform="translate(0)">
          <path id="Path_1607" data-name="Path 1607" d="M6.28,9.493,47.286,1.051c1.474-.313,2.68,1.251,2.68,3.484v3.8L3.6,15.255V12.709A3.425,3.425,0,0,1,6.28,9.493Z" transform="translate(-3.153 -0.516)" fill="#080717"/>
          <path id="Path_1608" data-name="Path 1608" d="M3.047,15.044h.045L49.458,8.121a.475.475,0,0,0,.4-.447v-3.8A4.433,4.433,0,0,0,48.52.437a2.216,2.216,0,0,0-1.876-.491L5.638,8.433h0A3.946,3.946,0,0,0,2.6,12.1v2.546A.507.507,0,0,0,2.734,15C2.823,15,2.957,15.044,3.047,15.044Zm45.92-7.728L3.493,14.106V12.1A2.986,2.986,0,0,1,5.816,9.327L46.823.884a1.167,1.167,0,0,1,1.117.313,3.455,3.455,0,0,1,1.027,2.68Z" transform="translate(-2.6 0.097)"/>
        </g>
        <g id="Group_1281" data-name="Group 1281" transform="translate(35.78 3.473)">
          <path id="Path_1609" data-name="Path 1609" d="M9,9.072c0,.67.4,1.206.849,1.117A1.341,1.341,0,0,0,10.7,8.8c0-.715-.4-1.206-.849-1.117A1.4,1.4,0,0,0,9,9.072Z" transform="translate(-2.076 -7.677)" fill="#fff"/>
          <path id="Path_1610" data-name="Path 1610" d="M16.7,10.472c0,.67.4,1.161.849,1.072a1.341,1.341,0,0,0,.849-1.385c0-.67-.4-1.161-.849-1.072A1.341,1.341,0,0,0,16.7,10.472Z" transform="translate(-13.216 -8.451)" fill="#fff"/>
          <path id="Path_1611" data-name="Path 1611" d="M24.5,11.926c0,.67.4,1.117.849,1.027a1.281,1.281,0,0,0,.849-1.34c0-.67-.4-1.117-.849-1.027C24.9,10.631,24.5,11.256,24.5,11.926Z" transform="translate(-24.5 -9.28)" fill="#fff"/>
        </g>
        <g id="Group_1282" data-name="Group 1282" transform="translate(34.663 8.665)">
          <path id="Path_1612" data-name="Path 1612" d="M29.247,64.327a.422.422,0,0,0,.447-.447V19.747a.447.447,0,0,0-.893,0V63.88A.422.422,0,0,0,29.247,64.327Z" transform="translate(-28.8 -19.3)"/>
        </g>
        <g id="Group_1283" data-name="Group 1283" transform="translate(23.094 10.451)">
          <path id="Path_1613" data-name="Path 1613" d="M55.147,64.306a.422.422,0,0,0,.447-.447V23.747a.447.447,0,0,0-.893,0V63.86A.48.48,0,0,0,55.147,64.306Z" transform="translate(-54.7 -23.3)"/>
        </g>
        <g id="Group_1284" data-name="Group 1284" transform="translate(11.569 12.194)">
          <path id="Path_1614" data-name="Path 1614" d="M80.947,64.186a.422.422,0,0,0,.447-.447V27.647a.447.447,0,0,0-.893,0V63.739A.422.422,0,0,0,80.947,64.186Z" transform="translate(-80.5 -27.2)"/>
        </g>
        <g id="Group_1285" data-name="Group 1285" transform="translate(0.313 22.065)">
          <path id="Path_1615" data-name="Path 1615" d="M3.047,52.2h0L49.1,50.193a.447.447,0,0,0,0-.893L3.047,51.265a.448.448,0,0,0-.447.447A.459.459,0,0,0,3.047,52.2Z" transform="translate(-2.6 -49.3)"/>
        </g>
        <g id="Group_1286" data-name="Group 1286" transform="translate(0.313 34.483)">
          <path id="Path_1616" data-name="Path 1616" d="M49.1,81.21a.441.441,0,0,0,.447-.4.486.486,0,0,0-.4-.491L3.091,77.1a.523.523,0,0,0-.491.4.486.486,0,0,0,.4.491L49.1,81.21Z" transform="translate(-2.6 -77.1)"/>
        </g>
        <g id="Group_1287" data-name="Group 1287" transform="translate(15.761 26.989)">
          <rect id="Rectangle_262" data-name="Rectangle 262" width="0.893" height="5.048" transform="translate(0.008 0.94) rotate(-90.534)" fill="#080717"/>
        </g>
        <g id="Group_1288" data-name="Group 1288" transform="translate(14.964 29.257)">
          <path id="Path_1617" data-name="Path 1617" d="M66.32,66.7c.581,0,1.117-.045,1.608-.089l-.045-.893c-1.831-.089-3.663-.223-5.494-.313l-.089.893A21.863,21.863,0,0,0,66.32,66.7Z" transform="translate(-62.3 -65.4)" fill="#080717"/>
        </g>
        <g id="Group_1289" data-name="Group 1289" transform="translate(16.751 31.937)">
          <path id="Path_1618" data-name="Path 1618" d="M65.942,72.651l.089-.893c-1.3-.134-2.591-.268-3.842-.357l-.089.893C63.4,72.383,64.646,72.517,65.942,72.651Z" transform="translate(-62.1 -71.4)" fill="#080717"/>
        </g>
        <g id="Group_1290" data-name="Group 1290" transform="translate(37.522 27.113)">
          <path id="Path_1619" data-name="Path 1619" d="M15.078,67.211l.4-.67,1.34-2.278-.759-.447-.938,1.608A19.052,19.052,0,0,0,11.281,60.6l-.581.67a18.086,18.086,0,0,1,4.02,5.271Z" transform="translate(-10.7 -60.6)" fill="#fff"/>
        </g>
      </g>
      <path id="Path_1620" data-name="Path 1620" d="M76.984,111.369l7.1-12.865c.045-.849.983-11.569,5.9-20.414,3.216-5.807,9.425-9.515,17.421-10.363l.223-.045a42.119,42.119,0,0,1,7.013.134c.8.089,1.3.223,1.474.581.134.268.045.581-.179.983a4.711,4.711,0,0,1-1.831,1.474,12,12,0,0,1-3.038.938c.8.268,1.474.625,1.653,1.206a1.936,1.936,0,0,1-1.206,2.68h-.045a1.48,1.48,0,0,1,.179.67,2.057,2.057,0,0,1-1.385,2.01,1.065,1.065,0,0,1,.268.491v.134c0,.045.045.045.045.089a2.443,2.443,0,0,1-.759,2.457,4.381,4.381,0,0,1-2.77.983,2.087,2.087,0,0,1-.759-.134,2.057,2.057,0,0,1-1.251-1.876v-.045a2.468,2.468,0,0,0-2.323.849c-.313.581-2.859,12.507-6.745,31.894v.089a7.714,7.714,0,0,1-5.852,5.673,7.192,7.192,0,0,1-1.653.179c-4.914,0-9.157-4.6-11.346-7.549C76.939,111.547,76.939,111.458,76.984,111.369Z" transform="translate(-43.169 -37.353)" fill="#fff"/>
      <path id="Path_1621" data-name="Path 1621" d="M136.55,131.949s-5.36-9.649-12.463-9.649c-.893,0-1.027,5.182-1.027,5.182l-5.36,16.036s4.735,6.834,9.783,5.807S134.317,147.4,136.55,131.949Z" transform="translate(-81.741 -67.626)" fill="#1877f2"/>
      <g id="Group_1298" data-name="Group 1298" transform="translate(10.006 8.449)">
        <path id="Path_1622" data-name="Path 1622" d="M176.668,49.2c-26.757,1.563-33.368-7.1-33.368-7.1s1.117-4.869,3.842-5.092c2.68-.223,2.859-.313,2.1-3.261-.759-2.9-2.189-4.78,2.01-4.6,2.948.134,3.216-.715,3.842-4.065s5.9-3.038,7.683-1.876,8.04,1.742,8.4,4.467,3.306,2.859,1.653,7.058.045,2.68,1.161,3.261,2.055,3.261-.179,4.288-2.412,2.5-.625,2.412C176.445,44.553,176.668,49.2,176.668,49.2Z" transform="translate(-143.3 -20.797)"/>
        <path id="Path_1623" data-name="Path 1623" d="M170.583,45.39a31.994,31.994,0,0,0,.849,3.574.3.3,0,0,0,.223.179,9.19,9.19,0,0,0,2.814-1.385,8.926,8.926,0,0,0,3.261-4.69,8.777,8.777,0,0,0-.536-6.209c-.089-.223-.4-.089-.357.134a3.172,3.172,0,0,0-2.68.447,9.576,9.576,0,0,0-2.189,2.055,6.047,6.047,0,0,0-1.519,2.769A8.241,8.241,0,0,0,170.583,45.39Z" transform="translate(-156.781 -28.736)" fill="#080717"/>
        <circle id="Ellipse_26" data-name="Ellipse 26" cx="9.559" cy="9.559" r="9.559" transform="translate(21.328 27.037) rotate(-135)"/>
        <g id="Group_1292" data-name="Group 1292" transform="translate(13.248 18.411)">
          <path id="Path_1624" data-name="Path 1624" d="M159.4,74.267c-.179.179,7.46,4.378,7.906,4.422,1.072.089,2.5-6.522,3.127-8.621.223-.715.4-1.385.625-2.01.045-.179.134-.4.179-.581.045-.089.045-.179.089-.268a5.357,5.357,0,0,1,.536-1.385L163.289,61C163.245,61.045,159.582,74.088,159.4,74.267Z" transform="translate(-158.938 -60.569)" fill="#fff"/>
          <path id="Path_1625" data-name="Path 1625" d="M166.916,78.646c1.027,0,1.742-2.144,3.038-7.1.179-.759.357-1.385.491-1.831l.179-.67c.134-.491.268-.938.4-1.385a3.727,3.727,0,0,1,.179-.536.338.338,0,0,0,.045-.179l.045-.089a12.1,12.1,0,0,1,.447-1.251.481.481,0,0,0,.089-.357.517.517,0,0,0-.223-.313l-8.576-4.824a.434.434,0,0,0-.4-.045.472.472,0,0,0-.268.313c-1.385,5-3.574,12.6-3.8,13.133a.631.631,0,0,0-.045.4c.045.179.134.4,4.02,2.546a27.789,27.789,0,0,0,4.244,2.144C166.872,78.646,166.872,78.646,166.916,78.646ZM170.8,65.469a7.226,7.226,0,0,0-.357,1.072l-.045.089a1.935,1.935,0,0,0-.045.223,3.752,3.752,0,0,1-.179.536c-.134.4-.268.893-.4,1.385l-.179.67c-.134.447-.313,1.117-.491,1.876-.491,1.787-1.563,5.941-2.189,6.432-.893-.357-6.3-3.35-7.415-4.11.313-.893,1.117-3.618,3.618-12.463Z" transform="translate(-158.5 -60.034)"/>
        </g>
        <path id="Path_1626" data-name="Path 1626" d="M160.428,70.743c-.089.179.045.357.223.536a45.052,45.052,0,0,0,4.422,2.993c.179.089.357.223.536.313.223-.715.4-1.385.625-2.01.045-.179.134-.4.179-.581a.164.164,0,0,1-.134-.045.694.694,0,0,0-.447.045c-.089-.045-.223-.045-.313-.089-.491-.134-.983-.313-1.474-.447-1.027-.313-2.01-.625-3.037-.893A.482.482,0,0,0,160.428,70.743Z" transform="translate(-140.685 -47.433)" fill="#080717"/>
        <g id="Group_1293" data-name="Group 1293" transform="translate(15.502 19.92)">
          <path id="Path_1627" data-name="Path 1627" d="M178.436,64.7a.533.533,0,0,0,.4-.223.481.481,0,0,0-.134-.625,3.127,3.127,0,0,0-3.127-.045.46.46,0,0,0,.447.8,2.245,2.245,0,0,1,2.189,0C178.258,64.7,178.347,64.7,178.436,64.7Z" transform="translate(-175.356 -63.412)"/>
        </g>
        <g id="Group_1294" data-name="Group 1294" transform="translate(14.581 6.33)">
          <path id="Path_1628" data-name="Path 1628" d="M145.321,41.511c2.77-2.993,3.35-6.834,7.37-7.37,4.556-.625,7.147,5.092,7.728,5.628a1.5,1.5,0,0,0,.581.313,3.842,3.842,0,0,0,.715-.045c.67-.045.67.715.67,1.161,0,.581,0,1.117-.045,1.7a10.438,10.438,0,0,1-.179,1.161c0,.179.045.4.045.581,0,4.065-3.35,6.834-7.37,7.37C145.277,53.3,143.535,43.432,145.321,41.511Z" transform="translate(-144.223 -33.6)" fill="#fff"/>
          <path id="Path_1629" data-name="Path 1629" d="M152.56,51.978a12.37,12.37,0,0,0,1.742-.134c4.556-.625,7.772-3.842,7.772-7.817a2.173,2.173,0,0,0-.045-.536h0a9.038,9.038,0,0,0,.179-1.161c.045-.625.045-1.251.045-1.742V40.5a1.794,1.794,0,0,0-.4-1.3,1.009,1.009,0,0,0-.759-.268.872.872,0,0,0-.313.045.378.378,0,0,1-.313,0,.6.6,0,0,1-.4-.223c-.089-.045-.268-.4-.491-.67-1.072-1.653-3.663-5.584-7.594-5.048-2.9.4-4.154,2.367-5.45,4.467a19.218,19.218,0,0,1-2.189,3.038c-1.117,1.161-.938,4.244.313,6.7A8.369,8.369,0,0,0,152.56,51.978Zm8.577-12.105h.089c.089.089.089.491.089.67v.089c0,.447,0,1.072-.045,1.653a7.668,7.668,0,0,1-.179,1.072v.223c0,.179.045.313.045.491,0,2.993-2.144,6.3-7.013,6.924-5.36.715-7.772-2.233-8.71-4.02-1.251-2.412-1.117-5-.447-5.718h0a20.889,20.889,0,0,0,2.278-3.172c1.251-2.01,2.323-3.752,4.824-4.065,3.395-.491,5.673,2.993,6.745,4.646a3.665,3.665,0,0,0,.67.893,1.53,1.53,0,0,0,.8.4,2.894,2.894,0,0,0,.625,0,.246.246,0,0,1,.223-.089Z" transform="translate(-143.6 -32.988)"/>
        </g>
        <g id="Group_1295" data-name="Group 1295" transform="translate(28.647 17.162)">
          <path id="Path_1630" data-name="Path 1630" d="M146.076,59.543a3.1,3.1,0,0,0,.893-.134,2.517,2.517,0,0,0,1.653-1.563.452.452,0,0,0-.849-.313,1.827,1.827,0,0,1-1.117,1.027,1.8,1.8,0,0,1-1.519-.134.452.452,0,1,0-.491.759A3.378,3.378,0,0,0,146.076,59.543Z" transform="translate(-144.437 -57.237)"/>
        </g>
        <g id="Group_1296" data-name="Group 1296" transform="translate(25.238 11.023)">
          <path id="Path_1631" data-name="Path 1631" d="M155.191,45.865a.441.441,0,0,0,.447-.4c.045-.938.625-1.072,1.563-1.072h.089a.447.447,0,0,0,0-.893H157.2c-1.563-.045-2.412.581-2.5,1.876a.569.569,0,0,0,.491.491Z" transform="translate(-154.7 -43.495)"/>
        </g>
        <path id="Path_1632" data-name="Path 1632" d="M154.853,48.687c.179.491.045.938-.313,1.072s-.759-.179-.938-.625c-.179-.491-.045-.938.313-1.072S154.674,48.24,154.853,48.687Z" transform="translate(-126.131 -34.981)"/>
        <path id="Path_1633" data-name="Path 1633" d="M161.611,42.435a42.469,42.469,0,0,0,1.251,4.512.282.282,0,0,0,.357.179,14.017,14.017,0,0,0,4.2-1.787,11.312,11.312,0,0,0,4.824-5.941,9.9,9.9,0,0,0-.759-7.862c-.134-.268-.625-.089-.536.179a5.184,5.184,0,0,0-3.976.581,12.463,12.463,0,0,0-3.261,2.591,7.551,7.551,0,0,0-2.233,3.484A9.585,9.585,0,0,0,161.611,42.435Z" transform="translate(-147.406 -25.781)" fill="#080717"/>
        <path id="Path_1634" data-name="Path 1634" d="M184.162,64.581l.8,7.058s-5.9.313-9.47-1.251S180.187,64,180.187,64Z" transform="translate(-165.58 -43.817)" fill="#080717"/>
        <path id="Path_1635" data-name="Path 1635" d="M170.4,56.635A2.635,2.635,0,1,0,173.036,54,2.64,2.64,0,0,0,170.4,56.635Z" transform="translate(-154.408 -38.284)" fill="#fff"/>
        <g id="Group_1297" data-name="Group 1297" transform="translate(17.548 16.741)">
          <path id="Path_1636" data-name="Path 1636" d="M175.051,58.665h.045a.523.523,0,0,0,.4-.491,2.015,2.015,0,0,0-2.189-1.876.449.449,0,1,0,.089.893,1.1,1.1,0,0,1,1.251,1.072A.4.4,0,0,0,175.051,58.665Z" transform="translate(-172.9 -56.296)"/>
        </g>
      </g>
      <path id="Path_1637" data-name="Path 1637" d="M155.25,90.351,136.4,126.578h36.852s9.2-1.787,9.515-8.04,0-7.415-4.154-14.249c-3.886-6.388-8.934-15.143-10.676-16.8C163.648,83.606,159.583,81.6,155.25,90.351Z" transform="translate(-136.4 -46.531)" fill="#1877f2"/>
      <g id="Group_1305" data-name="Group 1305" transform="translate(21.634 29.922)">
        <g id="Group_1299" data-name="Group 1299" transform="translate(18.97)">
          <path id="Path_1638" data-name="Path 1638" d="M77.174,98.608a.441.441,0,0,0,.447-.4c0-.089.8-11.123,5.807-20.19,3.127-5.628,9.113-9.157,16.885-10.051h.223a40.03,40.03,0,0,1,6.834.134c.715.089.893.179.938.223,0,0,0,.089-.179.313a3.4,3.4,0,0,1-1.563,1.206,7.815,7.815,0,0,1-4.824.849.439.439,0,1,0-.223.849,8.508,8.508,0,0,0,5.4-.938,4.305,4.305,0,0,0,1.965-1.563,1.415,1.415,0,0,0,.223-1.206c-.268-.491-.938-.625-1.653-.715a42.65,42.65,0,0,0-7.058-.134l-.223.045c-8.085.893-14.294,4.6-17.6,10.5-5.137,9.2-5.941,20.458-5.941,20.548.089.313.268.536.536.536Z" transform="translate(-76.638 -66.887)"/>
        </g>
        <g id="Group_1300" data-name="Group 1300" transform="translate(40.948 3.669)">
          <path id="Path_1639" data-name="Path 1639" d="M89.657,80.058a.164.164,0,0,0,.134-.045,2.18,2.18,0,0,0,1.34-2.993c-.625-1.831-5.494-1.921-6.611-1.921h-.045a.448.448,0,0,0-.447.447.422.422,0,0,0,.447.447h.045c2.144,0,5.45.4,5.762,1.34a1.265,1.265,0,0,1-.8,1.831.463.463,0,0,0,.179.893Z" transform="translate(-84.029 -75.1)"/>
        </g>
        <g id="Group_1301" data-name="Group 1301" transform="translate(40.68 6.393)">
          <path id="Path_1640" data-name="Path 1640" d="M91.245,86.158h.134a2.3,2.3,0,0,0,1.653-2.278c-.179-2.725-5.316-2.68-5.9-2.68a.448.448,0,0,0-.447.447.48.48,0,0,0,.447.447h0c1.251-.045,4.869.223,5,1.831.089.983-.983,1.34-1.027,1.34a.447.447,0,0,0-.268.581A.429.429,0,0,0,91.245,86.158Z" transform="translate(-86.689 -81.2)"/>
        </g>
        <g id="Group_1302" data-name="Group 1302" transform="translate(0 12.55)">
          <path id="Path_1641" data-name="Path 1641" d="M118.55,134.523a7.939,7.939,0,0,0,7.772-6.03l.045-.089c3.886-19.208,6.388-31.09,6.745-31.849.447-.849,2.77-.938,4.6-.134a.44.44,0,1,0,.357-.8c-2.1-.938-4.958-.893-5.718.536-.447.849-3.976,17.912-6.834,32.072v.089A7.187,7.187,0,0,1,120.2,133.5c-3.886.849-8.264-1.653-12.329-7.1L95.858,108.748a.452.452,0,1,0-.759.491l12.016,17.689C109.259,129.877,113.547,134.523,118.55,134.523Z" transform="translate(-95.023 -94.982)"/>
        </g>
        <g id="Group_1303" data-name="Group 1303" transform="translate(40.227 9.826)">
          <path id="Path_1642" data-name="Path 1642" d="M94.479,91.125h.089a.424.424,0,0,0,.313-.536c-.491-2.055-4.735-1.7-5.226-1.653a.449.449,0,0,0,.089.893c1.3-.134,4.02-.045,4.244.983A.549.549,0,0,0,94.479,91.125Z" transform="translate(-89.247 -88.885)"/>
        </g>
        <g id="Group_1304" data-name="Group 1304" transform="translate(40.054 11.328)">
          <path id="Path_1643" data-name="Path 1643" d="M91.075,96.336a4.585,4.585,0,0,0,2.9-1.072,2.627,2.627,0,0,0,.849-2.68.439.439,0,1,0-.849.223,1.635,1.635,0,0,1-.581,1.787,3.529,3.529,0,0,1-2.814.759.98.98,0,0,1-.759-.893.448.448,0,0,0-.447-.447.441.441,0,0,0-.447.4,1.836,1.836,0,0,0,1.34,1.742A1.343,1.343,0,0,0,91.075,96.336Z" transform="translate(-88.931 -92.247)"/>
        </g>
      </g>
    </g>
  </g>
</svg>
