<svg id="_x3C_Layer_x3E_" xmlns="http://www.w3.org/2000/svg" width="105.892" height="79.499" viewBox="0 0 105.892 79.499">
  <g id="Group_1626" data-name="Group 1626" transform="translate(0)">
    <path id="Path_1957" data-name="Path 1957" d="M207.213,39.1a6.187,6.187,0,0,0-1.754,3.42c-.482,2.324-.965,6.884-1.359,11.576l.307,8.945s.044.7.482.745,5.394-.175,7.761-1.359a31.024,31.024,0,0,0,5.087-3.508l-5.087-15.347C212.651,43.524,211.686,35.675,207.213,39.1Z" transform="translate(-203.569 -21.468)" fill="#fff"/>
    <g id="Group_1600" data-name="Group 1600" transform="translate(8.556 19.162)">
      <path id="Path_1958" data-name="Path 1958" d="M208.9,61.985a.264.264,0,0,0,.175-.044.435.435,0,0,0,.219-.57c-.044-.088-4.736-10.612-5-17.233a.438.438,0,1,0-.877,0c.307,6.8,4.911,17.145,5.087,17.54A.468.468,0,0,0,208.9,61.985Z" transform="translate(-203.423 -43.7)"/>
    </g>
    <path id="Path_1959" data-name="Path 1959" d="M183.179,18.247a3.292,3.292,0,0,0-.833,2.719.924.924,0,0,1-.263.789.945.945,0,0,1-1.272.088L175.418,16.8,162,31.139l14.339,13.418,5.218-5.569c0-.044.044-.088.044-.132h0v-.132h0v-.263c0-.044,0-.044-.044-.088,0-.044,0-.044-.044-.088,0-.044,0-.044-.044-.044,0-.044-.044-.044-.044-.088a.043.043,0,0,0-.044-.044l-.132-.132a1.081,1.081,0,0,0-.789-.263,3.154,3.154,0,0,1-2.719-.833,3.227,3.227,0,1,1,4.385-4.736,3.286,3.286,0,0,1,1.009,2.675.963.963,0,0,0,.307.789c.044.044.088.088.132.088a.043.043,0,0,1,.044.044c.044,0,.044.044.088.044a.043.043,0,0,1,.044.044c.044,0,.044,0,.088.044h.351a.161.161,0,0,0,.132-.044h0c.044,0,.088-.044.132-.044l5.35-5.569-5.35-5a.993.993,0,0,1,0-1.272,1.057,1.057,0,0,1,.789-.307,3.338,3.338,0,0,0,2.675-1.009,3.227,3.227,0,0,0-4.736-4.385Z" transform="translate(-157.171 -9.433)" fill="#f1cf25"/>
    <path id="Path_1960" data-name="Path 1960" d="M189.122,29.315l3.157-3.026c.175-.175,4.429-4.385,5-4.867.175-.175.658-.175,1.272-.088a.2.2,0,0,1,.132-.263l2.456-1.1c.044,0,.088-.044.175,0l5.481,1.754a.2.2,0,0,1,.132.219,2.834,2.834,0,0,1-.745,2.017,1.625,1.625,0,0,1-1.228.438h-.175l2.5,2.236a.26.26,0,0,1,.044.307A2.588,2.588,0,0,1,205.7,28a2.651,2.651,0,0,1-1.4-.175v.088a2.09,2.09,0,0,1-1.842,1.052,3.293,3.293,0,0,1-1.052-.175,8.885,8.885,0,0,1-2.982-1.71l-1.886.263.263.044a.153.153,0,0,1,.088.044l2.719,2.324a.27.27,0,0,1,.044.307,3.223,3.223,0,0,1-2.412,1.272h-.351a6.256,6.256,0,0,1-2.236-1.052,7.2,7.2,0,0,1-2.456.438h-.175a3.915,3.915,0,0,1-2.894-1.009.228.228,0,0,1-.088-.175A.258.258,0,0,1,189.122,29.315Z" transform="translate(-186.574 -11.205)" fill="#fff"/>
    <path id="Path_1961" data-name="Path 1961" d="M178.349,139.016c-.57,1.052-33.72-8.595-36.965-19.031-2.543-8.2,10.787-6.1,10.787-6.1s19.688.132,23.24,3.376C178.963,120.555,178.7,138.358,178.349,139.016Z" transform="translate(-136.731 -63.814)"/>
    <path id="Path_1962" data-name="Path 1962" d="M49.142,35.85V28.4h0a.959.959,0,0,0-.965-.877.937.937,0,0,0-.745.351,3.245,3.245,0,1,1,0-3.946.937.937,0,0,0,.745.351.959.959,0,0,0,.965-.877h0V15.942H56.6a.959.959,0,0,0,.877-.965.937.937,0,0,0-.351-.745,3.245,3.245,0,1,1,3.946,0,.937.937,0,0,0-.351.745.991.991,0,0,0,.877.965H69.05V35.85Z" transform="translate(16.374 -4.717)" fill="#1877f2"/>
    <path id="Path_1963" data-name="Path 1963" d="M25.92,37.391a.743.743,0,0,1,.614-.132c.044,0,.088.044.132.088l1.666,2.324,1.71,2.192L29.6,38.049c-.263-.263-1.447-1.272-1.929-1.8a2.664,2.664,0,0,1-.395-3.2c.044-.044.088-.088.132-.088a.264.264,0,0,1,.175.044l.57.395a2.6,2.6,0,0,1-.132-1.8,1.97,1.97,0,0,1,.877-1.14.207.207,0,0,1,.263.044l3.859,4.122a4.4,4.4,0,0,1-.438-2.28A1.7,1.7,0,0,1,33.945,30.9a.335.335,0,0,1,.219.088l4.823,7.63a.161.161,0,0,1,.044.132l-.7,9.208,6.49,7.323a.212.212,0,0,1,0,.307L35.435,65.806a.228.228,0,0,1-.175.088h-.044c-.088,0-.132-.044-.175-.132-.219-.438-5.262-10.3-5.832-11.664-.438-1.009-.438-3.99-.482-5.964a13.354,13.354,0,0,0-.044-1.579,18.75,18.75,0,0,0-1.929-3.683,9.52,9.52,0,0,1-1.4-3.333C25.394,38.4,25.525,37.7,25.92,37.391Z" transform="translate(47.665 -17.089)" fill="#fff"/>
    <g id="Group_1605" data-name="Group 1605" transform="translate(72.949 13.153)">
      <g id="Group_1601" data-name="Group 1601" transform="translate(6.998 0.484)">
        <path id="Path_1964" data-name="Path 1964" d="M36.183,57.629a.47.47,0,0,0,.263-.088.426.426,0,0,0,.044-.614l-7.279-8.638.7-9.121a.322.322,0,0,0-.088-.263l-4.867-7.586a.54.54,0,0,0-.438-.219,1.96,1.96,0,0,0-1.535,1.579c-.307,1.272,1.272,4.3,1.579,4.867a.451.451,0,0,0,.789-.438c-.745-1.359-1.666-3.552-1.535-4.253a1.162,1.162,0,0,1,.57-.833l4.648,7.191-.7,9.165a.634.634,0,0,0,.088.307l7.411,8.77A.4.4,0,0,0,36.183,57.629Z" transform="translate(-22.945 -31.1)"/>
      </g>
      <g id="Group_1602" data-name="Group 1602" transform="translate(2.464)">
        <path id="Path_1965" data-name="Path 1965" d="M52.131,41.136a.4.4,0,0,0,.219-.044.485.485,0,0,0,.175-.614L49.149,34.69c0-.044-.044-.044-.044-.088L44.94,30.129a.466.466,0,0,0-.526-.088A2.105,2.105,0,0,0,43.4,31.313a3.285,3.285,0,0,0,.438,2.543.451.451,0,0,0,.789-.438c-.745-1.359-.351-2.1-.044-2.412l3.859,4.166,3.376,5.788C51.824,41.048,51.956,41.136,52.131,41.136Z" transform="translate(-43.303 -29.996)"/>
      </g>
      <g id="Group_1603" data-name="Group 1603" transform="translate(1.37 2.501)">
        <path id="Path_1966" data-name="Path 1966" d="M52.331,46h.044a.514.514,0,0,0,.395-.482l-.526-4.692a.313.313,0,0,0-.132-.263s-1.4-1.272-1.929-1.8A1.923,1.923,0,0,1,49.7,36.8l3.946,2.719,2.192,5.394a.432.432,0,0,0,.789-.351l-2.28-5.481a.342.342,0,0,0-.175-.175L49.7,35.788a.472.472,0,0,0-.351-.088.4.4,0,0,0-.263.175,2.811,2.811,0,0,0,.439,3.464c.438.482,1.491,1.4,1.886,1.754l.526,4.517A.368.368,0,0,0,52.331,46Z" transform="translate(-48.68 -35.7)"/>
      </g>
      <g id="Group_1604" data-name="Group 1604" transform="translate(0 6.863)">
        <path id="Path_1967" data-name="Path 1967" d="M56.179,74.611A.415.415,0,0,0,56.573,74c-.044-.088-5.262-10.3-5.832-11.62-.395-.877-.395-3.9-.395-5.744a13.816,13.816,0,0,0-.044-1.622,18.494,18.494,0,0,0-2.017-3.946,8.758,8.758,0,0,1-1.315-3.026,2.3,2.3,0,0,1,.175-1.491l1.491,2.1,3.113,3.99a.438.438,0,1,0,.7-.526L49.382,48.17l-1.666-2.324a.438.438,0,0,0-.219-.175.946.946,0,0,0-.789.175c-.438.351-.614,1.14-.526,2.324a8.863,8.863,0,0,0,1.447,3.42,22.557,22.557,0,0,1,1.886,3.6,12.485,12.485,0,0,1,.044,1.535c0,2.631.088,5.087.482,6.051.57,1.359,5.613,11.269,5.832,11.708C55.872,74.524,56,74.611,56.179,74.611Z" transform="translate(-46.159 -45.648)"/>
      </g>
    </g>
    <ellipse id="Ellipse_33" data-name="Ellipse 33" cx="11.138" cy="11.138" rx="11.138" ry="11.138" transform="translate(97.368 74.487) rotate(-157.5)"/>
    <path id="Path_1968" data-name="Path 1968" d="M22.806,112.92c.526-1.666,1.622-10.655-8.375-23.109C11.493,86.172,2.767,99.853,2.767,99.853s3.069,13.988,5.964,17.364C11.669,120.55,22.806,112.92,22.806,112.92Z" transform="translate(79.325 -50.084)"/>
    <path id="Path_1969" data-name="Path 1969" d="M50.467,103.086h0a17.04,17.04,0,0,1,2.061-.745c2.017-.614,2.938-1.009,3.683-1.14a8.225,8.225,0,0,1,3.333.307c3.42.614,25.608,5.964,30.037,8.682l1.14,11.708s-.263,5.262-4.122,5.788c-4.473.57-17.935-2.017-22.89-2.894-1.184-.219-1.886-.351-1.886-.351L59.5,134.878l-42.008,1.4L15.3,112.646Z" transform="translate(6.235 -56.781)"/>
    <g id="Group_1606" data-name="Group 1606" transform="translate(81.39 46.919)">
      <path id="Path_1970" data-name="Path 1970" d="M43.385,124.759l.789-.351a48.6,48.6,0,0,1-4.341-14.558l1.535-2.368-.7-.482L39,109.587v.132C39,110.026,39.482,116.34,43.385,124.759Z" transform="translate(-39 -107)" fill="#fff"/>
    </g>
    <path id="Path_1971" data-name="Path 1971" d="M199.546,105.5c4.253,2.938,11.138-.833,12.146-6.139.614-3.157-1.754-9.559-4.078-15.172-.088-.263-.219-.526-.307-.789a11.493,11.493,0,0,1-2.149,1.973c-3.508,2.587-7.63,3.376-11.883,3.333,0,.263.044.482.044.745.088,1.14.219,2.192.351,3.069C194.9,100.063,197.178,103.878,199.546,105.5Z" transform="translate(-192.876 -46.829)"/>
    <g id="Group_1607" data-name="Group 1607" transform="translate(33.945 46.437)">
      <path id="Path_1972" data-name="Path 1972" d="M118.4,115.682c6.4,0,11.62-3.333,11.62-7.454a3.96,3.96,0,0,0-.175-1.228L108.8,112.437A14.491,14.491,0,0,0,118.4,115.682Z" transform="translate(-108.011 -106.518)" fill="#fff"/>
      <path id="Path_1973" data-name="Path 1973" d="M129.23,106.952l-19.776,5.087a14.527,14.527,0,0,0,8.638,2.587c6.183,0,11.182-3.157,11.182-7.016a1.672,1.672,0,0,0-.044-.658Zm.658-1.052a5.9,5.9,0,0,1,.307,1.754c0,4.341-5.394,7.893-12.059,7.893-4.429,0-8.331-1.579-10.436-3.9l22.188-5.744Z" transform="translate(-107.7 -105.9)"/>
    </g>
    <g id="Group_1616" data-name="Group 1616" transform="translate(30.58 23.384)">
      <path id="Path_1974" data-name="Path 1974" d="M117.2,60s8.814,4.517,11.839,8.244,3.157,7.586-2.938,8.331c0,0-1.272-.658-.833,1.579.482,2.324.965,4.6.965,4.6L117.2,85.082s.132-3.6-.7-5.481a32.649,32.649,0,0,0-2.061-3.727l-1.973-.088s-2.543-.263-3.113-3.815C108.782,68.507,109,60.7,117.2,60Z" transform="translate(-105.856 -57.074)" fill="#fff"/>
      <path id="Path_1975" data-name="Path 1975" d="M124.249,70.682c.219.219.526.307.7.132a.5.5,0,0,0-.088-.7c-.219-.219-.526-.307-.7-.132C123.986,70.112,124.03,70.463,124.249,70.682Z" transform="translate(-106.37 -62.626)"/>
      <path id="Path_1976" data-name="Path 1976" d="M132.449,77.082c.219.219.526.307.7.132a.5.5,0,0,0-.088-.7c-.219-.219-.526-.307-.7-.132C132.186,76.512,132.23,76.863,132.449,77.082Z" transform="translate(-118.166 -66.22)"/>
      <g id="Group_1608" data-name="Group 1608" transform="translate(11.47 8.043)">
        <path id="Path_1977" data-name="Path 1977" d="M133.945,74.094a.466.466,0,0,0,.438-.395c.175-1.272,1.579-1.184,1.71-1.14a.442.442,0,0,0,.482-.395.514.514,0,0,0-.395-.482,2.355,2.355,0,0,0-2.675,1.886.411.411,0,0,0,.351.482C133.9,74.094,133.9,74.094,133.945,74.094Z" transform="translate(-133.5 -71.669)"/>
      </g>
      <g id="Group_1609" data-name="Group 1609" transform="translate(16.031 5.412)">
        <path id="Path_1978" data-name="Path 1978" d="M123.545,68.094a.466.466,0,0,0,.438-.395c.175-1.272,1.579-1.184,1.71-1.14a.442.442,0,0,0,.482-.395.514.514,0,0,0-.395-.482,2.355,2.355,0,0,0-2.675,1.886.411.411,0,0,0,.351.482A.136.136,0,0,0,123.545,68.094Z" transform="translate(-123.1 -65.669)"/>
      </g>
      <g id="Group_1610" data-name="Group 1610" transform="translate(12.654 3.639)">
        <path id="Path_1979" data-name="Path 1979" d="M114.412,77.97c3.113,0,5.218-.7,6.183-2.1,1.4-2.017.088-4.692-.395-5.481-1.579-2.763-9.6-8.463-9.91-8.682a.438.438,0,1,0-.526.7c.088.044,8.156,5.832,9.691,8.419.395.658,1.535,2.938.439,4.517-.877,1.272-3.552,2.5-11.094,1.184a.447.447,0,1,0-.175.877A32.94,32.94,0,0,0,114.412,77.97Z" transform="translate(-108.266 -61.626)"/>
      </g>
      <g id="Group_1611" data-name="Group 1611" transform="translate(16.32 8.12)">
        <path id="Path_1980" data-name="Path 1980" d="M123.938,76.167a.4.4,0,0,0,.219-.044,1.411,1.411,0,0,0,.745-.965,1.217,1.217,0,0,0-.351-1.009L122.1,71.957a.435.435,0,0,0-.57.658l2.412,2.149c.044.044.132.175.088.263,0,.088-.132.219-.307.307a.486.486,0,0,0-.175.614A.46.46,0,0,0,123.938,76.167Z" transform="translate(-121.371 -71.845)" fill="#080717"/>
      </g>
      <g id="Group_1612" data-name="Group 1612" transform="translate(16.862 12.981)">
        <path id="Path_1981" data-name="Path 1981" d="M119.118,85.022a3.5,3.5,0,0,0,3.026-1.4.444.444,0,1,0-.745-.482c-.044.044-.965,1.4-3.333.877a.447.447,0,1,0-.175.877A6.521,6.521,0,0,0,119.118,85.022Z" transform="translate(-117.531 -82.931)" fill="#080717"/>
      </g>
      <path id="Path_1982" data-name="Path 1982" d="M140.188,66.734s-4.253-3.333-3.508-5.174,5.7-2.982,6.446-2.85c.7.175-.044-.921-.044-.921l2.719.219s-1.1-3.113-3.464-3.333c-2.324-.219-1.4.175-1.4.175s-.307-2.192-3.464-1.315c-3.2.877-7.016,4.341-7.279,5.613s-1.359,5.876-.088,8.551a3.206,3.206,0,0,0,3.683,2.017s-.614-1.929,1.973-2.631,3.157,1.14,3.157,1.14Z" transform="translate(-129.5 -53.328)"/>
      <g id="Group_1613" data-name="Group 1613" transform="translate(5.376 14.673)">
        <path id="Path_1983" data-name="Path 1983" d="M144.832,89.162h.132a.5.5,0,0,0,.307-.57.675.675,0,0,1,.219-.482,1.209,1.209,0,0,1,1.009-.438c.789.088,1.491,1.1,1.491,1.1a.444.444,0,0,0,.745-.482,3.59,3.59,0,0,0-2.149-1.491,2.019,2.019,0,0,0-1.754.789,1.434,1.434,0,0,0-.351,1.316C144.437,89.03,144.613,89.162,144.832,89.162Z" transform="translate(-144.431 -86.789)"/>
      </g>
      <g id="Group_1614" data-name="Group 1614" transform="translate(3.444 15.765)">
        <path id="Path_1984" data-name="Path 1984" d="M147.665,101.128a.466.466,0,0,0,.438-.395,12.4,12.4,0,0,0-2.719-8.551c-.088-.263-.351-.263-2.368-.307-1.184-.044-2.1-1.666-2.368-2.324a.432.432,0,0,0-.789.351c.044.132,1.184,2.806,3.157,2.85,1.1.044,1.579.044,1.754.088a11.582,11.582,0,0,1,2.5,7.849.379.379,0,0,0,.395.439Z" transform="translate(-139.807 -89.28)"/>
      </g>
      <g id="Group_1615" data-name="Group 1615" transform="translate(19.009 19.106)">
        <path id="Path_1985" data-name="Path 1985" d="M120.593,103.434a.264.264,0,0,0,.175-.044.435.435,0,0,0,.219-.57,14.219,14.219,0,0,1-.877-5.437.477.477,0,0,0-.395-.482.514.514,0,0,0-.482.395,14.81,14.81,0,0,0,.921,5.876A.534.534,0,0,0,120.593,103.434Z" transform="translate(-119.223 -96.9)"/>
      </g>
    </g>
    <g id="Group_1617" data-name="Group 1617" transform="translate(11.723 8.474)">
      <path id="Path_1986" data-name="Path 1986" d="M196.254,24.181a2.056,2.056,0,0,0,1.359-.482,3.078,3.078,0,0,0,.789-2.192.421.421,0,0,0-.307-.395l-5.481-1.754a.375.375,0,0,0-.307,0l-2.456,1.1a.432.432,0,1,0,.351.789l2.28-1.009,5,1.579A2.02,2.02,0,0,1,197,23a1.317,1.317,0,0,1-1.052.263.4.4,0,0,0-.482.395.414.414,0,0,0,.395.482A1.214,1.214,0,0,0,196.254,24.181Z" transform="translate(-189.599 -19.325)"/>
    </g>
    <g id="Group_1618" data-name="Group 1618" transform="translate(0 9.864)">
      <path id="Path_1987" data-name="Path 1987" d="M189.364,55.078h.044a.514.514,0,0,0,.395-.482c-1.447-10.612,1.491-22.188,1.842-23.46l3.069-2.938c1.491-1.491,4.429-4.385,4.955-4.823a16.475,16.475,0,0,1,4.56,1.009l4.3,3.815a2.2,2.2,0,0,1-.965.482,2.68,2.68,0,0,1-1.973-.658.438.438,0,0,0-.526.7,3.425,3.425,0,0,0,2.631.833,2.592,2.592,0,0,0,1.754-1.14.416.416,0,0,0-.088-.57l-4.692-4.166c-.044-.044-.088-.088-.132-.088-2.149-.7-4.823-1.447-5.437-.921-.57.482-4.867,4.692-5.043,4.867l-3.113,3.026a.959.959,0,0,0-.132.219c-.044.132-3.42,12.541-1.886,23.942A.433.433,0,0,0,189.364,55.078Z" transform="translate(-188.526 -22.496)"/>
    </g>
    <g id="Group_1619" data-name="Group 1619" transform="translate(8.417 12.094)">
      <path id="Path_1988" data-name="Path 1988" d="M203.013,33.377a2.178,2.178,0,0,0,2.017-1.184.4.4,0,0,0-.088-.482L202,28.6a.958.958,0,0,0-.219-.132l-3.2-.877a.431.431,0,1,0-.219.833l3.069.833,2.631,2.763a1.623,1.623,0,0,1-1.886.307,7.841,7.841,0,0,1-2.806-1.622.536.536,0,0,0-.395-.132l-3.026.482a.422.422,0,0,0,.132.833l2.806-.439a9.353,9.353,0,0,0,2.982,1.71A4.283,4.283,0,0,0,203.013,33.377Z" transform="translate(-195.596 -27.581)"/>
    </g>
    <g id="Group_1620" data-name="Group 1620" transform="translate(5.244 15.339)">
      <path id="Path_1989" data-name="Path 1989" d="M211.442,39.9a3.514,3.514,0,0,0,2.587-1.359.416.416,0,0,0-.088-.57l-2.719-2.324a.332.332,0,0,0-.175-.088l-2.806-.57a.447.447,0,0,0-.175.877l2.719.57,2.28,1.973a2.466,2.466,0,0,1-1.842.7,6.948,6.948,0,0,1-2.061-1.009.472.472,0,0,0-.351-.088c-.088,0-1.842.351-2.456.482a.431.431,0,0,0,.219.833c.482-.132,1.754-.351,2.236-.438a7.374,7.374,0,0,0,2.28,1.052A.965.965,0,0,1,211.442,39.9Z" transform="translate(-206.026 -34.981)"/>
    </g>
    <g id="Group_1624" data-name="Group 1624" transform="translate(32.366)">
      <g id="Group_1621" data-name="Group 1621" transform="translate(33.471 7.249)">
        <path id="Path_1990" data-name="Path 1990" d="M84.363,17.833c.088,0,.175,0,.219-.088a.431.431,0,0,0,.132-.614l-.263-.395a.444.444,0,1,0-.745.482,1.539,1.539,0,0,1,.219.351A.6.6,0,0,0,84.363,17.833Z" transform="translate(-83.631 -16.531)"/>
      </g>
      <g id="Group_1622" data-name="Group 1622" transform="translate(1.634)">
        <path id="Path_1991" data-name="Path 1991" d="M117.855,6.753a.813.813,0,0,0,.307-.088.426.426,0,0,0,.044-.614l-.658-.658a.434.434,0,1,0-.614.614c.219.219.395.438.614.658A.813.813,0,0,0,117.855,6.753ZM87.116,5.7a.623.623,0,0,0,.263-.088c.219-.175.482-.351.7-.526a.393.393,0,0,0,.088-.614.393.393,0,0,0-.614-.088c-.263.175-.482.351-.745.526a.472.472,0,0,0-.088.614A.611.611,0,0,0,87.116,5.7Zm28.765-.789a.4.4,0,0,0,.351-.175.429.429,0,0,0-.088-.614c-.263-.175-.482-.351-.745-.526a.444.444,0,0,0-.482.745c.219.175.482.351.7.526C115.706,4.867,115.794,4.911,115.882,4.911ZM89.4,4.21a.4.4,0,0,0,.219-.044c.263-.132.526-.307.789-.438a.422.422,0,0,0-.395-.745c-.263.132-.526.307-.789.438a.485.485,0,0,0-.175.614A.392.392,0,0,0,89.4,4.21Zm24.249-.789a.46.46,0,0,0,.395-.219.444.444,0,0,0-.175-.614c-.263-.132-.526-.307-.833-.438a.432.432,0,1,0-.351.789l.789.395C113.514,3.42,113.558,3.42,113.646,3.42ZM91.808,3.026a.264.264,0,0,0,.175-.044c.263-.132.526-.219.833-.351a.456.456,0,0,0,.263-.57.456.456,0,0,0-.57-.263,4.752,4.752,0,0,0-.833.351.435.435,0,0,0-.219.57A.311.311,0,0,0,91.808,3.026Zm19.382-.7a.375.375,0,0,0,.395-.307.456.456,0,0,0-.263-.57c-.307-.088-.57-.219-.877-.307a.456.456,0,0,0-.57.263.456.456,0,0,0,.263.57,6.392,6.392,0,0,1,.833.307A.892.892,0,0,1,111.19,2.324ZM94.352,2.1h.132c.263-.088.57-.175.833-.263a.451.451,0,0,0,.307-.526.451.451,0,0,0-.526-.307c-.307.088-.57.175-.877.263a.476.476,0,0,0-.307.526A.528.528,0,0,0,94.352,2.1Zm14.251-.57a.427.427,0,0,0,.438-.351.451.451,0,0,0-.307-.526,7.743,7.743,0,0,0-.877-.175.447.447,0,1,0-.175.877c.307.044.57.132.877.175Zm-11.62-.088h.088c.307-.044.57-.132.877-.175A.455.455,0,0,0,98.3.745a.455.455,0,0,0-.526-.351,6.807,6.807,0,0,0-.921.175A.455.455,0,0,0,96.5,1.1.513.513,0,0,0,96.983,1.447Zm8.945-.395a.466.466,0,0,0,.439-.395.435.435,0,0,0-.395-.482,6.542,6.542,0,0,0-.921-.088c-.219-.044-.438.175-.482.395a.514.514,0,0,0,.395.482c.307.044.57.044.877.088Zm-6.271,0H99.7c.307-.044.57-.044.877-.088a.4.4,0,0,0,.395-.482.4.4,0,0,0-.482-.395c-.307.044-.614.044-.921.088a.477.477,0,0,0-.395.482A.514.514,0,0,0,99.658,1.052Zm3.6-.175a.439.439,0,0,0,.438-.438A.414.414,0,0,0,103.253,0h-.921a.439.439,0,0,0-.438.438.472.472,0,0,0,.438.438h.921Z" transform="translate(-86.645)"/>
      </g>
      <g id="Group_1623" data-name="Group 1623" transform="translate(0 6.007)">
        <path id="Path_1992" data-name="Path 1992" d="M160.339,14.884a.4.4,0,0,0,.307-.132l.307-.307a.434.434,0,0,0-.614-.614l-.307.307a.424.424,0,0,0,0,.614A.474.474,0,0,0,160.339,14.884Z" transform="translate(-159.9 -13.7)"/>
      </g>
    </g>
    <g id="Group_1625" data-name="Group 1625" transform="translate(67.928 59.855)">
      <path id="Path_1993" data-name="Path 1993" d="M78.377,145.314a51.966,51.966,0,0,0,.877-8.814h-.877a50.283,50.283,0,0,1-.877,8.682Z" transform="translate(-77.5 -136.5)" fill="#fff"/>
    </g>
  </g>
</svg>
