<svg xmlns="http://www.w3.org/2000/svg" width="109.083" height="93.788" viewBox="0 0 109.083 93.788">
  <g id="_x3C_Layer_x3E_" transform="translate(0 0)">
    <g id="Group_1363" data-name="Group 1363" transform="translate(0)">
      <path id="Path_1644" data-name="Path 1644" d="M231.274,177.7l1.978,4.167s-4.125-.589-5.093-1.726C227.149,179,231.274,177.7,231.274,177.7Z" transform="translate(-219.026 -102.893)" fill="#fff"/>
      <g id="Group_1316" data-name="Group 1316" transform="translate(55.917)">
        <g id="Group_1309" data-name="Group 1309" transform="translate(0)">
          <path id="Path_1645" data-name="Path 1645" d="M82.711,1,78.04,3.525,72.4,22.086l16.625,5.008L95.758,4.956Z" transform="translate(-71.962 -0.562)" fill="#fff"/>
          <path id="Path_1646" data-name="Path 1646" d="M88.5,26.912a.507.507,0,0,0,.421-.295l6.692-22.18a.374.374,0,0,0-.295-.505L82.314-.024a.475.475,0,0,0-.337.042L77.264,2.543a.431.431,0,0,0-.21.253l-5.6,18.561a.475.475,0,0,0,.042.337.431.431,0,0,0,.253.21l16.624,5.008ZM94.688,4.606l-6.439,21.38-15.825-4.8L77.853,3.217,82.23.86Z" transform="translate(-71.438 0.041)"/>
        </g>
        <g id="Group_1310" data-name="Group 1310" transform="translate(14.178 9.033)">
          <rect id="Rectangle_266" data-name="Rectangle 266" width="4.714" height="0.842" transform="translate(4.511 2.173) rotate(-163.136)" fill="#080717"/>
        </g>
        <g id="Group_1311" data-name="Group 1311" transform="translate(7.17 10.416)">
          <rect id="Rectangle_267" data-name="Rectangle 267" width="11.111" height="0.842" transform="matrix(-0.957, -0.29, 0.29, -0.957, 10.633, 4.028)" fill="#080717"/>
        </g>
        <g id="Group_1312" data-name="Group 1312" transform="translate(6.619 12.272)">
          <rect id="Rectangle_268" data-name="Rectangle 268" width="11.111" height="0.842" transform="matrix(-0.957, -0.29, 0.29, -0.957, 10.633, 4.028)" fill="#080717"/>
        </g>
        <g id="Group_1313" data-name="Group 1313" transform="translate(6.07 14.126)">
          <rect id="Rectangle_269" data-name="Rectangle 269" width="11.111" height="0.842" transform="matrix(-0.957, -0.29, 0.29, -0.957, 10.633, 4.028)" fill="#080717"/>
        </g>
        <g id="Group_1314" data-name="Group 1314" transform="translate(7.329 16.542)">
          <rect id="Rectangle_270" data-name="Rectangle 270" width="9.175" height="0.842" transform="translate(8.781 3.467) rotate(-163.136)" fill="#080717"/>
        </g>
        <g id="Group_1315" data-name="Group 1315" transform="translate(6.078 0.438)">
          <path id="Path_1647" data-name="Path 1647" d="M108.072,1l-1.094,3.577L103.4,3.525Z" transform="translate(-103.4 -1)" fill="#080717"/>
        </g>
      </g>
      <path id="Path_1648" data-name="Path 1648" d="M73.908,82.1l4.924-10.564c.042-.084.084-.126.168-.126l7.071-.421c.042,0,.126,0,.126.042l-.421-11.406a4.178,4.178,0,0,1-.084-3.872,14.443,14.443,0,0,0,1.557-3.493,1.5,1.5,0,0,0-.505-1.389,14.879,14.879,0,0,0-1.431-1.01,1.073,1.073,0,0,1-.547-1.136.864.864,0,0,1,.884-.631H85.9c-.042-.042-.042-.042-.042-.084a1.438,1.438,0,0,1,.547-1.515,1.471,1.471,0,0,1,1.263-.168.8.8,0,0,1,.126-.337,1.782,1.782,0,0,1,1.347-.842h.337a2.191,2.191,0,0,1,2.315-.715c1.221.505,2.862,1.81,3.535,5.345.463,2.273-.126,5.135-.589,7.449a18.337,18.337,0,0,0-.463,2.946c.042,1.81.631,15.109.631,15.32a6.187,6.187,0,0,1-1.3,4.293,5.959,5.959,0,0,1-4.293,2.02c-.842.084-1.81.126-2.862.126-6.187,0-12.332.547-12.416.505C73.992,82.392,73.866,82.14,73.908,82.1Z" transform="translate(-16.417 -25.641)" fill="#fff"/>
      <g id="Group_1317" data-name="Group 1317" transform="translate(55.044 18.405)">
        <path id="Path_1649" data-name="Path 1649" d="M88.516,81.7c1.052,0,2.062-.042,2.946-.126a6.256,6.256,0,0,0,4.461-2.1,6.741,6.741,0,0,0,1.347-4.461c0-.126-.758-13.426-.8-15.278a22.65,22.65,0,0,1,.421-2.9c.463-2.315,1.052-5.219.589-7.534-.715-3.62-2.4-4.966-3.662-5.471a2.431,2.431,0,0,0-2.567.842.421.421,0,0,0,.673.505c.042-.042.758-.926,1.6-.589,1.094.421,2.525,1.641,3.157,4.882.421,2.146-.126,4.966-.589,7.2a18.793,18.793,0,0,0-.463,3.072c.042,1.852.758,14.773.8,15.32a5.834,5.834,0,0,1-1.136,3.872,5.376,5.376,0,0,1-3.872,1.81c-5.85.505-17.424-1.052-17.55-1.052a.38.38,0,0,0-.463.379.4.4,0,0,0,.379.463A122.635,122.635,0,0,0,88.516,81.7Z" transform="translate(-73.4 -43.69)"/>
      </g>
      <path id="Path_1650" data-name="Path 1650" d="M112.284,109.278,134,108.1s-4.84,5.808-3.956,16.835c.253,2.946-15.867-1.683-15.867-1.683S108.539,118.538,112.284,109.278Z" transform="translate(-70.534 -62.586)" fill="#080717"/>
      <path id="Path_1651" data-name="Path 1651" d="M167.911,128.844s-1.136-11.742-11.2-16.246c-10.059-4.461-19.023,1.136-22.938,3.62-3.914,2.525-9.049,6.4-9.428,14.815s1.01,15.151,16.414,15.7,27.441,0,27.441,0Z" transform="translate(-110.336 -64.222)" fill="#080717"/>
      <path id="Path_1652" data-name="Path 1652" d="M85.988,133.981H112.04a3.721,3.721,0,0,0,3.493-2.946v-.126l.084-.463a3.677,3.677,0,0,1,3.493-2.946h11.953a2.955,2.955,0,0,1,2.946,2.946V164.2a3.037,3.037,0,0,1-3.072,2.946H86.072A3.066,3.066,0,0,1,83,164.2V136.928A3.048,3.048,0,0,1,85.988,133.981Z" transform="translate(-58.758 -73.821)" fill="#1877f2"/>
      <g id="Group_1318" data-name="Group 1318" transform="translate(91.842 28.097)">
        <path id="Path_1653" data-name="Path 1653" d="M3.242,75.928,14.1,82.115a1.18,1.18,0,0,0,1.641-.463L19.7,74.707a1.18,1.18,0,0,0-.463-1.641L8.377,66.879a1.18,1.18,0,0,0-1.641.463L2.779,74.286A1.2,1.2,0,0,0,3.242,75.928Z" transform="translate(-2.618 -66.718)" fill="#080717"/>
        <path id="Path_1654" data-name="Path 1654" d="M16.1,82.742l1.178,2.02,1.178,2.02,1.178-2.02L20.814,82.7H18.457Z" transform="translate(-9.247 -75.974)" fill="#fff"/>
      </g>
      <g id="Group_1320" data-name="Group 1320" transform="translate(0 44.125)">
        <path id="Path_1655" data-name="Path 1655" d="M227.521,115.238h12.5a1.221,1.221,0,0,0,1.221-1.221v-8a1.221,1.221,0,0,0-1.221-1.221h-12.5a1.221,1.221,0,0,0-1.221,1.221v8A1.221,1.221,0,0,0,227.521,115.238Z" transform="translate(-226.3 -104.8)" fill="#f1cf25"/>
        <g id="Group_1319" data-name="Group 1319" transform="translate(2.189 2.778)">
          <path id="Path_1656" data-name="Path 1656" d="M233.8,115.5l2.441,2.946H231.4Z" transform="translate(-225.634 -113.774)" fill="#fff"/>
          <path id="Path_1657" data-name="Path 1657" d="M242.23,111.4l3.83,4.672H238.4Z" transform="translate(-238.4 -111.4)" fill="#fff"/>
        </g>
        <path id="Path_1658" data-name="Path 1658" d="M236.8,109.968a.968.968,0,1,0,.968-.968A.952.952,0,0,0,236.8,109.968Z" transform="translate(-228.214 -107.232)" fill="#fff"/>
      </g>
      <g id="Group_1327" data-name="Group 1327" transform="translate(29.159 19.751)">
        <g id="Group_1321" data-name="Group 1321" transform="translate(3.696 18.266)">
          <path id="Path_1659" data-name="Path 1659" d="M162.6,91.584s1.347,6.608-.253,8.923c-3.03,4.251,4.125,6.313,6.439,3.493,1.557-1.894-1.136-4.63,1.3-9.343C172.488,89.859,162.6,91.584,162.6,91.584Z" transform="translate(-161.151 -90.864)" fill="#fff"/>
          <path id="Path_1660" data-name="Path 1660" d="M165.036,105.107a4.571,4.571,0,0,0,3.493-1.431c.8-.968.631-2.062.463-3.367a9.034,9.034,0,0,1,.884-6.061,2.423,2.423,0,0,0,.084-2.652c-1.515-2.062-7.323-1.094-8-1.01a.426.426,0,0,0-.295.168.454.454,0,0,0-.084.337c.379,1.768,1.052,6.818-.21,8.586-1.221,1.683-1.052,3.367.379,4.461A5.7,5.7,0,0,0,165.036,105.107Zm.547-14.015c1.557,0,3.114.21,3.662.968a1.7,1.7,0,0,1-.126,1.768,10.427,10.427,0,0,0-.968,6.566c.168,1.178.253,2.02-.295,2.736-1.221,1.515-4.082,1.431-5.556.337-1.094-.8-1.136-1.978-.21-3.325,1.473-2.1.715-7.239.421-8.8A20.549,20.549,0,0,1,165.583,91.092Z" transform="translate(-160.559 -90.287)"/>
        </g>
        <path id="Path_1661" data-name="Path 1661" d="M162.9,91.566s2.02,1.221,1.389,6.776c0,0,4.5.968,6.439-1.641a2.961,2.961,0,0,1,.253-2.862C173.124,90.472,162.9,91.566,162.9,91.566Z" transform="translate(-158.806 -72.664)" fill="#080717"/>
        <path id="Path_1662" data-name="Path 1662" d="M141.135,66.042s-5.892-.21-6.018-2.778c-.126-2.525,2.736-3.535,1.094-5.556-1.641-2.062-4.125-3.62.505-4.924,4.63-1.263,1.768-5.766,5.093-5.892s3.83,2.02,6.944,2.146,7.029-2.231,8.754,1.726,1.473,7.66-.463,7.912.379,1.978.926,3.325c.505,1.347-.8,6.439-8.628,3.283C141.429,62.17,144.754,65.958,141.135,66.042Z" transform="translate(-134.056 -46.887)" fill="#080717"/>
        <g id="Group_1322" data-name="Group 1322" transform="translate(1.058 8.032)">
          <path id="Path_1663" data-name="Path 1663" d="M165.379,67.918a20.409,20.409,0,0,1-.253,9.175c-1.263,5.556-4.167,6.86-8.754,5.471s-4.545-7.029-4.293-8.375-4.209-.842-2.82-3.872,3.114-1.557,3.2-.295c.042,1.263.673,2.946,1.768,2.062s-.21-5.976,1.936-4.966C158.266,68.213,162.054,69.77,165.379,67.918Z" transform="translate(-148.5 -66.559)" fill="#fff"/>
          <path id="Path_1664" data-name="Path 1664" d="M158.866,82.9a5.5,5.5,0,0,0,2.82-.715c1.6-.926,2.694-2.778,3.325-5.6a20.8,20.8,0,0,0,.253-9.386.566.566,0,0,0-.253-.295.584.584,0,0,0-.379,0c-3.451,1.894-7.534-.084-8.88-.758a1.265,1.265,0,0,0-1.221-.042c-.673.421-.716,1.6-.8,2.82-.042.842-.084,1.978-.379,2.189-.253.21-.379.168-.421.126-.337-.168-.631-1.01-.673-1.894a1.972,1.972,0,0,0-1.473-1.852c-.547-.084-1.6,0-2.525,2.02a2.269,2.269,0,0,0-.168,1.852,3.014,3.014,0,0,0,2.02,1.473c.463.168,1.01.379.968.589-.295,1.389-.337,7.365,4.588,8.838A8.929,8.929,0,0,0,158.866,82.9Zm5.682-14.941a21.471,21.471,0,0,1-.379,8.46c-.589,2.609-1.557,4.251-2.9,5.05-1.3.758-3.03.8-5.3.084a5.45,5.45,0,0,1-3.7-3.914,9.331,9.331,0,0,1-.337-3.956c.168-.884-.715-1.221-1.473-1.515-.631-.253-1.347-.505-1.557-1.01a1.492,1.492,0,0,1,.168-1.221c.505-1.052,1.052-1.641,1.6-1.515a1.125,1.125,0,0,1,.8,1.052c.042.968.379,2.273,1.178,2.609a1.107,1.107,0,0,0,1.263-.253c.631-.463.673-1.641.715-2.82.042-.8.084-1.978.379-2.146.084-.042.21,0,.379.084C156.8,67.625,160.845,69.645,164.548,67.961Z" transform="translate(-147.964 -65.971)"/>
        </g>
        <g id="Group_1323" data-name="Group 1323" transform="translate(8.478 18.692)">
          <path id="Path_1665" data-name="Path 1665" d="M164.678,94.667a4.893,4.893,0,0,0,2.231-.715.429.429,0,0,0,.21-.337.457.457,0,0,0-.168-.379l-2.567-1.852a.625.625,0,0,0-.379-.084.566.566,0,0,0-.295.253c-.547,1.389-.547,2.315,0,2.82A1.638,1.638,0,0,0,164.678,94.667Zm1.221-1.178c-.631.253-1.347.421-1.6.21-.168-.126-.21-.547.042-1.347Z" transform="translate(-163.3 -91.3)"/>
        </g>
        <g id="Group_1324" data-name="Group 1324" transform="translate(11.954 13.342)">
          <path id="Path_1666" data-name="Path 1666" d="M157.806,84.7a3.877,3.877,0,0,0,1.978-.589.5.5,0,0,0,.21-.379l-.379-4.756a.4.4,0,0,0-.463-.379.38.38,0,0,0-.379.463l.379,4.5a2.745,2.745,0,0,1-1.641.295.429.429,0,1,0-.168.842Z" transform="translate(-157 -78.587)"/>
        </g>
        <g id="Group_1325" data-name="Group 1325" transform="translate(8.671 10.545)">
          <path id="Path_1667" data-name="Path 1667" d="M166.009,73.566a.383.383,0,0,0,.337-.168.445.445,0,0,0-.084-.589,4.686,4.686,0,0,0-3.493-.8.4.4,0,1,0,.126.8,3.963,3.963,0,0,1,2.9.673C165.841,73.566,165.925,73.566,166.009,73.566Z" transform="translate(-162.426 -71.942)"/>
        </g>
        <g id="Group_1326" data-name="Group 1326" transform="translate(15.069 12.793)">
          <path id="Path_1668" data-name="Path 1668" d="M151.537,79.059h.042a.493.493,0,0,0,.379-.463c-.042-.379-.337-.884-1.389-1.052l-1.6-.253a.4.4,0,0,0-.126.8l1.6.253c.421.084.673.21.715.337A.377.377,0,0,0,151.537,79.059Z" transform="translate(-148.5 -77.285)"/>
        </g>
        <path id="Path_1669" data-name="Path 1669" d="M166.836,79.762c-.126.421-.463.673-.758.589a.688.688,0,0,1-.337-.884c.126-.421.463-.673.758-.589A.688.688,0,0,1,166.836,79.762Z" transform="translate(-155.591 -65.404)"/>
        <path id="Path_1670" data-name="Path 1670" d="M153.136,83.462c-.126.421-.463.673-.758.589a.688.688,0,0,1-.337-.884c.126-.421.463-.673.758-.589A.67.67,0,0,1,153.136,83.462Z" transform="translate(-136.125 -67.547)"/>
      </g>
      <g id="Group_1328" data-name="Group 1328" transform="translate(62.199 45.129)">
        <path id="Path_1671" data-name="Path 1671" d="M95.612,108.454h0l7.113-.421a.423.423,0,1,0-.084-.842l-7.071.421a.38.38,0,0,0-.379.463A.389.389,0,0,0,95.612,108.454Z" transform="translate(-95.185 -107.185)"/>
      </g>
      <g id="Group_1329" data-name="Group 1329" transform="translate(71.096 19.241)">
        <path id="Path_1672" data-name="Path 1672" d="M84.224,50.82a.155.155,0,0,0,.126-.042.421.421,0,0,0,.253-.547,10.761,10.761,0,0,0-1.978-3.325,3.157,3.157,0,0,0-2.441-1.221,1.979,1.979,0,0,0-1.473.968.421.421,0,1,0,.673.505,1.1,1.1,0,0,1,.884-.589,2.579,2.579,0,0,1,1.768.968A11.864,11.864,0,0,1,83.8,50.526.507.507,0,0,0,84.224,50.82Z" transform="translate(-78.637 -45.675)"/>
      </g>
      <g id="Group_1330" data-name="Group 1330" transform="translate(69.197 20.368)">
        <path id="Path_1673" data-name="Path 1673" d="M88.593,53a.379.379,0,0,0,.21-.042.426.426,0,0,0,.168-.589,13.488,13.488,0,0,0-2.357-3.114c-.715-.589-1.852-1.3-2.946-.631A1.629,1.629,0,0,0,83,50.351a.413.413,0,0,0,.8-.21.754.754,0,0,1,.295-.8c.379-.21.884-.337,1.978.589a13.6,13.6,0,0,1,2.146,2.862A.5.5,0,0,0,88.593,53Z" transform="translate(-82.959 -48.353)"/>
      </g>
      <g id="Group_1331" data-name="Group 1331" transform="translate(68.408 22.104)">
        <path id="Path_1674" data-name="Path 1674" d="M89.032,79.465h0a.422.422,0,0,0,.421-.421l-.547-14.731c0-.084-.042-.126-.084-.21a3.539,3.539,0,0,1-.084-3.325,10.028,10.028,0,0,0,1.221-3.493L90,57.158a2.155,2.155,0,0,0-.673-1.936c-.126-.126-.295-.253-.463-.421a3.971,3.971,0,0,1-.589-.547c-.337-.631-.084-.758.084-.842.379-.21,1.094.084,1.768.421a5.5,5.5,0,0,1,1.389,2.231.415.415,0,0,0,.758-.337c-.168-.379-.968-2.231-1.81-2.652-.673-.337-1.726-.884-2.525-.421-.337.168-1.052.758-.379,1.978a3.466,3.466,0,0,0,.8.8c.168.126.295.253.421.337a1.462,1.462,0,0,1,.463,1.221l-.042.168A9.887,9.887,0,0,1,88.064,60.4a4.221,4.221,0,0,0,.042,4.04l.547,14.646C88.611,79.3,88.822,79.465,89.032,79.465Z" transform="translate(-87.28 -52.477)"/>
      </g>
      <g id="Group_1333" data-name="Group 1333" transform="translate(31.299 52.711)">
        <g id="Group_1332" data-name="Group 1332" transform="translate(0)">
          <path id="Path_1675" data-name="Path 1675" d="M155.839,143.693a3.88,3.88,0,0,0,3.662-2.651l2.483-7.365a3.782,3.782,0,0,0-.21-2.946,3.893,3.893,0,0,0-2.231-1.936l-7.365-2.483a3.814,3.814,0,0,0-4.882,2.441l-2.483,7.365A3.862,3.862,0,0,0,147.253,141l7.365,2.483A3.91,3.91,0,0,0,155.839,143.693Z" transform="translate(-144.166 -125.721)" fill="#fff"/>
          <path id="Path_1676" data-name="Path 1676" d="M150.489,126.042a3.423,3.423,0,0,0-3.241,2.357l-2.483,7.365a3.437,3.437,0,0,0,2.146,4.335l7.365,2.483a3.3,3.3,0,0,0,1.094.168,3.423,3.423,0,0,0,3.241-2.357l2.483-7.365a3.437,3.437,0,0,0-2.146-4.335l-7.365-2.483a4.576,4.576,0,0,0-1.094-.168Zm0-.842h0a4.743,4.743,0,0,1,1.347.21l7.365,2.483a4.323,4.323,0,0,1,2.483,2.146,4.231,4.231,0,0,1,.21,3.283l-2.483,7.365a4.3,4.3,0,0,1-4.04,2.9,4.743,4.743,0,0,1-1.347-.21l-7.365-2.483a4.254,4.254,0,0,1-2.694-5.387l2.483-7.365a4.284,4.284,0,0,1,4.04-2.946Z" transform="translate(-143.741 -125.2)"/>
        </g>
        <path id="Path_1677" data-name="Path 1677" d="M155.178,138.53a1.637,1.637,0,1,0,2.062-1.052A1.619,1.619,0,0,0,155.178,138.53Z" transform="translate(-144.768 -132.259)" fill="#f1cf25"/>
        <path id="Path_1678" data-name="Path 1678" d="M151.394,141.98l1.726-5.093,1.473-.758a1.9,1.9,0,0,1,2.567.884l3.577,7.2,1.641-.842a1.9,1.9,0,0,1,2.567.884l.631,1.3-.379,1.094a3.423,3.423,0,0,1-3.241,2.357,3.3,3.3,0,0,1-1.094-.168l-7.365-2.483A3.443,3.443,0,0,1,151.394,141.98Z" transform="translate(-150.327 -131.416)" fill="#f1cf25"/>
      </g>
      <g id="Group_1339" data-name="Group 1339" transform="translate(9.554 24.049)">
        <g id="Group_1335" data-name="Group 1335">
          <g id="Group_1334" data-name="Group 1334">
            <path id="Path_1679" data-name="Path 1679" d="M203.821,68.538h12.5a1.221,1.221,0,0,0,1.221-1.221v-8A1.221,1.221,0,0,0,216.32,58.1h-12.5a1.221,1.221,0,0,0-1.221,1.221v8A1.221,1.221,0,0,0,203.821,68.538Z" transform="translate(-202.179 -57.679)" fill="#fff"/>
            <path id="Path_1680" data-name="Path 1680" d="M203.241,68.379h12.5a1.643,1.643,0,0,0,1.641-1.641v-8a1.643,1.643,0,0,0-1.641-1.641h-12.5a1.643,1.643,0,0,0-1.641,1.641v8A1.671,1.671,0,0,0,203.241,68.379Zm12.5-10.438a.8.8,0,0,1,.8.8v8a.8.8,0,0,1-.8.8h-12.5a.8.8,0,0,1-.8-.8v-8a.8.8,0,0,1,.8-.8Z" transform="translate(-201.6 -57.1)"/>
          </g>
        </g>
        <g id="Group_1338" data-name="Group 1338" transform="translate(4.065 1.75)">
          <path id="Path_1681" data-name="Path 1681" d="M207.586,72.687c.168.547.884.8,1.683.589.758-.21,1.263-.842,1.136-1.389-.168-.547-.884-.8-1.683-.589S207.418,72.14,207.586,72.687Z" transform="translate(-201.214 -67.03)" fill="#080717"/>
          <path id="Path_1682" data-name="Path 1682" d="M219.375,75.887c.168.547.884.8,1.683.589.758-.21,1.263-.842,1.136-1.389-.168-.547-.884-.8-1.684-.589C219.711,74.751,219.248,75.34,219.375,75.887Z" transform="translate(-217.968 -68.883)" fill="#080717"/>
          <g id="Group_1336" data-name="Group 1336" transform="translate(0)">
            <path id="Path_1683" data-name="Path 1683" d="M214.008,68.6h.126a.433.433,0,0,0,.295-.505l-1.3-4.714,4.209-1.178,1.3,4.714a.413.413,0,1,0,.8-.21l-1.431-5.135c-.042-.084-.084-.21-.21-.253a.37.37,0,0,0-.295-.042l-5.008,1.389c-.084.042-.21.084-.253.21a.37.37,0,0,0-.042.295l1.431,5.135A.36.36,0,0,0,214.008,68.6Z" transform="translate(-212.181 -61.259)"/>
          </g>
          <g id="Group_1337" data-name="Group 1337" transform="translate(0.43 1.693)">
            <path id="Path_1684" data-name="Path 1684" d="M215.668,67.393h.126l4.714-1.3a.413.413,0,1,0-.21-.8l-4.714,1.3a.433.433,0,0,0-.295.505A.335.335,0,0,0,215.668,67.393Z" transform="translate(-215.281 -65.281)"/>
          </g>
        </g>
      </g>
      <g id="Group_1347" data-name="Group 1347" transform="translate(49.595 59.165)">
        <g id="Group_1340" data-name="Group 1340" transform="translate(0)">
          <path id="Path_1685" data-name="Path 1685" d="M97.811,141.6,93.1,144.125l-5.6,18.561,16.624,5.05,6.692-22.18Z" transform="translate(-87.053 -141.151)" fill="#fff"/>
          <path id="Path_1686" data-name="Path 1686" d="M103.53,167.54a.379.379,0,0,0,.21-.042.431.431,0,0,0,.21-.253l6.692-22.18a.475.475,0,0,0-.042-.337.431.431,0,0,0-.253-.21l-13-3.956a.329.329,0,0,0-.337.042l-4.714,2.525a.431.431,0,0,0-.21.253l-5.6,18.561a.374.374,0,0,0,.295.505L103.4,167.5A.155.155,0,0,0,103.53,167.54Zm6.187-22.306-6.481,21.38-15.825-4.8,5.429-17.971,4.377-2.357Z" transform="translate(-86.459 -140.534)"/>
        </g>
        <g id="Group_1341" data-name="Group 1341" transform="translate(14.188 9.048)">
          <rect id="Rectangle_271" data-name="Rectangle 271" width="4.714" height="0.842" transform="translate(4.511 2.173) rotate(-163.136)" fill="#080717"/>
        </g>
        <g id="Group_1342" data-name="Group 1342" transform="translate(7.166 10.469)">
          <rect id="Rectangle_272" data-name="Rectangle 272" width="11.111" height="0.842" transform="translate(10.633 4.029) rotate(-163.136)" fill="#080717"/>
        </g>
        <g id="Group_1343" data-name="Group 1343" transform="translate(6.62 12.324)">
          <rect id="Rectangle_273" data-name="Rectangle 273" width="11.111" height="0.842" transform="matrix(-0.957, -0.29, 0.29, -0.957, 10.633, 4.028)" fill="#080717"/>
        </g>
        <g id="Group_1344" data-name="Group 1344" transform="translate(6.038 14.126)">
          <rect id="Rectangle_274" data-name="Rectangle 274" width="11.111" height="0.842" transform="translate(10.633 4.029) rotate(-163.136)" fill="#080717"/>
        </g>
        <g id="Group_1345" data-name="Group 1345" transform="translate(7.346 16.561)">
          <rect id="Rectangle_275" data-name="Rectangle 275" width="9.175" height="0.842" transform="matrix(-0.957, -0.29, 0.29, -0.957, 8.781, 3.466)" fill="#080717"/>
        </g>
        <g id="Group_1346" data-name="Group 1346" transform="translate(6.044 0.449)">
          <path id="Path_1687" data-name="Path 1687" d="M123.114,141.6l-1.094,3.62-3.62-1.094Z" transform="translate(-118.4 -141.6)" fill="#080717"/>
        </g>
      </g>
      <g id="Group_1348" data-name="Group 1348" transform="translate(7.999 66.221)">
        <path id="Path_1688" data-name="Path 1688" d="M105.316,185.025h47.517c0-.042-13.889-23.779-13.889-23.779a6.07,6.07,0,0,0-4.672-2.946H89.912c-1.641,0-2.189,1.347-1.263,2.946l11.995,20.791A6.19,6.19,0,0,0,105.316,185.025Z" transform="translate(-87.767 -157.879)" fill="#1877f2"/>
        <path id="Path_1689" data-name="Path 1689" d="M104.748,184.867h47.937v-.421c0-.168,0-.168-13.973-23.99A6.611,6.611,0,0,0,133.7,157.3H89.344a2.1,2.1,0,0,0-1.894.926,2.672,2.672,0,0,0,.253,2.652L99.74,181.711A6.611,6.611,0,0,0,104.748,184.867Zm46.8-.842H104.791a5.751,5.751,0,0,1-4.293-2.736L88.5,160.5a1.856,1.856,0,0,1-.253-1.81,1.263,1.263,0,0,1,1.136-.505H133.7A5.751,5.751,0,0,1,138,160.92C142.206,168.074,149.782,181.037,151.55,184.026Z" transform="translate(-87.2 -157.3)" fill="#1877f2"/>
      </g>
      <g id="Group_1354" data-name="Group 1354" transform="translate(5.635 62.696)">
        <path id="Path_1690" data-name="Path 1690" d="M227.526,155.057c-.589-1.094-1.726-1.263-3.788-1.641a14.045,14.045,0,0,0-2.736-.126,26.772,26.772,0,0,1,3.493-.505,2.021,2.021,0,0,0,1.852-1.81,1.136,1.136,0,0,0-.421-.926,4.364,4.364,0,0,0-3.157-.673,18.663,18.663,0,0,0-7.071,2.062c-1.894,1.094-3.03,5.3-2.9,8.586.126,3.409,3.872,4.419,3.914,4.419h.042c.084,0,.21-.084.21-.168l.337-1.263a14.63,14.63,0,0,1,4.588-.505c1.473.084,2.273-.505,2.4-1.136.168-.842-.631-1.389-1.389-1.726a10.086,10.086,0,0,0,2.189-.295,2.131,2.131,0,0,0,1.389-1.3,1.486,1.486,0,0,0-.21-1.263,2.031,2.031,0,0,0,1.221-.968A.7.7,0,0,0,227.526,155.057Z" transform="translate(-212.623 -149.175)" fill="#fff"/>
        <g id="Group_1353" data-name="Group 1353" transform="translate(0)">
          <g id="Group_1349" data-name="Group 1349">
            <path id="Path_1691" data-name="Path 1691" d="M223.959,165.96a.41.41,0,0,0,.421-.337.433.433,0,0,0-.295-.505,23.318,23.318,0,0,1-4.545-1.515c-.042,0-.042-.042-.084-.042-.126-.042-3.325-.884-3.409-3.788-.126-3.409,1.094-7.155,2.609-8a17.156,17.156,0,0,1,6.776-1.978c1.81-.126,2.483.295,2.694.505a.676.676,0,0,1,.21.463,1.344,1.344,0,0,1-1.221,1.178c-.042,0-4.125.253-5.05,1.094a.418.418,0,0,0,.547.631c.505-.463,3.241-.842,4.545-.884a2.171,2.171,0,0,0,2.02-2.02,1.528,1.528,0,0,0-.463-1.094,4.369,4.369,0,0,0-3.325-.715,19.123,19.123,0,0,0-7.155,2.1c-1.978,1.178-3.114,5.471-3.03,8.754.126,3.325,3.577,4.461,4,4.588a27.543,27.543,0,0,0,4.714,1.557Z" transform="translate(-215.2 -148.925)"/>
          </g>
          <g id="Group_1350" data-name="Group 1350" transform="translate(4.676 3.932)">
            <path id="Path_1692" data-name="Path 1692" d="M221.015,162.279h.042a2.224,2.224,0,0,0,1.641-1.136,1.081,1.081,0,0,0,.042-1.01c-.631-1.136-1.81-1.347-3.914-1.726a24.841,24.841,0,0,0-6.1.168.423.423,0,1,0,.084.842,27.42,27.42,0,0,1,5.85-.168c2.062.337,2.9.547,3.325,1.3a.278.278,0,0,1-.042.253,1.38,1.38,0,0,1-1.01.673.493.493,0,0,0-.379.463A.508.508,0,0,0,221.015,162.279Z" transform="translate(-212.345 -158.267)"/>
          </g>
          <g id="Group_1351" data-name="Group 1351" transform="translate(4.417 6.517)">
            <path id="Path_1693" data-name="Path 1693" d="M218.808,168.7a21.807,21.807,0,0,0,4.209-.379,2.415,2.415,0,0,0,1.515-1.431,1.611,1.611,0,0,0-.337-1.515c-.926-1.263-7.029-.968-8.88-.842a.423.423,0,0,0,.084.842c3.577-.253,7.7-.126,8.165.505a.875.875,0,0,1,.21.8,1.634,1.634,0,0,1-1.01.884,25.65,25.65,0,0,1-3.956.337v.8Z" transform="translate(-214.929 -164.41)"/>
          </g>
          <g id="Group_1352" data-name="Group 1352" transform="translate(4.055 9.903)">
            <path id="Path_1694" data-name="Path 1694" d="M220.686,176.641a.253.253,0,0,0,.168-.042,13.37,13.37,0,0,1,4.588-.505c1.6.084,2.441-.589,2.567-1.3.253-1.221-1.263-1.852-1.768-2.062-1.473-.589-4.8-.042-5.177,0a.4.4,0,1,0,.126.8c.968-.168,3.7-.463,4.714-.042,1.389.547,1.3.968,1.263,1.094-.084.337-.673.673-1.726.631a13.665,13.665,0,0,0-4.966.589.418.418,0,0,0-.21.547A.438.438,0,0,0,220.686,176.641Z" transform="translate(-220.233 -172.455)"/>
          </g>
        </g>
      </g>
      <g id="Group_1358" data-name="Group 1358" transform="translate(20.437 38.889)">
        <g id="Group_1355" data-name="Group 1355" transform="translate(6.5 6.29)">
          <path id="Path_1695" data-name="Path 1695" d="M195.889,108.523a.379.379,0,0,0,.21-.042.426.426,0,0,0,.168-.589c-.084-.126-.126-.253-.21-.379a.433.433,0,1,0-.758.421c.084.126.126.253.21.379A.5.5,0,0,0,195.889,108.523Z" transform="translate(-195.259 -107.303)"/>
        </g>
        <g id="Group_1356" data-name="Group 1356" transform="translate(1.711 1.038)">
          <path id="Path_1696" data-name="Path 1696" d="M202.148,99.613a.6.6,0,0,0,.253-.084.406.406,0,0,0,.084-.589l-.505-.631a.421.421,0,0,0-.673.505,6.025,6.025,0,0,1,.463.631A.756.756,0,0,0,202.148,99.613Zm-1.515-1.852a.454.454,0,0,0,.295-.126.407.407,0,0,0,0-.589,7.777,7.777,0,0,0-.589-.589.417.417,0,1,0-.589.589l.547.547A.383.383,0,0,0,200.633,97.761Zm-1.768-1.6a.383.383,0,0,0,.337-.168.412.412,0,0,0-.084-.589c-.21-.168-.421-.337-.673-.505a.421.421,0,0,0-.505.673c.21.168.421.295.631.463A.382.382,0,0,0,198.865,96.162Z" transform="translate(-197.782 -94.826)"/>
        </g>
        <g id="Group_1357" data-name="Group 1357" transform="translate(0)">
          <path id="Path_1697" data-name="Path 1697" d="M211.076,93.428a.5.5,0,0,0,.379-.21.426.426,0,0,0-.168-.589c-.126-.084-.253-.126-.379-.21a.433.433,0,0,0-.421.758c.126.084.253.126.379.21A1.826,1.826,0,0,0,211.076,93.428Z" transform="translate(-210.259 -92.359)"/>
        </g>
      </g>
      <g id="Group_1362" data-name="Group 1362" transform="translate(77.745 42.623)">
        <g id="Group_1359" data-name="Group 1359" transform="translate(18.185)">
          <path id="Path_1698" data-name="Path 1698" d="M31.439,102.312a.6.6,0,0,0,.253-.084,1.477,1.477,0,0,1,.337-.21.426.426,0,1,0-.463-.715,2.335,2.335,0,0,0-.337.253.414.414,0,0,0-.126.589C31.144,102.27,31.271,102.312,31.439,102.312Z" transform="translate(-31.031 -101.231)"/>
        </g>
        <g id="Group_1360" data-name="Group 1360" transform="translate(0.899 1.218)">
          <path id="Path_1699" data-name="Path 1699" d="M35.664,124.19a.442.442,0,0,0,.379-.21c.126-.253.253-.463.379-.715a.433.433,0,0,0-.758-.421c-.126.253-.253.463-.379.715a.371.371,0,0,0,.168.547A.232.232,0,0,0,35.664,124.19Zm1.136-2.146a.5.5,0,0,0,.379-.21,6.337,6.337,0,0,1,.421-.715.433.433,0,1,0-.758-.421,6.337,6.337,0,0,1-.421.715.426.426,0,0,0,.168.589A.458.458,0,0,0,36.8,122.044Zm1.263-2.1a.5.5,0,0,0,.379-.21c.126-.21.295-.463.421-.673a.426.426,0,0,0-.715-.463c-.126.21-.295.463-.421.715a.453.453,0,0,0,.126.589A.315.315,0,0,0,38.063,119.94Zm1.3-2.02a.52.52,0,0,0,.337-.168c.168-.21.295-.463.463-.673a.426.426,0,0,0-.715-.463c-.168.21-.295.463-.463.673a.414.414,0,0,0,.126.589C39.2,117.877,39.283,117.919,39.367,117.919Zm1.389-2.02a.383.383,0,0,0,.337-.168,6.021,6.021,0,0,0,.463-.631.421.421,0,1,0-.673-.505c-.168.21-.337.421-.505.673a.453.453,0,0,0,.084.589C40.588,115.857,40.672,115.9,40.756,115.9Zm1.515-1.936a.383.383,0,0,0,.337-.168l.505-.631a.418.418,0,1,0-.631-.547l-.505.631a.412.412,0,0,0,.084.589C42.061,113.921,42.145,113.963,42.271,113.963Zm1.557-1.894a.478.478,0,0,0,.337-.126,3.634,3.634,0,0,1,.547-.589.418.418,0,0,0-.631-.547c-.168.21-.379.421-.547.631a.409.409,0,0,0,.042.589C43.618,112.069,43.7,112.069,43.829,112.069ZM45.47,110.3a.382.382,0,0,0,.295-.126c.168-.21.379-.379.547-.589a.417.417,0,0,0-.589-.589l-.589.589a.407.407,0,0,0,0,.589A.56.56,0,0,0,45.47,110.3Zm1.726-1.726a.455.455,0,0,0,.295-.126c.21-.168.379-.379.589-.547a.418.418,0,1,0-.547-.631,7.526,7.526,0,0,0-.589.547.407.407,0,0,0,0,.589A.231.231,0,0,0,47.2,108.576Zm1.81-1.641a.451.451,0,0,0,.253-.084l.631-.505a.418.418,0,0,0-.547-.631l-.631.505a.409.409,0,0,0-.042.589A.478.478,0,0,0,49.005,106.935ZM50.9,105.42a.6.6,0,0,0,.253-.084,6.021,6.021,0,0,1,.631-.463.421.421,0,0,0-.505-.673c-.21.168-.421.337-.673.505a.453.453,0,0,0-.084.589A.679.679,0,0,0,50.9,105.42Z" transform="translate(-35.226 -104.126)"/>
        </g>
        <g id="Group_1361" data-name="Group 1361" transform="translate(0 21.924)">
          <path id="Path_1700" data-name="Path 1700" d="M75.134,154.534a.4.4,0,0,0,.379-.253l.168-.379a.415.415,0,1,0-.758-.337l-.168.379a.418.418,0,0,0,.21.547A.253.253,0,0,0,75.134,154.534Z" transform="translate(-74.723 -153.323)"/>
        </g>
      </g>
    </g>
  </g>
</svg>
