<svg id="Digital_Business_Set-01-21" data-name="Digital Business Set-01-21" xmlns="http://www.w3.org/2000/svg" width="85.592" height="56.38" viewBox="0 0 85.592 56.38">
  <g id="_x3C_Layer_x3E_">
    <g id="Group_2284" data-name="Group 2284">
      <g id="Group_2266" data-name="Group 2266" transform="translate(42.818 9.088)">
        <path id="Path_2628" data-name="Path 2628" d="M136.362,111.845H98.5v-7.564a5.779,5.779,0,0,1,5.781-5.781h26.3a5.779,5.779,0,0,1,5.781,5.781Z" transform="translate(-98.5 -64.77)" fill="#1877f2"/>
        <path id="Path_2629" data-name="Path 2629" d="M117.726,88.725h-7.955s-5-8.39.435-12.041S117.726,88.725,117.726,88.725Z" transform="translate(-103.685 -52.126)" fill="#1877f2"/>
        <g id="Group_2253" data-name="Group 2253" transform="translate(9.883 8.908)">
          <path id="Path_2630" data-name="Path 2630" d="M128.773,68.786h-1.956c-.7,0-5.042-4.173-4.564-4.695V48.92a6.512,6.512,0,0,1,6.52-6.52h0a6.512,6.512,0,0,1,6.52,6.52V62.266A6.512,6.512,0,0,1,128.773,68.786Z" transform="translate(-121.789 -41.965)" fill="#fff"/>
          <path id="Path_2631" data-name="Path 2631" d="M128.218,68.656h-1.956c-.956,0-4.521-3.651-4.956-4.651a.886.886,0,0,1-.043-.565V48.355a6.955,6.955,0,1,1,13.91,0V61.7A6.948,6.948,0,0,1,128.218,68.656ZM122.132,63.7c.261.782,3.478,3.912,4.217,4.086h1.913a6.1,6.1,0,0,0,6.086-6.086V48.355a6.086,6.086,0,1,0-12.172,0V63.526A.261.261,0,0,0,122.132,63.7Zm-.13.13Z" transform="translate(-121.234 -41.4)"/>
        </g>
        <g id="Group_2254" data-name="Group 2254" transform="translate(4.347 1.345)">
          <path id="Path_2632" data-name="Path 2632" d="M123.074,48.237a8.47,8.47,0,0,1-9.389.565h0a8.554,8.554,0,0,1-3.13-11.606l4.564-7.911a8.554,8.554,0,0,1,11.606-3.13h0a8.554,8.554,0,0,1,3.13,11.606Z" transform="translate(-109.033 -24.59)" fill="#fff"/>
          <path id="Path_2633" data-name="Path 2633" d="M117.455,49.821a8.787,8.787,0,0,1-4.477-1.217,8.91,8.91,0,0,1-3.26-12.215l4.564-7.911a8.94,8.94,0,1,1,15.475,8.955.448.448,0,1,1-.782-.435,8.16,8.16,0,0,0,.826-6.129,8.038,8.038,0,0,0-3.738-4.912,8.16,8.16,0,0,0-6.129-.826,8.038,8.038,0,0,0-4.912,3.738l-4.564,8A8.06,8.06,0,0,0,122.323,47.3a.435.435,0,1,1,.522.7A8.96,8.96,0,0,1,117.455,49.821Z" transform="translate(-108.5 -24)"/>
        </g>
        <path id="Path_2634" data-name="Path 2634" d="M137.387,36.77a11.3,11.3,0,0,0,.739-6.738,5.176,5.176,0,0,0-2.869-2.391,6.72,6.72,0,0,0,.609-2.521,11.686,11.686,0,0,0-3.13-2.7,11.3,11.3,0,0,0-15.432,4.13l-.3.478a4.516,4.516,0,0,0,2,.478,4.869,4.869,0,0,0,3.738-1.826,4.747,4.747,0,0,0,3.434,1.521h.087a5.037,5.037,0,0,0,3.217,3.086,5.715,5.715,0,0,0-.609,2.565,5.217,5.217,0,0,0,5,5.434A4.57,4.57,0,0,0,137.387,36.77Z" transform="translate(-108.958 -20.907)" fill="#080717"/>
        <g id="Group_2255" data-name="Group 2255" transform="translate(20.692 11.603)">
          <path id="Path_2635" data-name="Path 2635" d="M147.1,53.469a4.869,4.869,0,1,1,4.869,4.869,4.94,4.94,0,0,1-2.956-1Z" transform="translate(-146.665 -48.165)" fill="#fff"/>
          <path id="Path_2636" data-name="Path 2636" d="M151.4,58.207a5.315,5.315,0,0,1-3.217-1.087.435.435,0,1,1,.522-.7,4.3,4.3,0,0,0,2.7.913,4.434,4.434,0,1,0-4.434-4.434.435.435,0,1,1-.869,0,5.3,5.3,0,1,1,5.3,5.3Z" transform="translate(-146.1 -47.6)"/>
        </g>
        <path id="Path_2637" data-name="Path 2637" d="M119.84,47c-.261.522-.739.826-1.13.652s-.478-.739-.261-1.261c.261-.522.739-.826,1.13-.652A.9.9,0,0,1,119.84,47Z" transform="translate(-109.711 -34.915)"/>
        <path id="Path_2638" data-name="Path 2638" d="M131.14,53.2c-.261.522-.739.826-1.13.652s-.478-.739-.261-1.261c.261-.522.739-.826,1.13-.652S131.357,52.675,131.14,53.2Z" transform="translate(-116.099 -38.42)"/>
        <g id="Group_2256" data-name="Group 2256" transform="translate(9.014 17.584)">
          <path id="Path_2639" data-name="Path 2639" d="M120.569,62.594a2.922,2.922,0,0,1-1.043-.174.44.44,0,1,1,.3-.826,2.071,2.071,0,0,0,1.826-.174.448.448,0,0,1,.435.782A3.586,3.586,0,0,1,120.569,62.594Z" transform="translate(-119.237 -61.359)"/>
        </g>
        <g id="Group_2257" data-name="Group 2257" transform="translate(9.533 12.226)">
          <path id="Path_2640" data-name="Path 2640" d="M120.852,52.669a.332.332,0,0,1-.217-.087.428.428,0,0,1-.13-.609l1.739-2.739a.44.44,0,0,1,.739.478l-1.739,2.739A.46.46,0,0,1,120.852,52.669Z" transform="translate(-120.431 -49.031)"/>
        </g>
        <g id="Group_2258" data-name="Group 2258" transform="translate(8.992 8.865)">
          <path id="Path_2641" data-name="Path 2641" d="M121.278,42.3h-.13a4.177,4.177,0,0,0-1.478-.13.418.418,0,1,1-.13-.826,4.291,4.291,0,0,1,1.826.13.472.472,0,0,1,.3.522A.351.351,0,0,1,121.278,42.3Z" transform="translate(-119.185 -41.3)"/>
        </g>
        <g id="Group_2259" data-name="Group 2259" transform="translate(14.78 11.25)">
          <path id="Path_2642" data-name="Path 2642" d="M134.282,49.01a.462.462,0,0,1-.435-.391,1.107,1.107,0,0,0-.956-.956.509.509,0,0,1-.391-.478c.043-.217.261-.435.478-.391a1.939,1.939,0,0,1,1.7,1.7.432.432,0,0,1-.391.478C134.326,49.01,134.326,49.01,134.282,49.01Z" transform="translate(-132.5 -46.787)"/>
        </g>
        <g id="Group_2260" data-name="Group 2260" transform="translate(22.604 14.962)">
          <path id="Path_2643" data-name="Path 2643" d="M150.935,58.705h-.043a.509.509,0,0,1-.391-.478,5.284,5.284,0,0,1,1.13-2.739.435.435,0,1,1,.7.522,4.468,4.468,0,0,0-.913,2.26A.545.545,0,0,1,150.935,58.705Z" transform="translate(-150.5 -55.326)"/>
        </g>
        <g id="Group_2261" data-name="Group 2261" transform="translate(25.614 4.662)">
          <path id="Path_2644" data-name="Path 2644" d="M160.413,34.487h-.087l-.13-.043a4.367,4.367,0,0,0-2.217-.174.4.4,0,0,1-.522-.261.446.446,0,0,1,.217-.565,4.551,4.551,0,0,0,1.782-1.608.44.44,0,1,1,.739.478,6.811,6.811,0,0,1-.869,1.087,8.611,8.611,0,0,1,1.13.261l.13.043a.413.413,0,0,1,.3.522A.59.59,0,0,1,160.413,34.487Z" transform="translate(-157.423 -31.631)"/>
        </g>
        <path id="Path_2645" data-name="Path 2645" d="M127.9,90.49s10.607-11.824,16.605-11.128c4.043.478,6,3.869,6,8.129C150.548,91.75,128.161,90.229,127.9,90.49Z" transform="translate(-115.12 -53.935)" fill="#1877f2"/>
        <g id="Group_2262" data-name="Group 2262" transform="translate(23.995 33.903)">
          <path id="Path_2646" data-name="Path 2646" d="M164.741,99.769H154.135a.435.435,0,0,1,0-.869h10.607a.411.411,0,0,1,.435.435A.436.436,0,0,1,164.741,99.769Z" transform="translate(-153.7 -98.9)"/>
        </g>
        <g id="Group_2263" data-name="Group 2263" transform="translate(16.432 35.251)">
          <path id="Path_2647" data-name="Path 2647" d="M136.735,109.172a.411.411,0,0,1-.435-.435v-6.3a.435.435,0,0,1,.869,0v6.3A.411.411,0,0,1,136.735,109.172Z" transform="translate(-136.3 -102)"/>
        </g>
        <g id="Group_2264" data-name="Group 2264" transform="translate(10.867 34.816)">
          <path id="Path_2648" data-name="Path 2648" d="M123.935,108.39a.411.411,0,0,1-.435-.435v-6.52a.435.435,0,1,1,.869,0v6.52A.411.411,0,0,1,123.935,108.39Z" transform="translate(-123.5 -101)"/>
        </g>
        <g id="Group_2265" data-name="Group 2265" transform="translate(4.547 33.538)">
          <path id="Path_2649" data-name="Path 2649" d="M114.39,101.491,110,99.1Z" transform="translate(-109.548 -98.648)" fill="#fff"/>
          <path id="Path_2650" data-name="Path 2650" d="M113.8,101.337a.392.392,0,0,1-.217-.043l-4.39-2.391a.448.448,0,0,1,.435-.782l4.39,2.391a.44.44,0,0,1,.174.609A.457.457,0,0,1,113.8,101.337Z" transform="translate(-108.959 -98.059)"/>
        </g>
      </g>
      <path id="Path_2651" data-name="Path 2651" d="M42.946,40.508H12.6a1.281,1.281,0,0,1-1.3-1.3h0a1.281,1.281,0,0,1,1.3-1.3H42.946a1.281,1.281,0,0,1,1.3,1.3h0A1.281,1.281,0,0,1,42.946,40.508Z" transform="translate(-6.388 -21.425)" fill="#1877f2"/>
      <g id="Group_2267" data-name="Group 2267" transform="translate(18.388 14.432)">
        <circle id="Ellipse_57" data-name="Ellipse 57" cx="2.695" cy="2.695" r="2.695" transform="translate(0.435 0.435)" fill="#fff"/>
        <path id="Path_2652" data-name="Path 2652" d="M45.43,39.46a3.13,3.13,0,1,1,3.13-3.13A3.145,3.145,0,0,1,45.43,39.46Zm0-5.347a2.273,2.273,0,0,0-2.26,2.26,2.245,2.245,0,0,0,2.26,2.26,2.26,2.26,0,1,0,0-4.521Z" transform="translate(-42.3 -33.2)"/>
      </g>
      <path id="Path_2653" data-name="Path 2653" d="M42.946,61.408H12.6a1.281,1.281,0,0,1-1.3-1.3h0a1.281,1.281,0,0,1,1.3-1.3H42.946a1.281,1.281,0,0,1,1.3,1.3h0A1.281,1.281,0,0,1,42.946,61.408Z" transform="translate(-6.388 -33.24)" fill="#1877f2"/>
      <path id="Path_2654" data-name="Path 2654" d="M42.946,82.408H12.6a1.281,1.281,0,0,1-1.3-1.3h0a1.281,1.281,0,0,1,1.3-1.3H42.946a1.281,1.281,0,0,1,1.3,1.3h0A1.281,1.281,0,0,1,42.946,82.408Z" transform="translate(-6.388 -45.111)" fill="#1877f2"/>
      <g id="Group_2268" data-name="Group 2268" transform="translate(10.911 32.646)">
        <path id="Path_2655" data-name="Path 2655" d="M31.39,78.8a2.7,2.7,0,1,1-2.7-2.7A2.709,2.709,0,0,1,31.39,78.8Z" transform="translate(-25.609 -75.665)" fill="#fff"/>
        <path id="Path_2656" data-name="Path 2656" d="M28.23,81.36a3.13,3.13,0,1,1,3.13-3.13A3.2,3.2,0,0,1,28.23,81.36Zm0-5.347a2.26,2.26,0,1,0,0,4.521,2.245,2.245,0,0,0,2.26-2.26A2.3,2.3,0,0,0,28.23,76.013Z" transform="translate(-25.1 -75.1)"/>
      </g>
      <g id="Group_2269" data-name="Group 2269" transform="translate(0.565 7.216)">
        <path id="Path_2657" data-name="Path 2657" d="M85.283,17.469H1.735a.435.435,0,0,1,0-.869H85.283a.435.435,0,1,1,0,.869Z" transform="translate(-1.3 -16.6)"/>
      </g>
      <g id="Group_2280" data-name="Group 2280" transform="translate(32.425 26.299)">
        <g id="Group_2279" data-name="Group 2279">
          <path id="Path_2658" data-name="Path 2658" d="M87.748,90.891h11.78l-2.087-4.738a7.986,7.986,0,0,1-1.608-2.521c-.478-1.3-1.348-4.39-1.869-5.738a61.218,61.218,0,0,0-5.173-8.085,1.2,1.2,0,0,0-1.13-.13c-.3.13-1.13-1.826-1.174-1.956-.087-.087-.956-1.174-1.391-1.174a3.244,3.244,0,0,0-1.348.3c-.087.13-.565-1.087-1.087-.956a10.132,10.132,0,0,0-2.13,1.348s-2.391-4.695-2.956-5.086c-.522-.348-.956-.782-1.348-.609a1.519,1.519,0,0,0-.609,2.043c.435,1.348,2.3,6.738,2.3,6.738a3.352,3.352,0,0,0-.3.869c.043.087.869,1.174,1.565,1.043s1.565,4.608,1.565,4.608-2-1.3-2.7-1.652a3.037,3.037,0,0,0-2.391-.174L79.4,80.762s-.435,3.565,1.435,5c1.217.913,5.651,2.3,5.651,2.3Z" transform="translate(-75.095 -61.07)" fill="#fff"/>
          <g id="Group_2270" data-name="Group 2270" transform="translate(10.771 7.986)">
            <path id="Path_2659" data-name="Path 2659" d="M112.945,100.835a.418.418,0,0,1-.391-.261l-1.869-4.086a13.488,13.488,0,0,1-2.7-5.477c-.174-.609-.391-1.217-.609-1.782a40.508,40.508,0,0,0-4.825-8.564c-.174-.261-.739-1.043-1.217-.869-.3.13-.391.652-.348,1.13a15.636,15.636,0,0,0,.652,3.086,18.2,18.2,0,0,1,.7,3.13,1.807,1.807,0,0,1-.087.956,2.454,2.454,0,0,1-.739.869.6.6,0,0,1-.174.13,3.477,3.477,0,0,0-.869,3.869.428.428,0,1,1-.782.348,4.362,4.362,0,0,1,1.13-4.869c.043-.043.13-.087.174-.13a1.74,1.74,0,0,0,.478-.522,2.479,2.479,0,0,0,.043-.565,15.49,15.49,0,0,0-.652-3,16.1,16.1,0,0,1-.7-3.26c-.043-1,.261-1.739.913-2,.739-.3,1.565.087,2.26,1.174a43,43,0,0,1,4.912,8.737c.217.609.435,1.217.609,1.826.652,1.956,1.217,3.825,2.565,5.216.043.043.043.087.087.13l1.913,4.13a.431.431,0,0,1-.217.565A1.708,1.708,0,0,1,112.945,100.835Z" transform="translate(-99.37 -78.87)"/>
          </g>
          <g id="Group_2271" data-name="Group 2271" transform="translate(6.263 12.476)">
            <path id="Path_2660" data-name="Path 2660" d="M89.435,90.243A.436.436,0,0,1,89,89.809a.411.411,0,0,1,.435-.435l4.782-.174a.436.436,0,0,1,.435.435.411.411,0,0,1-.435.435l-4.782.174Z" transform="translate(-89 -89.2)"/>
          </g>
          <g id="Group_2272" data-name="Group 2272" transform="translate(5.52 5.08)">
            <path id="Path_2661" data-name="Path 2661" d="M88.729,78.887a2.988,2.988,0,0,1-1.043-.217.4.4,0,0,1-.3-.217.466.466,0,0,1-.043-.478,21.369,21.369,0,0,1,1.826-3.912,5.477,5.477,0,0,1,.956-1.348,1.835,1.835,0,0,1,1.826-.435,2.219,2.219,0,0,1,.869.609,7.052,7.052,0,0,1,1.521,2.347.44.44,0,1,1-.826.3,6.307,6.307,0,0,0-1.3-2.043,1.368,1.368,0,0,0-.522-.391,1.035,1.035,0,0,0-.956.261,3.317,3.317,0,0,0-.782,1.087,20.768,20.768,0,0,0-1.652,3.434,2.187,2.187,0,0,0,1.7-.3,7.469,7.469,0,0,0,1.174-1.174c.174-.217.391-.478.565-.652a.43.43,0,0,1,.609.609,7.566,7.566,0,0,0-.522.609,4.966,4.966,0,0,1-1.348,1.348A3.057,3.057,0,0,1,88.729,78.887Z" transform="translate(-87.291 -72.187)"/>
          </g>
          <g id="Group_2273" data-name="Group 2273" transform="translate(2.068 4.336)">
            <path id="Path_2662" data-name="Path 2662" d="M81.328,77.7a2.48,2.48,0,0,1-1.913-1.087.471.471,0,0,1,0-.478,64.232,64.232,0,0,1,4.26-5.347,1.254,1.254,0,0,1,1-.3,2.786,2.786,0,0,1,1.565,1.391.448.448,0,1,1-.782.435c-.174-.3-.609-.913-.956-.956a.469.469,0,0,0-.3.087,47.115,47.115,0,0,0-3.912,4.912,1.273,1.273,0,0,0,1.348.391,4.374,4.374,0,0,0,1.521-.826.43.43,0,0,1,.609.609,4.531,4.531,0,0,1-1.869,1.043A1.087,1.087,0,0,1,81.328,77.7Z" transform="translate(-79.35 -70.475)"/>
          </g>
          <g id="Group_2274" data-name="Group 2274">
            <path id="Path_2663" data-name="Path 2663" d="M77.508,70.368a.418.418,0,0,1-.391-.261c-2.956-6.347-2.7-8.085-2.26-8.868a1.511,1.511,0,0,1,1.217-.739h.043c1.391,0,4.3,6.129,4.3,6.216a.447.447,0,0,1-.3.522.5.5,0,0,1-.522-.261c-.087-.174-.739-1.478-1.521-2.869-1.3-2.26-1.826-2.652-1.956-2.739a.56.56,0,0,0-.478.3c-.3.522-.391,2.3,2.3,8.085a.431.431,0,0,1-.217.565A.473.473,0,0,1,77.508,70.368Zm-1.434-9Z" transform="translate(-74.592 -60.5)"/>
          </g>
          <g id="Group_2275" data-name="Group 2275" transform="translate(3.715 10.71)">
            <path id="Path_2664" data-name="Path 2664" d="M85.295,90.859a.418.418,0,0,1-.391-.3L83.165,85.73a.44.44,0,0,1,.826-.3l1.7,4.869a.452.452,0,0,1-.261.565Z" transform="translate(-83.137 -85.137)"/>
          </g>
          <g id="Group_2276" data-name="Group 2276" transform="translate(6.994 11.12)">
            <path id="Path_2665" data-name="Path 2665" d="M91.515,88.35a.523.523,0,0,1-.435-.3l-.391-1.435a.427.427,0,0,1,.826-.217l.391,1.435a.447.447,0,0,1-.3.522Z" transform="translate(-90.681 -86.081)"/>
          </g>
          <g id="Group_2277" data-name="Group 2277" transform="translate(9.105 9.797)">
            <path id="Path_2666" data-name="Path 2666" d="M96.738,86.325a.418.418,0,0,1-.391-.3l-.782-2.391a.44.44,0,1,1,.826-.3l.782,2.391a.452.452,0,0,1-.261.565A.329.329,0,0,1,96.738,86.325Z" transform="translate(-95.537 -83.037)"/>
          </g>
          <g id="Group_2278" data-name="Group 2278" transform="translate(0.104 13.279)">
            <path id="Path_2667" data-name="Path 2667" d="M87.337,107.763a.418.418,0,0,1-.391-.261l-1.174-2.434-3.956-1.435a4.583,4.583,0,0,1-3.086-3.608,7.745,7.745,0,0,1-.174-2.478L74.9,91.94a.428.428,0,0,1,.13-.609,2.709,2.709,0,0,1,2.217-.13c1.478.391,5.912,4.347,6.39,4.782a.431.431,0,0,1-.565.652c-1.913-1.7-5.086-4.347-6.042-4.608a2.347,2.347,0,0,0-1.043-.087l3.434,5.26a.628.628,0,0,1,.087.3c0,.174-.478,4.39,2.652,5.3l4.13,1.478a1.152,1.152,0,0,1,.261.217l1.261,2.608a.431.431,0,0,1-.217.565C87.467,107.72,87.424,107.763,87.337,107.763Z" transform="translate(-74.831 -91.048)"/>
          </g>
        </g>
      </g>
      <path id="Path_2668" data-name="Path 2668" d="M9.669,7.334A1.434,1.434,0,1,1,8.234,5.9,1.447,1.447,0,0,1,9.669,7.334Z" transform="translate(-3.844 -3.335)" fill="#1877f2"/>
      <path id="Path_2669" data-name="Path 2669" d="M18.269,7.334A1.434,1.434,0,1,1,16.835,5.9,1.447,1.447,0,0,1,18.269,7.334Z" transform="translate(-8.706 -3.335)" fill="#f1cf25"/>
      <path id="Path_2670" data-name="Path 2670" d="M26.769,7.334A1.435,1.435,0,1,1,25.335,5.9,1.419,1.419,0,0,1,26.769,7.334Z" transform="translate(-13.511 -3.335)" fill="#080717"/>
      <g id="Group_2281" data-name="Group 2281">
        <path id="Path_2671" data-name="Path 2671" d="M80.984,56.38H4.608A4.583,4.583,0,0,1,0,51.772V4.608A4.583,4.583,0,0,1,4.608,0H80.984a4.61,4.61,0,0,1,4.608,4.608V51.772A4.61,4.61,0,0,1,80.984,56.38ZM4.608.869A3.711,3.711,0,0,0,.869,4.608V51.772a3.738,3.738,0,0,0,3.738,3.738H80.984a3.738,3.738,0,0,0,3.738-3.738V4.608A3.738,3.738,0,0,0,80.984.869Z"/>
      </g>
      <g id="Group_2282" data-name="Group 2282" transform="translate(65.631 49.808)">
        <path id="Path_2672" data-name="Path 2672" d="M152.771,120.849a.458.458,0,0,1-.435-.348l-1.348-5.39a.427.427,0,0,1,.826-.217l1.348,5.39a.447.447,0,0,1-.3.522C152.815,120.849,152.815,120.849,152.771,120.849Z" transform="translate(-150.981 -114.581)"/>
      </g>
      <g id="Group_2283" data-name="Group 2283" transform="translate(25.56 23.517)">
        <path id="Path_2673" data-name="Path 2673" d="M65.09,57.9a2.7,2.7,0,1,1-2.7-2.7A2.681,2.681,0,0,1,65.09,57.9Z" transform="translate(-59.309 -54.722)" fill="#fff"/>
        <path id="Path_2674" data-name="Path 2674" d="M61.93,60.36a3.13,3.13,0,1,1,3.13-3.13A3.145,3.145,0,0,1,61.93,60.36Zm0-5.347a2.26,2.26,0,1,0,2.26,2.26A2.3,2.3,0,0,0,61.93,55.013Z" transform="translate(-58.8 -54.1)"/>
      </g>
    </g>
  </g>
</svg>
