<svg id="_x3C_Layer_x3E_" xmlns="http://www.w3.org/2000/svg" width="76.886" height="59.732" viewBox="0 0 76.886 59.732">
  <g id="Group_2596" data-name="Group 2596" transform="translate(0)">
    <g id="Group_2569" data-name="Group 2569" transform="translate(7.727)">
      <g id="Group_2537" data-name="Group 2537" transform="translate(0 2.401)">
        <rect id="Rectangle_580" data-name="Rectangle 580" width="28.399" height="25.168" transform="translate(0.296 0.296)" fill="#fff"/>
        <path id="Path_2984" data-name="Path 2984" d="M51.8,8.693V33.268H23.993V8.693Zm.593-.593H23.4V33.861H52.392V8.1Z" transform="translate(-23.4 -8.1)" fill="#85bac6"/>
      </g>
      <g id="Group_2538" data-name="Group 2538" transform="translate(10.464 10.464)">
        <rect id="Rectangle_581" data-name="Rectangle 581" width="1.601" height="1.601" fill="#85bac6"/>
      </g>
      <g id="Group_2539" data-name="Group 2539" transform="translate(13.695 10.464)">
        <rect id="Rectangle_582" data-name="Rectangle 582" width="1.601" height="1.601" fill="#85bac6"/>
      </g>
      <g id="Group_2540" data-name="Group 2540" transform="translate(16.927 10.464)">
        <rect id="Rectangle_583" data-name="Rectangle 583" width="1.601" height="1.601" fill="#85bac6"/>
      </g>
      <g id="Group_2541" data-name="Group 2541" transform="translate(20.128 10.464)">
        <rect id="Rectangle_584" data-name="Rectangle 584" width="1.601" height="1.601" fill="#85bac6"/>
      </g>
      <g id="Group_2542" data-name="Group 2542" transform="translate(23.359 10.464)">
        <rect id="Rectangle_585" data-name="Rectangle 585" width="1.601" height="1.601" fill="#85bac6"/>
      </g>
      <g id="Group_2543" data-name="Group 2543" transform="translate(4.032 13.695)">
        <rect id="Rectangle_586" data-name="Rectangle 586" width="1.601" height="1.601" fill="#85bac6"/>
      </g>
      <g id="Group_2544" data-name="Group 2544" transform="translate(7.263 13.695)">
        <rect id="Rectangle_587" data-name="Rectangle 587" width="1.601" height="1.601" fill="#85bac6"/>
      </g>
      <g id="Group_2545" data-name="Group 2545" transform="translate(10.464 13.695)">
        <rect id="Rectangle_588" data-name="Rectangle 588" width="1.601" height="1.601" fill="#85bac6"/>
      </g>
      <g id="Group_2546" data-name="Group 2546" transform="translate(13.695 13.695)">
        <rect id="Rectangle_589" data-name="Rectangle 589" width="1.601" height="1.601" fill="#85bac6"/>
      </g>
      <g id="Group_2547" data-name="Group 2547" transform="translate(16.927 13.695)">
        <rect id="Rectangle_590" data-name="Rectangle 590" width="1.601" height="1.601" fill="#85bac6"/>
      </g>
      <g id="Group_2548" data-name="Group 2548" transform="translate(20.128 13.695)">
        <rect id="Rectangle_591" data-name="Rectangle 591" width="1.601" height="1.601" fill="#85bac6"/>
      </g>
      <g id="Group_2549" data-name="Group 2549" transform="translate(23.359 13.695)">
        <rect id="Rectangle_592" data-name="Rectangle 592" width="1.601" height="1.601" fill="#85bac6"/>
      </g>
      <g id="Group_2550" data-name="Group 2550" transform="translate(4.032 16.897)">
        <rect id="Rectangle_593" data-name="Rectangle 593" width="1.601" height="1.601" fill="#85bac6"/>
      </g>
      <g id="Group_2551" data-name="Group 2551" transform="translate(7.263 16.897)">
        <rect id="Rectangle_594" data-name="Rectangle 594" width="1.601" height="1.601" fill="#85bac6"/>
      </g>
      <g id="Group_2552" data-name="Group 2552" transform="translate(10.464 16.897)">
        <rect id="Rectangle_595" data-name="Rectangle 595" width="1.601" height="1.601" fill="#85bac6"/>
      </g>
      <g id="Group_2553" data-name="Group 2553" transform="translate(13.695 16.897)">
        <rect id="Rectangle_596" data-name="Rectangle 596" width="1.601" height="1.601" fill="#85bac6"/>
      </g>
      <g id="Group_2554" data-name="Group 2554" transform="translate(16.927 16.897)">
        <rect id="Rectangle_597" data-name="Rectangle 597" width="1.601" height="1.601" fill="#85bac6"/>
      </g>
      <g id="Group_2555" data-name="Group 2555" transform="translate(20.128 16.897)">
        <rect id="Rectangle_598" data-name="Rectangle 598" width="1.601" height="1.601" fill="#85bac6"/>
      </g>
      <g id="Group_2556" data-name="Group 2556" transform="translate(23.359 16.897)">
        <rect id="Rectangle_599" data-name="Rectangle 599" width="1.601" height="1.601" fill="#85bac6"/>
      </g>
      <g id="Group_2557" data-name="Group 2557" transform="translate(4.032 20.128)">
        <rect id="Rectangle_600" data-name="Rectangle 600" width="1.601" height="1.601" fill="#85bac6"/>
      </g>
      <g id="Group_2558" data-name="Group 2558" transform="translate(7.263 20.128)">
        <rect id="Rectangle_601" data-name="Rectangle 601" width="1.601" height="1.601" fill="#85bac6"/>
      </g>
      <g id="Group_2559" data-name="Group 2559" transform="translate(10.464 20.128)">
        <rect id="Rectangle_602" data-name="Rectangle 602" width="1.601" height="1.601" fill="#85bac6"/>
      </g>
      <g id="Group_2560" data-name="Group 2560" transform="translate(13.695 20.128)">
        <rect id="Rectangle_603" data-name="Rectangle 603" width="1.601" height="1.601" fill="#85bac6"/>
      </g>
      <g id="Group_2561" data-name="Group 2561" transform="translate(16.927 20.128)">
        <rect id="Rectangle_604" data-name="Rectangle 604" width="1.601" height="1.601" fill="#85bac6"/>
      </g>
      <g id="Group_2562" data-name="Group 2562" transform="translate(20.128 20.128)">
        <rect id="Rectangle_605" data-name="Rectangle 605" width="1.601" height="1.601" fill="#85bac6"/>
      </g>
      <g id="Group_2563" data-name="Group 2563" transform="translate(23.359 20.128)">
        <rect id="Rectangle_606" data-name="Rectangle 606" width="1.601" height="1.601" fill="#85bac6"/>
      </g>
      <g id="Group_2564" data-name="Group 2564" transform="translate(4.032 23.359)">
        <rect id="Rectangle_607" data-name="Rectangle 607" width="1.601" height="1.601" fill="#85bac6"/>
      </g>
      <g id="Group_2565" data-name="Group 2565" transform="translate(7.263 23.359)">
        <rect id="Rectangle_608" data-name="Rectangle 608" width="1.601" height="1.601" fill="#85bac6"/>
      </g>
      <g id="Group_2566" data-name="Group 2566" transform="translate(10.464 23.359)">
        <rect id="Rectangle_609" data-name="Rectangle 609" width="1.601" height="1.601" fill="#85bac6"/>
      </g>
      <rect id="Rectangle_610" data-name="Rectangle 610" width="28.992" height="5.158" transform="translate(0 2.401)"/>
      <g id="Group_2567" data-name="Group 2567" transform="translate(4.032)">
        <rect id="Rectangle_611" data-name="Rectangle 611" width="1.601" height="4.832" fill="#85bac6"/>
      </g>
      <g id="Group_2568" data-name="Group 2568" transform="translate(23.359)">
        <rect id="Rectangle_612" data-name="Rectangle 612" width="1.601" height="4.832" fill="#85bac6"/>
      </g>
    </g>
    <g id="Group_2595" data-name="Group 2595" transform="translate(0 2.964)">
      <g id="Group_2570" data-name="Group 2570" transform="translate(15.27 11.565)">
        <path id="Path_2985" data-name="Path 2985" d="M73.832,70.467l-4.12,3.5s-3.409-6.2-4.624-8.211a25.24,25.24,0,0,0,.652-4c-.089-1.1-.741-1.986-1.838-5.306a28.547,28.547,0,0,0-2.045-5.1,2.614,2.614,0,0,0-.5,1.868c.03,1.334.237,3.35.237,3.35s-2.935-3.943-3.113-4.209c-.148-.267-2.045-2.52-2.549-2.372-.474.178-.682.593-.178,1.393s2.757,4.358,2.757,4.358S54.8,50.754,53.971,50.4c-.771-.356-1.1.089-.919.652.119.356,2.342,3.854,3.142,5.1a43.63,43.63,0,0,0-3.646-4.595c-.889-.652-1.482,0-1.1.8.148.3,3.32,5.277,3.32,5.277s.208.86-1.453-.919-2.727-3.261-3.35-2.905c-1.008.563,1.66,4.447,2.609,5.6.83,1.038,5.781,6.937,6.937,8.271a79.119,79.119,0,0,0,3.379,11.087,6.6,6.6,0,0,0,9.1,1.956l5.781-2.905Z" transform="translate(-49.479 -49.691)" fill="#fff"/>
        <path id="Path_2986" data-name="Path 2986" d="M67.923,81.41a6.38,6.38,0,0,1-1.275-.119,7.194,7.194,0,0,1-4.624-3.053,90.947,90.947,0,0,1-3.409-11.116c-1.482-1.749-6.077-7.233-6.877-8.241-.623-.771-3.113-4.209-2.875-5.543a.629.629,0,0,1,.356-.5c.682-.385,1.453.474,2.727,1.9.3.326.623.711.978,1.067a3.555,3.555,0,0,0,.474.474c-.919-1.453-2.7-4.269-2.816-4.506a1.074,1.074,0,0,1,.148-1.3,1.061,1.061,0,0,1,1.364.148c.059.059.148.119.237.208a1.33,1.33,0,0,1-.178-.385.93.93,0,0,1,.178-.978c.148-.148.5-.326,1.126-.03a5.73,5.73,0,0,1,1.275,1.186,1.165,1.165,0,0,1-.148-1.008.913.913,0,0,1,.652-.563c.267-.089.652,0,1.69,1.1a11.862,11.862,0,0,1,1.186,1.393c.089.178,1.393,1.927,2.46,3.379-.059-.711-.119-1.63-.148-2.342a2.685,2.685,0,0,1,.593-2.075.337.337,0,0,1,.237-.089.223.223,0,0,1,.208.148,28.839,28.839,0,0,1,2.075,5.158c.5,1.541.919,2.549,1.215,3.29a7.483,7.483,0,0,1,.623,2.075,19.242,19.242,0,0,1-.623,3.972c1.1,1.808,3.676,6.522,4.387,7.8l3.854-3.261a.294.294,0,1,1,.385.445l-4.12,3.5a.231.231,0,0,1-.237.059c-.089-.03-.178-.059-.208-.148-.03-.059-3.409-6.2-4.624-8.182a.26.26,0,0,1-.03-.208,18.854,18.854,0,0,0,.623-3.883,7.807,7.807,0,0,0-.593-1.9c-.3-.741-.711-1.779-1.215-3.35a34.332,34.332,0,0,0-1.779-4.565,2.758,2.758,0,0,0-.178,1.245c.03,1.3.208,3.32.237,3.35a.3.3,0,0,1-.178.3.325.325,0,0,1-.356-.089c-.3-.415-2.964-3.972-3.113-4.269a9.888,9.888,0,0,0-2.223-2.223c-.148.059-.208.119-.237.208s-.03.3.237.711c.5.8,2.757,4.358,2.757,4.358a.292.292,0,0,1-.089.415.323.323,0,0,1-.415-.059c-1.423-1.9-3.854-4.98-4.417-5.217-.267-.119-.445-.119-.5-.059s-.089.178,0,.356c.119.326,2.194,3.646,3.113,5.01a.292.292,0,0,1-.089.415.319.319,0,0,1-.415-.059A42.845,42.845,0,0,0,51.738,51.2c-.326-.237-.563-.237-.652-.178-.089.089-.148.3,0,.593.119.237,2.016,3.261,3.29,5.247a.109.109,0,0,1,.03.089.478.478,0,0,1-.178.534c-.267.148-.652,0-1.749-1.186-.356-.385-.682-.741-.978-1.1-.8-.889-1.719-1.927-1.986-1.779a.128.128,0,0,0-.059.119c-.178.86,1.719,3.794,2.757,5.039.8.978,5.514,6.581,6.937,8.271a.226.226,0,0,1,.059.148,86.4,86.4,0,0,0,3.32,10.968,6.615,6.615,0,0,0,4.239,2.787,5.974,5.974,0,0,0,4.447-.889.029.029,0,0,0,.03-.03l5.781-2.905a.285.285,0,1,1,.267.5L71.54,80.342A6.861,6.861,0,0,1,67.923,81.41ZM55.354,49.6Z" transform="translate(-48.846 -49.013)"/>
      </g>
      <path id="Path_2987" data-name="Path 2987" d="M166.913,25.8a15.051,15.051,0,0,0-3.676-4.743,6.39,6.39,0,0,0-7.885-9.219A6.339,6.339,0,0,0,150.846,10a6.414,6.414,0,0,0-6.4,6.4,6.48,6.48,0,0,0,.949,3.35,20.407,20.407,0,0,1-2.52,4.12c-1.393,1.482-1.956,3.35-1.038,4.684s2.787,1.1,3.35,2.49c.563,1.423,1.808,4.506,6.433,3.468s8.122.385,9.871-1.6a6.121,6.121,0,0,1,2.935-2.1C165.075,30.365,168.365,28.676,166.913,25.8Z" transform="translate(-98.683 -10)"/>
      <path id="Path_2988" data-name="Path 2988" d="M124.014,111.918l-5.514-8.952s7.885-8.448,8.211-8.567C127.008,94.28,130.565,108.39,124.014,111.918Z" transform="translate(-82.582 -69.379)" fill="#1877f2"/>
      <path id="Path_2989" data-name="Path 2989" d="M151.541,87.485,143.6,89.294l-1.1,15.978,2.431,15.622H168.5l-1.482-18.972,2.579-11.028L158.686,87.1Z" transform="translate(-99.468 -64.245)" fill="#1877f2"/>
      <path id="Path_2990" data-name="Path 2990" d="M162.917,100.9s-3.142,13.429-1.66,20.6,1.868,9.13,1.868,9.13h7.559s-2.431-6.788-1.986-11.8,2.312-17.875,2.312-17.875S165.882,107.807,162.917,100.9Z" transform="translate(-112.385 -73.954)" fill="#080717"/>
      <g id="Group_2571" data-name="Group 2571" transform="translate(19.534 17.312)">
        <path id="Path_2991" data-name="Path 2991" d="M63.518,72.432a.222.222,0,0,1-.148-.03.292.292,0,0,1-.089-.415c.623-1.008,3.587-3.528,5.484-3.587a.3.3,0,0,1,.3.3.28.28,0,0,1-.3.3c-1.63.059-4.447,2.431-5.01,3.32C63.726,72.4,63.637,72.432,63.518,72.432Z" transform="translate(-63.231 -68.4)"/>
      </g>
      <g id="Group_2572" data-name="Group 2572" transform="translate(21.303 21.458)">
        <path id="Path_2992" data-name="Path 2992" d="M75.336,85.917A.27.27,0,0,1,75.1,85.8c-1.927-2.283-3.32-2.787-4.15-2.846a1.724,1.724,0,0,0-1.245.385.293.293,0,0,1-.415-.415,2.2,2.2,0,0,1,1.66-.534c1.393.059,2.964,1.1,4.624,3.053a.286.286,0,0,1-.03.415A.754.754,0,0,1,75.336,85.917Z" transform="translate(-69.2 -82.385)"/>
      </g>
      <g id="Group_2573" data-name="Group 2573" transform="translate(25.649 20.069)">
        <path id="Path_2993" data-name="Path 2993" d="M84.345,81.2a.259.259,0,0,1-.267-.178,3.081,3.081,0,0,1,.682-3.231.293.293,0,0,1,.415.415h0a2.456,2.456,0,0,0-.563,2.579.294.294,0,0,1-.148.385C84.4,81.168,84.374,81.2,84.345,81.2Z" transform="translate(-83.858 -77.7)"/>
      </g>
      <g id="Group_2574" data-name="Group 2574" transform="translate(21.104 16.875)">
        <path id="Path_2994" data-name="Path 2994" d="M69.7,68.786a.27.27,0,0,1-.237-.119l-.889-1.275a.3.3,0,0,1,.474-.356l.889,1.275a.314.314,0,0,1-.059.415A.421.421,0,0,1,69.7,68.786Z" transform="translate(-68.526 -66.926)"/>
      </g>
      <g id="Group_2575" data-name="Group 2575" transform="translate(39.908 38.087)">
        <path id="Path_2995" data-name="Path 2995" d="M167.139,139.5l-7.589,1.6.652,6.107-12.243,2.52-5.988-1.956-4.565.682-2.075,1.868-2.431,4.061c1.986.919,3.2-1.6,3.2-1.6l.919-1.364.148,1.571c.148.356,1.1,2.312,1.482,2.372.563.059,2.964,0,2.964,0l.326-.445c1.008-1.423.089-2.075.089-2.075a20.45,20.45,0,0,0,3.765,1.69c1.334.326,1.334,0,2.49-.652a.064.064,0,0,0,.059-.059,114.131,114.131,0,0,0,11.946,1.334c2.757,0,6.611-1.423,7.441-3.024C169.836,148.215,167.139,139.5,167.139,139.5Z" transform="translate(-132.621 -139.198)" fill="#fff"/>
        <path id="Path_2996" data-name="Path 2996" d="M139.056,154.969a10.212,10.212,0,0,1-1.067-.03c-.652-.059-1.719-2.52-1.719-2.549s-.03-.059-.03-.089l-.089-.771-.445.682c-.474.949-1.838,2.52-3.587,1.719a.188.188,0,0,1-.148-.178.315.315,0,0,1,.03-.237l2.431-4.061c.03-.03.03-.059.059-.059l2.075-1.868a.226.226,0,0,1,.148-.059l4.565-.682h.148l5.929,1.927,11.917-2.46-.622-5.84a.294.294,0,0,1,.237-.326l7.589-1.6a.322.322,0,0,1,.356.208c.119.356,2.7,8.893.623,12.865-.919,1.749-4.98,3.172-7.707,3.172a118.871,118.871,0,0,1-11.858-1.3,5.221,5.221,0,0,0-.593.356,2.194,2.194,0,0,1-2.134.326,14.9,14.9,0,0,1-3.024-1.275,2.233,2.233,0,0,1-.534,1.541c-.356.5-.474.652-.652.563C140.627,154.969,139.8,154.969,139.056,154.969Zm-.978-.593c.445.03,1.9.03,2.757,0,.059-.059.119-.178.237-.326.8-1.126.237-1.6.178-1.66a.314.314,0,0,1-.059-.415.289.289,0,0,1,.385-.089,22.5,22.5,0,0,0,3.676,1.66,1.56,1.56,0,0,0,1.66-.237c.178-.119.356-.237.623-.385a.029.029,0,0,0,.03-.03.559.559,0,0,1,.237-.059,117.516,117.516,0,0,0,11.887,1.334c2.816,0,6.462-1.453,7.174-2.846,1.779-3.409-.178-10.7-.593-12.154l-7.055,1.482.623,5.84a.294.294,0,0,1-.237.326l-12.243,2.52h-.148l-5.929-1.927-4.387.652-1.986,1.779-2.223,3.706c1.512.415,2.46-1.482,2.52-1.571a.029.029,0,0,1,.03-.03l.919-1.364a.329.329,0,0,1,.326-.119.319.319,0,0,1,.237.267l.148,1.541A10.651,10.651,0,0,0,138.077,154.376Zm.03,0Z" transform="translate(-131.959 -138.481)"/>
      </g>
      <path id="Path_2997" data-name="Path 2997" d="M215.068,115.637c.148.474,11.531-2.994,11.531-2.994s-4-11.946-6.759-13.192C217.084,98.236,211.511,104.639,215.068,115.637Z" transform="translate(-149.714 -72.831)" fill="#1877f2"/>
      <g id="Group_2576" data-name="Group 2576" transform="translate(44.918 23.1)">
        <path id="Path_2998" data-name="Path 2998" d="M151.185,111.841a.289.289,0,0,1-.3-.237l-2.016-10.346a.231.231,0,0,1,.059-.237l2.579-3.172-2.194-3.379a.378.378,0,0,1,0-.356L154,88.037a.3.3,0,1,1,.474.356l-4.565,5.9,2.194,3.379a.315.315,0,0,1-.03.356l-2.638,3.231,1.986,10.227a.3.3,0,0,1-.237.356C151.214,111.841,151.185,111.841,151.185,111.841Z" transform="translate(-148.861 -87.926)"/>
      </g>
      <g id="Group_2577" data-name="Group 2577" transform="translate(58.768 22.655)">
        <path id="Path_2999" data-name="Path 2999" d="M195.883,111.762h-.089a.322.322,0,0,1-.208-.356l3.053-10.435-2.164-2.757a.312.312,0,0,1,0-.385l3.35-3.972-3.113-7.026a.292.292,0,1,1,.534-.237l3.172,7.2a.267.267,0,0,1-.03.3l-3.32,3.913,2.1,2.7a.3.3,0,0,1,.059.267l-3.113,10.583A.229.229,0,0,1,195.883,111.762Z" transform="translate(-195.581 -86.423)"/>
      </g>
      <g id="Group_2578" data-name="Group 2578" transform="translate(50.454 15.45)">
        <path id="Path_3000" data-name="Path 3000" d="M169.891,67.121s-.949,4.624-1.3,6.462c-.445,2.253.741,4.506,4,3.735s3.794-1.808,4.239-5.128c.03-.178-.326-9.19-.326-9.19S173.122,67.328,169.891,67.121Z" transform="translate(-168.212 -62.739)" fill="#fff"/>
        <path id="Path_3001" data-name="Path 3001" d="M170.7,77.173a3.17,3.17,0,0,1-2.223-.8,3.652,3.652,0,0,1-.83-3.439c.356-1.838,1.3-6.433,1.3-6.462a.312.312,0,0,1,.3-.237c3.024.178,6.344-3.943,6.373-4a.281.281,0,0,1,.326-.089.285.285,0,0,1,.208.267c.119,2.7.356,9.041.326,9.219-.474,3.528-1.1,4.595-4.476,5.4A7.635,7.635,0,0,1,170.7,77.173ZM169.452,66.8c-.208.978-.949,4.624-1.245,6.225a3.174,3.174,0,0,0,.682,2.905,3.138,3.138,0,0,0,2.964.5c3.113-.741,3.587-1.63,4-4.891,0-.237-.148-4.891-.3-8.389C174.521,64.337,172,66.8,169.452,66.8Z" transform="translate(-167.536 -62.119)"/>
      </g>
      <g id="Group_2579" data-name="Group 2579" transform="translate(47.687 4.832)">
        <path id="Path_3002" data-name="Path 3002" d="M164.654,42.537h0a5.44,5.44,0,0,1-5.454-5.454V32.754a5.44,5.44,0,0,1,5.454-5.454h0a5.44,5.44,0,0,1,5.454,5.454v4.328A5.478,5.478,0,0,1,164.654,42.537Z" transform="translate(-158.904 -27.004)" fill="#fff"/>
        <path id="Path_3003" data-name="Path 3003" d="M163.951,42.13a5.756,5.756,0,0,1-5.751-5.751V32.051a5.751,5.751,0,1,1,11.5,0v4.328A5.775,5.775,0,0,1,163.951,42.13Zm0-15.237a5.162,5.162,0,0,0-5.158,5.158v4.328a5.158,5.158,0,0,0,10.316,0V32.051A5.162,5.162,0,0,0,163.951,26.893Z" transform="translate(-158.2 -26.3)"/>
      </g>
      <g id="Group_2583" data-name="Group 2583" transform="translate(45.078 9.575)">
        <g id="Group_2580" data-name="Group 2580">
          <path id="Path_3004" data-name="Path 3004" d="M152.127,47.754a2.727,2.727,0,1,1,2.727-2.727A2.72,2.72,0,0,1,152.127,47.754Zm0-4.891A2.134,2.134,0,1,0,154.262,45,2.125,2.125,0,0,0,152.127,42.863Z" transform="translate(-149.4 -42.3)" fill="#85bac6"/>
        </g>
        <g id="Group_2581" data-name="Group 2581" transform="translate(6.166)">
          <path id="Path_3005" data-name="Path 3005" d="M172.927,47.754a2.727,2.727,0,1,1,2.727-2.727A2.72,2.72,0,0,1,172.927,47.754Zm0-4.891A2.134,2.134,0,1,0,175.062,45,2.125,2.125,0,0,0,172.927,42.863Z" transform="translate(-170.2 -42.3)" fill="#85bac6"/>
        </g>
        <g id="Group_2582" data-name="Group 2582" transform="translate(4.832 1.682)">
          <path id="Path_3006" data-name="Path 3006" d="M167.212,48.812a.269.269,0,0,1-.207-.089.592.592,0,0,0-.8,0,.293.293,0,1,1-.415-.415,1.163,1.163,0,0,1,1.63,0,.287.287,0,0,1,0,.415A.231.231,0,0,1,167.212,48.812Z" transform="translate(-165.7 -47.975)" fill="#85bac6"/>
        </g>
      </g>
      <g id="Group_2584" data-name="Group 2584" transform="translate(49.782 11.557)">
        <path id="Path_3007" data-name="Path 3007" d="M166.345,52.932a.224.224,0,0,1-.119-.03c-.474-.178-1.038-.474-.949-.889.089-.5.563-2.7.593-2.787a.3.3,0,1,1,.593.119c0,.03-.474,2.1-.563,2.7a1.874,1.874,0,0,0,.563.326.308.308,0,0,1,.178.385A.326.326,0,0,1,166.345,52.932Z" transform="translate(-165.268 -48.985)" fill="#080717"/>
      </g>
      <g id="Group_2585" data-name="Group 2585" transform="translate(50.038 15.748)">
        <path id="Path_3008" data-name="Path 3008" d="M167.337,64.333a2.258,2.258,0,0,1-1.067-.267.3.3,0,0,1,.326-.5c.03.03.889.563,2.223-.385a.3.3,0,0,1,.356.474A3.074,3.074,0,0,1,167.337,64.333Z" transform="translate(-166.131 -63.126)" fill="#080717"/>
      </g>
      <path id="Path_3009" data-name="Path 3009" d="M195.087,51.994a2.194,2.194,0,1,1-2.194-2.194A2.189,2.189,0,0,1,195.087,51.994Z" transform="translate(-133.379 -38.002)" fill="#fff"/>
      <path id="Path_3010" data-name="Path 3010" d="M162.706,19.635a3.592,3.592,0,0,1,.83-2.194,4.854,4.854,0,0,0-.445,2.194h3.557s6.462-3.024,2.164-6.225a4.639,4.639,0,0,0-5.188-.652,4.386,4.386,0,0,0-2.638-1.927c-2.372-.445-8.775,1.038-5.81,8.8h3.794a6.914,6.914,0,0,1,1.571-3.379,9.031,9.031,0,0,0-.889,3.379Z" transform="translate(-107.845 -10.534)"/>
      <g id="Group_2586" data-name="Group 2586" transform="translate(45.671 49.09)">
        <path id="Path_3011" data-name="Path 3011" d="M152.882,180.877a.311.311,0,0,1-.267-.148l-1.186-2.312a.222.222,0,0,1-.03-.148l.059-2.372a.3.3,0,0,1,.593,0l-.059,2.283,1.156,2.253a.262.262,0,0,1-.119.385C152.971,180.847,152.941,180.877,152.882,180.877Z" transform="translate(-151.4 -175.6)"/>
      </g>
      <g id="Group_2587" data-name="Group 2587" transform="translate(47.183 49.856)">
        <path id="Path_3012" data-name="Path 3012" d="M157.745,182.577a.285.285,0,0,1-.267-.178l-.949-2.075a.222.222,0,0,1-.03-.148l.119-1.719a.3.3,0,1,1,.593.059l-.119,1.63.919,2.016a.294.294,0,0,1-.148.385C157.834,182.577,157.8,182.577,157.745,182.577Z" transform="translate(-156.5 -178.185)"/>
      </g>
      <g id="Group_2591" data-name="Group 2591" transform="translate(0 37.915)">
        <g id="Group_2588" data-name="Group 2588" transform="translate(0.867 0.03)">
          <path id="Path_3013" data-name="Path 3013" d="M36.827,157.161H8.369a1.761,1.761,0,0,1-1.63-1.126l-5.4-14.822a1.718,1.718,0,0,1,1.63-2.312H31.432a1.761,1.761,0,0,1,1.63,1.126l5.4,14.792A1.767,1.767,0,0,1,36.827,157.161Z" transform="translate(-0.946 -138.633)" fill="#fff"/>
          <path id="Path_3014" data-name="Path 3014" d="M36.14,156.824H7.682a2.015,2.015,0,0,1-1.9-1.334L.39,140.7a1.938,1.938,0,0,1,.237-1.838,2.024,2.024,0,0,1,1.66-.86H30.745a2.015,2.015,0,0,1,1.9,1.334l5.4,14.792a1.938,1.938,0,0,1-.237,1.838A2.065,2.065,0,0,1,36.14,156.824ZM2.287,138.563a1.49,1.49,0,0,0-1.186.622,1.457,1.457,0,0,0-.178,1.3l5.4,14.792a1.437,1.437,0,0,0,1.334.949H36.11a1.49,1.49,0,0,0,1.186-.623,1.457,1.457,0,0,0,.178-1.3l-5.4-14.792a1.437,1.437,0,0,0-1.334-.949H2.287Z" transform="translate(-0.259 -138)"/>
        </g>
        <g id="Group_2589" data-name="Group 2589" transform="translate(12.992 16.334)">
          <path id="Path_3015" data-name="Path 3015" d="M74.246,196l-.3-.771a1.7,1.7,0,0,0-1.63-1.126H43.891a1.72,1.72,0,0,0-1.719,1.927H74.246Z" transform="translate(-41.864 -193.774)" fill="#fff"/>
          <path id="Path_3016" data-name="Path 3016" d="M73.545,195.52H41.47a.315.315,0,0,1-.3-.267,2.06,2.06,0,0,1,.5-1.571A1.961,1.961,0,0,1,43.189,193H71.647a2.015,2.015,0,0,1,1.9,1.334l.3.771a.288.288,0,0,1-.03.267A.311.311,0,0,1,73.545,195.52Zm-31.808-.593H73.13l-.148-.385a1.437,1.437,0,0,0-1.334-.949H43.189a1.435,1.435,0,0,0-1.067.474A1.526,1.526,0,0,0,41.737,194.927Z" transform="translate(-41.162 -193)"/>
        </g>
        <path id="Path_3017" data-name="Path 3017" d="M32.927,156.754H4.469a1.775,1.775,0,0,1-1.63-1.186l-5.4-15.267a1.78,1.78,0,0,1,1.63-2.4H27.532a1.775,1.775,0,0,1,1.63,1.186l5.4,15.3A1.769,1.769,0,0,1,32.927,156.754Z" transform="translate(2.665 -137.9)" fill="#080717"/>
        <g id="Group_2590" data-name="Group 2590" transform="translate(16.101 7.115)">
          <path id="Path_3018" data-name="Path 3018" d="M56.4,164.649c.356.978-.148,1.749-1.1,1.749a2.684,2.684,0,0,1-2.372-1.749c-.356-.978.148-1.749,1.1-1.749A2.753,2.753,0,0,1,56.4,164.649Z" transform="translate(-52.469 -162.604)" fill="#fff"/>
          <path id="Path_3019" data-name="Path 3019" d="M54.45,165.991a3.074,3.074,0,0,1-2.668-1.957,1.643,1.643,0,0,1,.119-1.541,1.474,1.474,0,0,1,1.275-.593,3.074,3.074,0,0,1,2.668,1.957,1.643,1.643,0,0,1-.119,1.541A1.551,1.551,0,0,1,54.45,165.991Zm-1.275-3.5a.847.847,0,0,0-.771.356,1.079,1.079,0,0,0-.059,1.008,2.488,2.488,0,0,0,2.1,1.542.847.847,0,0,0,.771-.356,1.071,1.071,0,0,0,.059-1.008h0A2.487,2.487,0,0,0,53.176,162.493Z" transform="translate(-51.649 -161.9)"/>
        </g>
      </g>
      <g id="Group_2592" data-name="Group 2592" transform="translate(42.355 28.755)">
        <path id="Path_3020" data-name="Path 3020" d="M140.715,121.022a.315.315,0,0,1-.3-.267c-.623-5.573.385-13.4.385-13.488a.3.3,0,1,1,.593.059c0,.089-1.008,7.856-.385,13.34a.294.294,0,0,1-.267.326C140.744,121.022,140.744,121.022,140.715,121.022Z" transform="translate(-140.215 -107)" fill="#fff"/>
      </g>
      <g id="Group_2593" data-name="Group 2593" transform="translate(58.532 12.625)">
        <path id="Path_3021" data-name="Path 3021" d="M195.086,54.253h-.059a.307.307,0,0,1-.237-.356,1.592,1.592,0,0,1,1.66-1.3.3.3,0,0,1-.059.593,1.072,1.072,0,0,0-1.067.83C195.352,54.164,195.234,54.253,195.086,54.253Z" transform="translate(-194.785 -52.59)" fill="#080717"/>
      </g>
      <g id="Group_2594" data-name="Group 2594" transform="translate(44.011 48.616)">
        <path id="Path_3022" data-name="Path 3022" d="M146.126,176.016a.3.3,0,0,1-.3-.3l-.03-1.423a.28.28,0,0,1,.3-.3h0a.3.3,0,0,1,.3.3l.03,1.423a.318.318,0,0,1-.3.3Z" transform="translate(-145.8 -174)" fill="#282d33"/>
      </g>
    </g>
  </g>
</svg>
