<svg xmlns="http://www.w3.org/2000/svg" width="104.264" height="58.011" viewBox="0 0 104.264 58.011">
  <g id="_x3C_Layer_x3E_" transform="translate(0 0)">
    <g id="Group_432" data-name="Group 432" transform="translate(0 0)">
      <g id="Group_429" data-name="Group 429" transform="translate(0 2.572)">
        <path id="Path_427" data-name="Path 427" d="M166.634,45.191,147.926,46.63a2.1,2.1,0,0,0-1.887,2.558L148.885,61.4A2.089,2.089,0,0,0,151.22,63l18.644-2.686a2.1,2.1,0,0,0,1.727-2.59L168.808,46.79A2.1,2.1,0,0,0,166.634,45.191Z" transform="translate(-114.931 -36.825)" fill="#080717"/>
        <g id="Group_401" data-name="Group 401" transform="translate(47.704 5.467)">
          <g id="Group_399" data-name="Group 399" transform="translate(0)">
            <path id="Path_428" data-name="Path 428" d="M146.3,41.513v-.288l5.245.128-3.294-.959a2.445,2.445,0,0,1-1.663-3.038l.064-.256,6.556,1.919,1.343,3.806.416,2.686-4.317.64a2.432,2.432,0,0,1-2.782-2.047l-.032-.256A2.489,2.489,0,0,1,146.3,41.513Z" transform="translate(-146.043 -36.792)" fill="#fff"/>
            <path id="Path_429" data-name="Path 429" d="M149.523,45.848a1.823,1.823,0,0,0,.416-.032l4.317-.64a.324.324,0,0,0,.224-.128.3.3,0,0,0,.064-.224l-.416-2.686v-.064l-1.343-3.806a.338.338,0,0,0-.224-.192L146,36.158a.284.284,0,0,0-.384.224l-.064.256a2.782,2.782,0,0,0,1.887,3.454l1.023.288-2.846-.064h0a.32.32,0,0,0-.32.32v.288h0a2.723,2.723,0,0,0,1.535,2.526v.1A2.694,2.694,0,0,0,149.523,45.848Zm4.349-1.279-4,.608a2.15,2.15,0,0,1-2.43-1.791l-.032-.256a.5.5,0,0,0-.192-.256,2.152,2.152,0,0,1-1.311-1.951l4.893.1h0a.344.344,0,0,0,.32-.256.3.3,0,0,0-.224-.352l-3.294-.959a2.166,2.166,0,0,1-1.471-2.622l6.076,1.791,1.279,3.614Z" transform="translate(-145.3 -36.138)"/>
          </g>
          <g id="Group_400" data-name="Group 400" transform="translate(1.435 6.347)">
            <path id="Path_430" data-name="Path 430" d="M159.993,57c-.16.032-4.093.384-4.093.384Z" transform="translate(-155.575 -56.675)" fill="#fff"/>
            <path id="Path_431" data-name="Path 431" d="M155.309,56.981h0c.672-.064,3.966-.352,4.125-.384a.308.308,0,1,0-.1-.608c-.16.032-2.526.224-4.061.352a.289.289,0,0,0-.288.352A.312.312,0,0,0,155.309,56.981Z" transform="translate(-154.985 -55.985)"/>
          </g>
        </g>
        <g id="Group_402" data-name="Group 402" transform="translate(0 31.775)">
          <path id="Path_432" data-name="Path 432" d="M189.649,137.56l.352-.352L209.252,119.3l2.494,3.646-5.469,8.7,25.488-8.507-4.221,18.292H192.367C189.681,141.462,188.242,139.032,189.649,137.56Z" transform="translate(-188.826 -119.012)" fill="#fff"/>
          <path id="Path_433" data-name="Path 433" d="M191.535,141.17h35.178a.311.311,0,0,0,.32-.256l4.221-18.292a.307.307,0,0,0-.1-.32.372.372,0,0,0-.32-.064l-24.657,8.251,4.989-7.963a.347.347,0,0,0,0-.352l-2.494-3.646a.324.324,0,0,0-.224-.128.363.363,0,0,0-.256.1L188.945,136.4l-.032.032s-.128.16-.32.352h0a2.206,2.206,0,0,0-.448,2.43A3.586,3.586,0,0,0,191.535,141.17Zm34.922-.64H191.535a2.969,2.969,0,0,1-2.846-1.6,1.567,1.567,0,0,1,.32-1.759,3.44,3.44,0,0,1,.352-.352l18.964-17.653,2.175,3.166-5.341,8.539a.287.287,0,0,0,.032.352.3.3,0,0,0,.352.1l24.944-8.347Z" transform="translate(-187.962 -118.4)"/>
        </g>
        <path id="Path_434" data-name="Path 434" d="M187.9,134.038l23.857-9.338-4.221,21.395H191.194C189.851,141.17,188.412,135.957,187.9,134.038Z" transform="translate(-168.433 -90.911)" fill="#1877f2"/>
        <g id="Group_409" data-name="Group 409" transform="translate(71.946)">
          <g id="Group_403" data-name="Group 403" transform="translate(10.911)">
            <path id="Path_435" data-name="Path 435" d="M55.969,41.862a.593.593,0,0,0,.224-.064.363.363,0,0,0,.1-.256c.064-3.422.32-20.467.32-20.5,0-.8-.224-1.727-.9-1.951-.576-.192-1.247.16-2.015,1.087-1.343,1.6-.352,19.092-.256,21.075a.287.287,0,0,0,.288.288l2.175.32Zm-2.175-.64Zm1.6-21.554a.117.117,0,0,1,.1.032c.288.1.48.672.48,1.343,0,.128-.288,17.4-.32,20.147l-1.567-.224c-.416-7.451-.768-19.316.128-20.371C54.689,19.988,55.105,19.668,55.393,19.668Z" transform="translate(-53 -19.042)"/>
          </g>
          <g id="Group_404" data-name="Group 404" transform="translate(0 12.981)">
            <path id="Path_436" data-name="Path 436" d="M77.736,69.107s3.678.32,3.71.1-2.079-8.6-2.079-8.6L73.9,64.31Z" transform="translate(-73.611 -60.291)" fill="#fff"/>
            <path id="Path_437" data-name="Path 437" d="M80,68.961c.768,0,.863-.1.927-.128a.4.4,0,0,0,.128-.256c0-.192-.672-3.1-2.079-8.7a.338.338,0,0,0-.192-.224.311.311,0,0,0-.288.032L73.028,63.4a.324.324,0,0,0-.128.224.345.345,0,0,0,.064.256l3.838,4.8a.516.516,0,0,0,.224.128C78.528,68.929,79.456,68.961,80,68.961Zm-2.974-.512Zm3.326-.128c-.544.032-1.919-.064-3.166-.16l-3.518-4.413,4.8-3.262C79.168,63.365,80.127,67.267,80.351,68.322Z" transform="translate(-72.9 -59.634)"/>
          </g>
          <path id="Path_438" data-name="Path 438" d="M59.991,43.558l5.309.384.416-21.171s-.64-1.023-1.407-.544S58.2,33.9,58.2,33.9Z" transform="translate(-52.859 -21.122)" fill="#1877f2"/>
          <g id="Group_405" data-name="Group 405" transform="translate(5.291 9.499)">
            <path id="Path_439" data-name="Path 439" d="M75.321,51.993a.593.593,0,0,0,.224-.064.311.311,0,0,0,.032-.448l-2.271-2.622a.317.317,0,1,0-.48.416L75.1,51.9A.346.346,0,0,0,75.321,51.993Z" transform="translate(-72.745 -48.745)"/>
          </g>
          <g id="Group_406" data-name="Group 406" transform="translate(6.438 8.375)">
            <path id="Path_440" data-name="Path 440" d="M72.628,47.748a.285.285,0,0,0,.256-.16.315.315,0,0,0-.1-.448,5.768,5.768,0,0,1-1.759-1.759.324.324,0,1,0-.544.352,6.784,6.784,0,0,0,1.951,1.983C72.5,47.716,72.564,47.748,72.628,47.748Z" transform="translate(-70.431 -45.231)"/>
          </g>
          <g id="Group_407" data-name="Group 407" transform="translate(7.269 7.096)">
            <path id="Path_441" data-name="Path 441" d="M70.7,43.172a.28.28,0,0,0,.288-.192.317.317,0,0,0-.16-.416c-.991-.448-1.151-.736-1.311-1.023-.032-.064-.064-.1-.1-.16a.324.324,0,0,0-.544.352c.032.032.032.1.064.128a2.759,2.759,0,0,0,1.631,1.279C70.6,43.172,70.636,43.172,70.7,43.172Z" transform="translate(-68.823 -41.231)"/>
          </g>
          <g id="Group_408" data-name="Group 408" transform="translate(3.689 10.22)">
            <path id="Path_442" data-name="Path 442" d="M77.562,56.756a.724.724,0,0,0,.672-.352,1.336,1.336,0,0,0,.128-.32A3.839,3.839,0,0,0,76.57,52.5,1.913,1.913,0,0,0,74.747,51h0a.285.285,0,0,0-.256.16.367.367,0,0,0-.032.32,2.872,2.872,0,0,0,1.375,1.375,4.115,4.115,0,0,0,.128,2.718,2.182,2.182,0,0,0,1.119,1.087A1.283,1.283,0,0,0,77.562,56.756ZM76.41,53.175a3.114,3.114,0,0,1,1.343,2.782c0,.032-.032.1-.032.128-.032.064-.224.064-.384,0a1.56,1.56,0,0,1-.8-.768A3.745,3.745,0,0,1,76.41,53.175Z" transform="translate(-74.439 -51)"/>
          </g>
        </g>
        <g id="Group_415" data-name="Group 415" transform="translate(81.412 44.609)">
          <g id="Group_410" data-name="Group 410" transform="translate(0.032 7.222)">
            <path id="Path_443" data-name="Path 443" d="M18.161,184.726c.8,0,1.727-.224,1.951-.9.192-.576-.16-1.247-1.087-2.015-1.6-1.343-19.092-.352-21.075-.256a.287.287,0,0,0-.288.288l-.32,2.175a.345.345,0,0,0,.064.256.346.346,0,0,0,.224.1C1.051,184.438,18.1,184.726,18.161,184.726ZM11.8,181.751c3.582,0,6.332.16,6.812.544.672.544.991,1.023.9,1.311s-.672.48-1.343.48c-.128,0-17.4-.288-20.147-.32l.224-1.567C2.267,181.975,7.575,181.751,11.8,181.751Z" transform="translate(2.658 -181.117)"/>
          </g>
          <path id="Path_444" data-name="Path 444" d="M.884,165.491.5,170.8l21.171.416s1.023-.64.544-1.407S10.542,163.7,10.542,163.7Z" transform="translate(-0.5 -162.048)" fill="#1877f2"/>
          <g id="Group_411" data-name="Group 411" transform="translate(10.088 1.603)">
            <path id="Path_445" data-name="Path 445" d="M27.351,166.441a.593.593,0,0,0,.224-.064l2.622-2.271a.317.317,0,0,0-.416-.48L27.159,165.9a.311.311,0,0,0-.032.448A.249.249,0,0,0,27.351,166.441Z" transform="translate(-27.045 -163.545)"/>
          </g>
          <g id="Group_412" data-name="Group 412" transform="translate(11.875 2.717)">
            <path id="Path_446" data-name="Path 446" d="M24.105,169.548a.285.285,0,0,0,.256-.16,5.768,5.768,0,0,1,1.759-1.759.324.324,0,1,0-.352-.544,6.784,6.784,0,0,0-1.983,1.951.315.315,0,0,0,.1.448A.458.458,0,0,0,24.105,169.548Z" transform="translate(-23.731 -167.031)"/>
          </g>
          <g id="Group_413" data-name="Group 413" transform="translate(13.791 3.549)">
            <path id="Path_447" data-name="Path 447" d="M19.944,171.828a.28.28,0,0,0,.288-.192c.448-.991.736-1.151,1.023-1.311.064-.032.1-.064.16-.1a.324.324,0,1,0-.352-.544c-.032.032-.1.032-.128.064a2.759,2.759,0,0,0-1.279,1.631.317.317,0,0,0,.16.416A.242.242,0,0,0,19.944,171.828Z" transform="translate(-19.631 -169.631)"/>
          </g>
          <g id="Group_414" data-name="Group 414" transform="translate(6.871)">
            <path id="Path_448" data-name="Path 448" d="M30.424,162.521a4.173,4.173,0,0,0,3.1-1.855,1.942,1.942,0,0,0,1.535-1.823.285.285,0,0,0-.16-.256.367.367,0,0,0-.32-.032,2.872,2.872,0,0,0-1.375,1.375,4.115,4.115,0,0,0-2.718.128,2.182,2.182,0,0,0-1.087,1.119.971.971,0,0,0,.224,1.183,1.337,1.337,0,0,0,.32.128C30.1,162.489,30.264,162.521,30.424,162.521Zm2.43-2.047a3.114,3.114,0,0,1-2.782,1.343c-.032,0-.1-.032-.128-.032-.064-.032-.064-.224,0-.384a1.56,1.56,0,0,1,.768-.8A4.062,4.062,0,0,1,32.855,160.474Z" transform="translate(-29.3 -158.534)"/>
          </g>
        </g>
        <g id="Group_416" data-name="Group 416" transform="translate(44.568 22.171)">
          <path id="Path_449" data-name="Path 449" d="M91.241,110.921,76.37,91.477a3.779,3.779,0,0,0-6.428-.448L48.1,121.314H66.52a10.958,10.958,0,0,0,10.809-9.178l.224-1.407,6.556,3.262Z" transform="translate(-47.777 -89.101)" fill="#fff"/>
          <path id="Path_450" data-name="Path 450" d="M47.383,120.935H65.8a11.215,11.215,0,0,0,11.129-9.466l.16-.991,6.172,3.07a.35.35,0,0,0,.256,0l7.132-3.07a.338.338,0,0,0,.192-.224.326.326,0,0,0-.064-.288L75.91,90.555a4.181,4.181,0,0,0-3.326-2.175,4.088,4.088,0,0,0-3.614,1.695L47.128,120.36a.294.294,0,0,0-.032.32A.275.275,0,0,0,47.383,120.935Zm29.454-11.257a.288.288,0,0,0-.16.032.24.24,0,0,0-.16.224l-.224,1.407A10.564,10.564,0,0,1,65.8,120.264H47.991L69.482,90.491a3.487,3.487,0,0,1,3.07-1.439,3.387,3.387,0,0,1,2.814,1.855.031.031,0,0,0,.032.032l14.615,19.124-6.62,2.846-6.428-3.2C76.933,109.71,76.9,109.678,76.837,109.678Z" transform="translate(-47.061 -88.37)"/>
        </g>
        <g id="Group_417" data-name="Group 417" transform="translate(35.316 13.93)">
          <path id="Path_451" data-name="Path 451" d="M123.244,64.34s-15.031-.64-22.386-.64c-2.654,0-5.085,1.343-5.788,3.9L84.9,104.218h19.86a6.779,6.779,0,0,0,6.588-8.411l-5.053-20.115,19.252-4.8Z" transform="translate(-84.6 -63.348)" fill="#fff"/>
          <path id="Path_452" data-name="Path 452" d="M84.159,103.79h19.86A7.1,7.1,0,0,0,110.926,95l-4.989-19.8L124.9,70.435c.1-.032.16-.064.192-.16a.34.34,0,0,0,.032-.256l-2.3-6.556a.354.354,0,0,0-.288-.224c-.16,0-15.127-.64-22.418-.64-3.006,0-5.4,1.631-6.108,4.125L83.871,103.31a.326.326,0,0,0,.064.288A.234.234,0,0,0,84.159,103.79ZM124.39,69.923l-18.932,4.733c-.1.032-.16.064-.192.16a.34.34,0,0,0-.032.256l5.053,20.115a6.466,6.466,0,0,1-1.183,5.533,6.379,6.379,0,0,1-5.085,2.462H84.575L94.616,66.949c.608-2.239,2.782-3.678,5.5-3.678,6.812,0,20.307.544,22.162.608Z" transform="translate(-83.859 -62.6)"/>
        </g>
        <g id="Group_418" data-name="Group 418" transform="translate(68.339 40.736)">
          <path id="Path_453" data-name="Path 453" d="M94.772,150.094a.307.307,0,0,0,.288-.192.317.317,0,0,0-.16-.416l-6.236-3.038a.315.315,0,0,0-.256.576l6.236,3.038C94.676,150.062,94.74,150.094,94.772,150.094Z" transform="translate(-88.223 -146.423)"/>
        </g>
        <g id="Group_428" data-name="Group 428" transform="translate(15.925 20.862)">
          <g id="Group_419" data-name="Group 419" transform="translate(5.132 5.399)">
            <path id="Path_454" data-name="Path 454" d="M228.931,118.3c.448-.16,2.111-3.806,1.695-4l-3.678-9.37a4.32,4.32,0,0,0-5.6-2.462h0a4.32,4.32,0,0,0-2.462,5.6l3.294,9.146C222.663,118.524,228.931,118.3,228.931,118.3Z" transform="translate(-218.241 -101.849)" fill="#fff"/>
            <path id="Path_455" data-name="Path 455" d="M226.919,117.96c.448,0,.927,0,1.471-.032a.117.117,0,0,0,.1-.032c.608-.224,1.951-3.39,1.951-4.093a.541.541,0,0,0-.128-.384l-3.646-9.306a4.64,4.64,0,0,0-8.571-.16,4.56,4.56,0,0,0-.064,3.55l3.294,9.114C221.45,116.969,222.218,117.96,226.919,117.96Zm1.311-.64Zm.032-.032c-2.878.1-6.108-.192-6.332-.9l-3.294-9.146a3.934,3.934,0,0,1,.064-3.07,4.01,4.01,0,0,1,7.419.128l3.678,9.37c0,.032.032.064.032.1A10.517,10.517,0,0,1,228.262,117.289Zm1.695-3.39Z" transform="translate(-217.7 -101.157)"/>
          </g>
          <g id="Group_420" data-name="Group 420" transform="translate(1.879 0.915)">
            <path id="Path_456" data-name="Path 456" d="M225.391,102.971a5.658,5.658,0,0,0,5.948-1.919h0a5.644,5.644,0,0,0-.9-7.931l-4.733-3.742a5.644,5.644,0,0,0-7.931.9h0a5.644,5.644,0,0,0,.9,7.931Z" transform="translate(-216.213 -87.824)" fill="#fff"/>
            <path id="Path_457" data-name="Path 457" d="M226.314,102.826a5.863,5.863,0,0,0,4.637-2.239,5.943,5.943,0,0,0-.927-8.379l-4.733-3.774a5.961,5.961,0,1,0-7.451,9.306.32.32,0,0,0,.384-.512,5.286,5.286,0,0,1-.863-7.451,5.329,5.329,0,0,1,7.483-.831l4.733,3.774a5.286,5.286,0,0,1,.863,7.451,5.345,5.345,0,0,1-5.6,1.791.314.314,0,1,0-.16.608A5.082,5.082,0,0,0,226.314,102.826Z" transform="translate(-215.601 -87.136)"/>
          </g>
          <path id="Path_458" data-name="Path 458" d="M235.279,97.107a7.462,7.462,0,0,1-2.079-4,3.5,3.5,0,0,1,1.183-2.175,3.935,3.935,0,0,1-.959-1.407A7.4,7.4,0,0,1,234.7,87.1a7.518,7.518,0,0,1,10.553-1.183l.288.224a3.333,3.333,0,0,1-1.119.768,3.191,3.191,0,0,1-2.75-.224,3.073,3.073,0,0,1-1.759,1.759c-.032,0-.032,0-.064.032a3.371,3.371,0,0,1-1.247,2.686A3.863,3.863,0,0,1,239.6,92.6a3.474,3.474,0,0,1-1.759,4.573A2.876,2.876,0,0,1,235.279,97.107Z" transform="translate(-232.633 -84.275)" fill="#080717"/>
          <g id="Group_421" data-name="Group 421" transform="translate(0.847 9.337)">
            <path id="Path_459" data-name="Path 459" d="M256.632,116.655a3.231,3.231,0,1,0-1.823,4.189,3.172,3.172,0,0,0,1.6-1.343Z" transform="translate(-250.068 -114.248)" fill="#fff"/>
            <path id="Path_460" data-name="Path 460" d="M253,120.581a3.509,3.509,0,0,0,1.279-.256,3.6,3.6,0,0,0,1.759-1.471.324.324,0,1,0-.544-.352,2.934,2.934,0,1,1,.192-2.558.324.324,0,0,0,.608-.224,3.529,3.529,0,0,0-1.887-1.951,3.632,3.632,0,0,0-2.718-.064,3.529,3.529,0,0,0-1.951,1.887,3.632,3.632,0,0,0-.064,2.718,3.529,3.529,0,0,0,1.887,1.951A3.354,3.354,0,0,0,253,120.581Z" transform="translate(-249.437 -113.473)"/>
          </g>
          <path id="Path_461" data-name="Path 461" d="M229.927,101.294c.288.256.672.32.863.128a.6.6,0,0,0-.16-.831c-.288-.256-.672-.32-.863-.128A.6.6,0,0,0,229.927,101.294Z" transform="translate(-216.855 -95.21)"/>
          <path id="Path_462" data-name="Path 462" d="M235.327,108.594c.288.256.672.32.863.128a.6.6,0,0,0-.16-.831c-.288-.256-.672-.32-.863-.128C234.975,107.923,235.039,108.306,235.327,108.594Z" transform="translate(-223.982 -100.176)"/>
          <g id="Group_422" data-name="Group 422" transform="translate(13.259 9.392)">
            <path id="Path_463" data-name="Path 463" d="M226.294,114.718a2.149,2.149,0,0,0,1.375-.512.317.317,0,0,0-.416-.48,1.394,1.394,0,0,1-1.151.352.285.285,0,0,0-.352.256.3.3,0,0,0,.256.352C226.07,114.686,226.166,114.718,226.294,114.718Z" transform="translate(-225.745 -113.645)"/>
          </g>
          <g id="Group_423" data-name="Group 423" transform="translate(11.961 6.54)">
            <path id="Path_464" data-name="Path 464" d="M230.864,106.6a.291.291,0,0,0,.256-.128.344.344,0,0,0-.064-.448l-1.727-1.247a.32.32,0,0,0-.384.512l1.727,1.247C230.7,106.6,230.8,106.6,230.864,106.6Z" transform="translate(-228.826 -104.726)"/>
          </g>
          <g id="Group_424" data-name="Group 424" transform="translate(11.481 3.893)">
            <path id="Path_465" data-name="Path 465" d="M232.891,97.552a.454.454,0,0,0,.192-.064,2.168,2.168,0,0,1,.863-.416.314.314,0,0,0-.16-.608,2.813,2.813,0,0,0-1.119.544.344.344,0,0,0-.064.448A.516.516,0,0,0,232.891,97.552Z" transform="translate(-232.547 -96.447)"/>
          </g>
          <g id="Group_425" data-name="Group 425" transform="translate(9.588 6.231)">
            <path id="Path_466" data-name="Path 466" d="M240.241,105.563h.064a.3.3,0,0,0,.224-.384.751.751,0,0,1,.352-.8.329.329,0,1,0-.32-.576,1.42,1.42,0,0,0-.672,1.5A.448.448,0,0,0,240.241,105.563Z" transform="translate(-239.859 -103.759)"/>
          </g>
          <g id="Group_426" data-name="Group 426" transform="translate(4.904 11.156)">
            <path id="Path_467" data-name="Path 467" d="M253.839,121.123a.288.288,0,0,0,.16-.032.324.324,0,0,0,.128-.448,3.5,3.5,0,0,0-1.375-1.439.329.329,0,1,0-.32.576,3.058,3.058,0,0,1,1.119,1.183A.382.382,0,0,0,253.839,121.123Z" transform="translate(-252.259 -119.159)"/>
          </g>
          <g id="Group_427" data-name="Group 427" transform="translate(0 5.74)">
            <path id="Path_468" data-name="Path 468" d="M266.908,104.264a.455.455,0,0,0,.192-.064l.064-.064a2.646,2.646,0,0,1,1.311-.64.322.322,0,0,0,0-.64,3.1,3.1,0,0,1-1.471-.576.32.32,0,0,0-.384.512,3.344,3.344,0,0,0,.736.416,4.487,4.487,0,0,0-.576.384l-.064.064a.309.309,0,0,0-.064.448A.326.326,0,0,0,266.908,104.264Z" transform="translate(-266.5 -102.226)"/>
          </g>
        </g>
      </g>
      <g id="Group_430" data-name="Group 430" transform="translate(28.869)">
        <path id="Path_470" data-name="Path 470" d="M218.1,15.838a.641.641,0,0,0,.64.64h3.2a.641.641,0,0,0,.64-.64v-3.2a.641.641,0,0,0-.64-.64h-3.2a.641.641,0,0,0-.64.64Z" transform="translate(-217.78 -11.68)" fill="#fff"/>
        <path id="Path_471" data-name="Path 471" d="M218.059,16.117h3.2a.942.942,0,0,0,.959-.959v-3.2a.942.942,0,0,0-.959-.959h-3.2a.942.942,0,0,0-.959.959v3.2A.962.962,0,0,0,218.059,16.117Zm3.2-4.477a.3.3,0,0,1,.32.32v3.2a.3.3,0,0,1-.32.32h-3.2a.3.3,0,0,1-.32-.32v-3.2a.3.3,0,0,1,.32-.32Z" transform="translate(-217.1 -11)" fill="#fff"/>
      </g>
      <g id="Group_431" data-name="Group 431" transform="translate(27.59 0.192)">
        <path id="Path_472" data-name="Path 472" d="M233.379,15.919,232.1,17.2V14l1.279,1.279Z" transform="translate(-231.78 -13.232)" fill="#fff"/>
        <path id="Path_473" data-name="Path 473" d="M231.4,16.333l1.823-1.823-.448-.448-.736.736V13.135l.736.736.448-.448L231.4,11.6Z" transform="translate(-231.4 -11.6)" fill="#fff"/>
      </g>
    </g>
  </g>
</svg>
