<svg id="soup" xmlns="http://www.w3.org/2000/svg" width="22.361" height="19.085" viewBox="0 0 22.361 19.085">
  <path id="Path_5044" data-name="Path 5044" d="M23.55,12.148H21.786l2.259-3.911a2.283,2.283,0,0,0,.231-1.724,2.259,2.259,0,0,0-1.062-1.381A2.283,2.283,0,0,0,21.491,4.9,2.259,2.259,0,0,0,20.11,5.963l-3.392,5.875a.958.958,0,0,0-.1.311H2.8a.8.8,0,0,0-.79.926l.8,4.853a6.425,6.425,0,0,0,6.377,5.4h7.982a6.425,6.425,0,0,0,6.385-5.4l.8-4.853a.8.8,0,0,0-.8-.926ZM21.491,6.761a.686.686,0,0,1,.926-.247.71.71,0,0,1,.311.415.67.67,0,0,1-.064.511l-2.722,4.709h-1.6Zm.463,10.911a4.845,4.845,0,0,1-4.789,4.055H9.183a4.845,4.845,0,0,1-4.789-4.055l-.12-.734h17.8Zm.391-2.331H3.987l-.263-1.6H22.608Z" transform="translate(-1.998 -4.238)" fill="#fff"/>
  <path id="Path_5045" data-name="Path 5045" d="M12.448,6.181a.327.327,0,0,1,0,.463,1.94,1.94,0,0,0,0,2.73l.144.144a.327.327,0,0,1,0,.415.823.823,0,0,0,1.365.918,1.932,1.932,0,0,0-.239-2.395l-.144-.144a.327.327,0,0,1,0-.463,1.94,1.94,0,0,0,0-2.73l-.8-.8A.8.8,0,1,0,11.65,5.455Z" transform="translate(-3.898 -4.089)" fill="#fff"/>
  <path id="Path_5046" data-name="Path 5046" d="M15.712,10.123a.327.327,0,0,1,0,.415.823.823,0,0,0,1.365.918,1.932,1.932,0,0,0-.239-2.395l-.144-.144a.327.327,0,0,1,0-.463.8.8,0,1,0-1.125-1.133,1.94,1.94,0,0,0,0,2.73Z" transform="translate(-4.623 -4.695)" fill="#fff"/>
  <path id="Path_5047" data-name="Path 5047" d="M9.712,10.123a.327.327,0,0,1,0,.415.823.823,0,0,0,1.365.918,1.932,1.932,0,0,0-.239-2.395l-.144-.144a.327.327,0,0,1,0-.463A.8.8,0,0,0,9.568,7.321a1.94,1.94,0,0,0,0,2.73Z" transform="translate(-3.412 -4.695)" fill="#fff"/>
</svg>
