<svg id="Layer_2" data-name="Layer 2" xmlns="http://www.w3.org/2000/svg" width="91.514" height="43.89" viewBox="0 0 91.514 43.89">
  <g id="Calque_1" data-name="Calque 1">
    <path id="Path_12" data-name="Path 12" d="M28.8,13.387q-14.4-.068-28.8-.241V0Q14.355,1.778,28.8,2.484Z" fill="#fff"/>
    <path id="Path_13" data-name="Path 13" d="M263.857,30.264q-14.439.052-28.877,0V19.46q14.441.533,28.877,0Z" transform="translate(-203.661 -16.866)" fill="#fff"/>
    <path id="Path_14" data-name="Path 14" d="M499.357,13.146q-14.394.175-28.8.241V2.484q14.453-.705,28.8-2.484Z" transform="translate(-407.843)" fill="#fff"/>
    <path id="Path_15" data-name="Path 15" d="M28.8,128.892Q14.351,129.6,0,131.377V118.231q14.395-.173,28.8-.241Z" transform="translate(0 -102.264)" fill="#fff"/>
    <path id="Path_16" data-name="Path 16" d="M263.874,128.549q-14.44-.533-28.874,0V117.741q14.438-.052,28.877,0Z" transform="translate(-203.679 -102.026)" fill="#fff"/>
    <path id="Path_17" data-name="Path 17" d="M499.357,131.386Q485,129.608,470.56,128.9V118q14.394.068,28.8.241Z" transform="translate(-407.843 -102.273)" fill="#fff"/>
    <path id="Path_18" data-name="Path 18" d="M5.014,254.313c.385-.393.58-.589.968-.981a.185.185,0,0,1,.267,0,3.307,3.307,0,0,0,2.695.681c.776-.091,1.979-.632,1.8-1.5-.514-2.447-5.946-1.134-6.35-4.492-.223-1.841,1.45-3.307,3.231-3.484a5.972,5.972,0,0,1,3.692,1,.176.176,0,0,1,.041.267c-.323.449-.482.674-.8,1.125a.18.18,0,0,1-.267.045,3.613,3.613,0,0,0-2.532-.673c-.9.107-1.842.712-1.6,1.563.621,2.231,5.888.973,6.327,4.521.236,1.9-1.79,3.176-3.4,3.388a4.992,4.992,0,0,1-4.066-1.192.18.18,0,0,1,0-.267Z" transform="translate(-3.788 -211.929)" fill="#fff"/>
    <path id="Path_19" data-name="Path 19" d="M75,238.059a6.129,6.129,0,0,1,3.052.688.179.179,0,0,1,.065.267c-.289.485-.433.728-.72,1.213a.173.173,0,0,1-.267.068,3.308,3.308,0,0,0-1.967-.461c-4.577.379-3.937,7.756.621,7.331a2.917,2.917,0,0,0,1.847-.758.159.159,0,0,1,.252.009c.36.427.533.64.9,1.066a.2.2,0,0,1-.023.267,4.449,4.449,0,0,1-2.836,1.184A5.456,5.456,0,0,1,75,238.059Z" transform="translate(-60.738 -206.318)" fill="#fff"/>
    <path id="Path_20" data-name="Path 20" d="M147.5,245.272l-.716-10.167a.071.071,0,0,1,.069-.08c1.133-.083,1.7-.123,2.831-.2.421-.028.678-.044.86-.041,3,.133,4.665,3.976,1.849,5.731a.331.331,0,0,0-.12.533q1.442,1.879,2.86,3.779c.079.1.037.163-.08.168l-1.714.093a.38.38,0,0,1-.316-.147q-1.315-1.757-2.643-3.507a.817.817,0,0,0-.673-.3l-.3.02a.391.391,0,0,0-.387.445c.093,1.419.14,2.133.232,3.549a.179.179,0,0,1-.177.207l-1.375.1a.18.18,0,0,1-.2-.187Zm1.358-6.21a.4.4,0,0,0,.445.4l1.085-.072a1.465,1.465,0,1,0-.179-2.908l-1.094.072a.4.4,0,0,0-.391.461Z" transform="translate(-127.221 -203.495)" fill="#fff"/>
    <path id="Path_21" data-name="Path 21" d="M219.132,230.845a.181.181,0,0,1,.187-.2q3.217-.145,6.438-.239a.183.183,0,0,1,.2.189l.033,1.285a.183.183,0,0,1-.191.2q-2.191.067-4.382.149a.4.4,0,0,0-.4.435c.031.753.045,1.129.075,1.882a.392.392,0,0,0,.435.4c1.31-.052,1.966-.076,3.277-.116a.179.179,0,0,1,.2.188c.015.513.023.77.037,1.285a.18.18,0,0,1-.187.2c-1.3.04-1.958.064-3.263.116a.391.391,0,0,0-.4.435c.029.753.044,1.129.075,1.882a.388.388,0,0,0,.428.4q2.151-.083,4.3-.147a.179.179,0,0,1,.2.189l.033,1.285a.179.179,0,0,1-.185.2q-3.129.084-6.256.231a.177.177,0,0,1-.2-.185Z" transform="translate(-189.924 -199.694)" fill="#fff"/>
    <path id="Path_22" data-name="Path 22" d="M285.264,229.661a.18.18,0,0,1,.192-.2q3.219-.068,6.44-.079a.18.18,0,0,1,.2.193v1.285a.181.181,0,0,1-.195.195q-2.192.012-4.385.041a.4.4,0,0,0-.413.425c.012.753.017,1.13.029,1.883a.392.392,0,0,0,.424.412c1.312-.02,1.967-.028,3.279-.036a.181.181,0,0,1,.2.193v1.285a.181.181,0,0,1-.192.2c-1.306.008-1.959.015-3.264.035a.392.392,0,0,0-.409.425c.012.753.019,1.13.031,1.883a.389.389,0,0,0,.419.412q2.151-.029,4.3-.04a.179.179,0,0,1,.192.193v1.285a.18.18,0,0,1-.189.2q-3.131.008-6.264.076a.179.179,0,0,1-.195-.191Q285.369,234.7,285.264,229.661Z" transform="translate(-247.243 -198.811)" fill="#fff"/>
    <path id="Path_23" data-name="Path 23" d="M351.235,229.579a.181.181,0,0,1,.2-.193h.227a.5.5,0,0,1,.316.133q2.855,3.083,5.65,6.218c.072.076.116.107.176.108s.105-.072.108-.221q.063-2.98.125-5.962a.181.181,0,0,1,.2-.191l1.418.035a.181.181,0,0,1,.191.2l-.26,10.069a.18.18,0,0,1-.2.189h-.205a.441.441,0,0,1-.319-.157q-2.752-3.158-5.565-6.255a.229.229,0,0,0-.179-.107c-.06,0-.105.075-.107.224q-.023,2.995-.045,6a.18.18,0,0,1-.192.193c-.552,0-.828-.007-1.378-.008a.18.18,0,0,1-.191-.195Q351.219,234.617,351.235,229.579Z" transform="translate(-304.396 -198.812)" fill="#fff"/>
    <path id="Path_24" data-name="Path 24" d="M431.277,230.912q3.219.112,6.436.279a.18.18,0,0,1,.185.2c-.025.513-.039.77-.064,1.284a.183.183,0,0,1-.205.184q-3.2-.171-6.407-.276a.183.183,0,0,1-.189-.2c.016-.514.025-.77.041-1.285a.181.181,0,0,1,.2-.188Zm-.163,4.959q2.64.089,5.281.22a.18.18,0,0,1,.184.2c-.024.513-.037.77-.061,1.283a.179.179,0,0,1-.2.184c-1.3-.064-1.954-.092-3.257-.144a.388.388,0,0,0-.429.4c-.048,1.285-.071,1.927-.119,3.211a.177.177,0,0,1-.2.187l-1.378-.049a.179.179,0,0,1-.184-.2l.165-5.107a.179.179,0,0,1,.2-.188Z" transform="translate(-373.339 -200.134)" fill="#fff"/>
    <path id="Path_25" data-name="Path 25" d="M494.525,234.1a.181.181,0,0,1,.207-.183l1.415.085a.181.181,0,0,1,.184.207l-.4,6.712a.18.18,0,0,1-.2.183c-.555-.035-.833-.052-1.389-.084a.181.181,0,0,1-.181-.205Zm-.485,8.774a.179.179,0,0,1,.2-.184q3.142.185,6.279.424a.18.18,0,0,1,.176.209l-.093,1.281a.179.179,0,0,1-.205.18q-3.123-.241-6.25-.423a.179.179,0,0,1-.18-.2C494,243.644,494.011,243.391,494.04,242.875Z" transform="translate(-428.129 -202.739)" fill="#fff"/>
    <path id="Path_26" data-name="Path 26" d="M554.928,239.719l.1-1.281a.179.179,0,0,1,.211-.177q3.212.267,6.422.582a.183.183,0,0,1,.176.213c-.049.512-.073.768-.123,1.28a.18.18,0,0,1-.213.173q-3.2-.32-6.4-.581a.181.181,0,0,1-.175-.209Zm-.24,3.1a.179.179,0,0,1,.208-.177q3.175.267,6.346.576a.182.182,0,0,1,.174.213c-.049.512-.073.768-.123,1.28a.179.179,0,0,1-.211.173q-3.157-.317-6.318-.573a.181.181,0,0,1-.177-.209Zm-.133,4.2q3.136.259,6.264.569a.181.181,0,0,1,.173.213c-.049.512-.075.768-.124,1.278a.177.177,0,0,1-.208.175q-3.119-.315-6.242-.566a.18.18,0,0,1-.175-.209c.04-.513.06-.769.1-1.281a.179.179,0,0,1,.211-.179Z" transform="translate(-480.371 -206.502)" fill="#fff"/>
    <path id="Path_27" data-name="Path 27" d="M615.01,254.284q1.678-2.2,3.384-4.365a.689.689,0,0,0,.077-.713q-1.214-2.507-2.45-5c-.051-.111-.015-.167.107-.155.684.072,1.026.109,1.711.185a.352.352,0,0,1,.284.2q2.627,5.377,5.118,10.816c.045.112,0,.165-.108.152-.666-.085-1-.133-1.662-.209a.342.342,0,0,1-.267-.2c-.6-1.3-.9-1.943-1.514-3.236-.061-.113-.133-.181-.2-.189a.32.32,0,0,0-.239.133c-.882,1.118-1.319,1.679-2.19,2.8a.338.338,0,0,1-.309.133c-.667-.073-1-.109-1.665-.18C614.965,254.444,614.941,254.382,615.01,254.284Zm5.6-7.161c.7-.88,1.057-1.318,1.769-2.194a.346.346,0,0,1,.32-.125c.684.084,1.026.133,1.71.216.1.013.143.079.069.175q-1.5,1.835-2.994,3.689c-.072.1-.16.085-.208-.025-.277-.564-.417-.845-.7-1.409a.321.321,0,0,1,.037-.327Z" transform="translate(-533.007 -211.521)" fill="#fff"/>
  </g>
</svg>
