<svg xmlns="http://www.w3.org/2000/svg" width="24.085" height="21.508" viewBox="0 0 24.085 21.508">
  <g id="university" transform="translate(-2.008 -4.003)">
    <path id="Path_5034" data-name="Path 5034" d="M24.372,19.626V10.419l1.17-.456a.86.86,0,0,0,0-1.6l-11.185-4.3a.86.86,0,0,0-.62,0L2.552,8.363a.86.86,0,0,0,0,1.6l4.612,1.781L6.3,16.769a.86.86,0,0,0,.551.946L13.737,20.3a.9.9,0,0,0,.6,0l6.883-2.581a.86.86,0,0,0,.551-.946l-.792-5.025,1.669-.663v8.544A2.5,2.5,0,0,0,20.93,22v2.65a.86.86,0,0,0,.86.86h3.442a.86.86,0,0,0,.86-.86V22a2.5,2.5,0,0,0-1.721-2.375ZM14.047,5.781l8.785,3.381-8.785,3.381L5.262,9.163Zm5.928,10.566-5.928,2.22-5.92-2.22.663-3.984,4.947,1.9a.86.86,0,0,0,.62,0l4.982-1.919Zm4.4,7.443H22.651V22a.792.792,0,0,1,.792-.792h.138a.792.792,0,0,1,.792.792Z" transform="translate(0 0)" fill="#fff"/>
  </g>
</svg>
